  0
SECTION
  2
HEADER
  9
$INSBASE
 10
0.0000
 20
0.0000
  9
$EXTMIN
 10
-16.770509831248486
 20
-316.77050983124849
  9
$EXTMAX
 10
316.77050983124951
 20
316.77050983125065
  9
$LIMMIN
 10
-16.770509831248486
 20
-316.77050983124849
  9
$LIMMAX
 10
316.77050983124951
 20
316.77050983125065
  9
$TEXTSTYLE
  7
STANDARD
  9
$CLAYER
  8
default
  0
ENDSEC
  0
SECTION
  2
TABLES
  0
TABLE
  2
LTYPE
 70
4948253
  0
LTYPE
  2
CONTINUOUS
 70
    64
  3
Solid line
 72
    65
 73
     0
 40
0.0
  0
ENDTAB
  0
TABLE
  2
LAYER
 70
     5
  0
LAYER
  2
default
 70
    64
 62
     7
  6
CONTINUOUS
  0
ENDTAB
  0
TABLE
  2
STYLE
 70
     1
  0
STYLE
  2
STANDARD
 70
     0
 40
0.0
 41
1.0
 50
0.0
 71
     0
 42
0.2
  3
txt
  4

  0
ENDTAB
  0
TABLE
  2
VIEW
 70
     0
  0
ENDTAB
  0
ENDSEC
  0
SECTION
  2
BLOCKS
  0
ENDSEC
  0
SECTION
  2
ENTITIES
  0
LINE
  8
default
 10
18.808499999999999
 20
120
 30
0.0
 11
20.637499999999999
 21
120
 31
0.0
  0
LINE
  8
default
 10
20.637499999999999
 20
120
 30
0.0
 11
20.637499999999999
 21
80
 31
0.0
  0
LINE
  8
default
 10
20.637499999999999
 20
-120
 30
0.0
 11
18.808499999999999
 21
-120
 31
0.0
  0
LINE
  8
default
 10
18.808499999999999
 20
-120
 30
0.0
 11
18.808499999999999
 21
120
 31
0.0
  0
LINE
  8
default
 10
20.637499999999999
 20
80
 30
0.0
 11
20.637499999999999
 21
-80
 31
0.0
  0
LINE
  8
default
 10
20.637499999999999
 20
-80
 30
0.0
 11
20.637499999999999
 21
-120
 31
0.0
  0
LINE
  8
default
 10
20.637499999999999
 20
-80
 30
0.0
 11
26.957500000000003
 21
-80
 31
0.0
  0
LINE
  8
default
 10
26.957500000000003
 20
-80
 30
0.0
 11
26.957500000000003
 21
80
 31
0.0
  0
LINE
  8
default
 10
26.957500000000003
 20
80
 30
0.0
 11
20.637499999999999
 21
80
 31
0.0
  0
LINE
  8
default
 10
28.917999999999999
 20
90
 30
0.0
 11
28.917999999999999
 21
-90
 31
0.0
  0
LINE
  8
default
 10
28.917999999999999
 20
-90
 30
0.0
 11
31.917999999999999
 21
-90
 31
0.0
  0
LINE
  8
default
 10
31.917999999999999
 20
90
 30
0.0
 11
28.917999999999999
 21
90
 31
0.0
  0
LINE
  8
default
 10
0
 20
300
 30
0.0
 11
0
 21
-300
 31
0.0
  0
LINE
  8
default
 10
0.01
 20
60
 30
0.0
 11
0.01
 21
-60
 31
0.0
  0
LINE
  8
default
 10
31.917999999999999
 20
90
 30
0.0
 11
31.917999999999999
 21
-90
 31
0.0
  0
LINE
  8
default
 10
5.5
 20
36.5
 30
0.0
 11
6.5
 21
36.5
 31
0.0
  0
LINE
  8
default
 10
5.5
 20
21.5
 30
0.0
 11
6.5
 21
21.5
 31
0.0
  0
LINE
  8
default
 10
5.5
 20
36.5
 30
0.0
 11
5.5
 21
21.5
 31
0.0
  0
LINE
  8
default
 10
6.5
 20
21.5
 30
0.0
 11
6.5
 21
36.5
 31
0.0
  0
LINE
  8
default
 10
0.5
 20
36.5
 30
0.0
 11
0.5
 21
21.5
 31
0.0
  0
ARC
  8
default
 10
0
 20
0
 30
0
 40
300
 50
270
 51
90
  0
ARC
  8
default
 10
11.050000000000001
 20
32
 30
0
 40
1.0499999999999998
 50
180
 51
0
  0
ARC
  8
default
 10
11.050000000000001
 20
32
 30
0
 40
1.0499999999999998
 50
0
 51
180
  0
ARC
  8
default
 10
11.050000000000001
 20
34.149999999999999
 30
0
 40
1.0499999999999998
 50
180
 51
0
  0
ARC
  8
default
 10
11.050000000000001
 20
34.149999999999999
 30
0
 40
1.0499999999999998
 50
0
 51
180
  0
ARC
  8
default
 10
11.050000000000001
 20
36.299999999999997
 30
0
 40
1.0499999999999998
 50
180
 51
0
  0
ARC
  8
default
 10
11.050000000000001
 20
36.299999999999997
 30
0
 40
1.0499999999999998
 50
0
 51
180
  0
ARC
  8
default
 10
11.050000000000001
 20
38.450000000000003
 30
0
 40
1.0499999999999998
 50
180
 51
0
  0
ARC
  8
default
 10
11.050000000000001
 20
38.450000000000003
 30
0
 40
1.0499999999999998
 50
0
 51
180
  0
ARC
  8
default
 10
11.050000000000001
 20
40.600000000000001
 30
0
 40
1.0499999999999998
 50
180
 51
0
  0
ARC
  8
default
 10
11.050000000000001
 20
40.600000000000001
 30
0
 40
1.0499999999999998
 50
0
 51
180
  0
ARC
  8
default
 10
11.050000000000001
 20
42.75
 30
0
 40
1.0499999999999998
 50
180
 51
0
  0
ARC
  8
default
 10
11.050000000000001
 20
42.75
 30
0
 40
1.0499999999999998
 50
0
 51
180
  0
ARC
  8
default
 10
12.949999999999999
 20
33.079999999999998
 30
0
 40
1.0499999999999998
 50
180
 51
0
  0
ARC
  8
default
 10
12.949999999999999
 20
33.079999999999998
 30
0
 40
1.0499999999999998
 50
0
 51
180
  0
ARC
  8
default
 10
12.949999999999999
 20
35.229999999999997
 30
0
 40
1.0499999999999998
 50
180
 51
0
  0
ARC
  8
default
 10
12.949999999999999
 20
35.229999999999997
 30
0
 40
1.0499999999999998
 50
0
 51
180
  0
ARC
  8
default
 10
12.949999999999999
 20
37.379999999999995
 30
0
 40
1.0499999999999998
 50
180
 51
0
  0
ARC
  8
default
 10
12.949999999999999
 20
37.379999999999995
 30
0
 40
1.0499999999999998
 50
0
 51
180
  0
ARC
  8
default
 10
12.949999999999999
 20
39.530000000000001
 30
0
 40
1.0499999999999998
 50
180
 51
0
  0
ARC
  8
default
 10
12.949999999999999
 20
39.530000000000001
 30
0
 40
1.0499999999999998
 50
0
 51
180
  0
ARC
  8
default
 10
12.949999999999999
 20
41.68
 30
0
 40
1.0499999999999998
 50
180
 51
0
  0
ARC
  8
default
 10
12.949999999999999
 20
41.68
 30
0
 40
1.0499999999999998
 50
0
 51
180
  0
ARC
  8
default
 10
11.050000000000001
 20
26
 30
0
 40
1.0499999999999998
 50
0
 51
180
  0
ARC
  8
default
 10
11.050000000000001
 20
26
 30
0
 40
1.0499999999999998
 50
180
 51
0
  0
ARC
  8
default
 10
11.050000000000001
 20
23.850000000000001
 30
0
 40
1.0499999999999998
 50
0
 51
180
  0
ARC
  8
default
 10
11.050000000000001
 20
23.850000000000001
 30
0
 40
1.0499999999999998
 50
180
 51
0
  0
ARC
  8
default
 10
11.050000000000001
 20
21.700000000000003
 30
0
 40
1.0499999999999998
 50
0
 51
180
  0
ARC
  8
default
 10
11.050000000000001
 20
21.700000000000003
 30
0
 40
1.0499999999999998
 50
180
 51
0
  0
ARC
  8
default
 10
11.050000000000001
 20
19.549999999999997
 30
0
 40
1.0499999999999998
 50
0
 51
180
  0
ARC
  8
default
 10
11.050000000000001
 20
19.549999999999997
 30
0
 40
1.0499999999999998
 50
180
 51
0
  0
ARC
  8
default
 10
11.050000000000001
 20
17.399999999999999
 30
0
 40
1.0499999999999998
 50
0
 51
180
  0
ARC
  8
default
 10
11.050000000000001
 20
17.399999999999999
 30
0
 40
1.0499999999999998
 50
180
 51
0
  0
ARC
  8
default
 10
11.050000000000001
 20
15.25
 30
0
 40
1.0499999999999998
 50
0
 51
180
  0
ARC
  8
default
 10
11.050000000000001
 20
15.25
 30
0
 40
1.0499999999999998
 50
180
 51
0
  0
ARC
  8
default
 10
12.949999999999999
 20
24.920000000000002
 30
0
 40
1.0499999999999998
 50
0
 51
180
  0
ARC
  8
default
 10
12.949999999999999
 20
24.920000000000002
 30
0
 40
1.0499999999999998
 50
180
 51
0
  0
ARC
  8
default
 10
12.949999999999999
 20
22.770000000000003
 30
0
 40
1.0499999999999998
 50
0
 51
180
  0
ARC
  8
default
 10
12.949999999999999
 20
22.770000000000003
 30
0
 40
1.0499999999999998
 50
180
 51
0
  0
ARC
  8
default
 10
12.949999999999999
 20
20.620000000000005
 30
0
 40
1.0499999999999998
 50
0
 51
180
  0
ARC
  8
default
 10
12.949999999999999
 20
20.620000000000005
 30
0
 40
1.0499999999999998
 50
180
 51
0
  0
ARC
  8
default
 10
12.949999999999999
 20
18.469999999999999
 30
0
 40
1.0499999999999998
 50
0
 51
180
  0
ARC
  8
default
 10
12.949999999999999
 20
18.469999999999999
 30
0
 40
1.0499999999999998
 50
180
 51
0
  0
ARC
  8
default
 10
12.949999999999999
 20
16.32
 30
0
 40
1.0499999999999998
 50
0
 51
180
  0
ARC
  8
default
 10
12.949999999999999
 20
16.32
 30
0
 40
1.0499999999999998
 50
180
 51
0
  0
ARC
  8
default
 10
11.050000000000001
 20
-32
 30
0
 40
1.0499999999999998
 50
0
 51
180
  0
ARC
  8
default
 10
11.050000000000001
 20
-32
 30
0
 40
1.0499999999999998
 50
180
 51
0
  0
ARC
  8
default
 10
11.050000000000001
 20
-34.149999999999999
 30
0
 40
1.0499999999999998
 50
0
 51
180
  0
ARC
  8
default
 10
11.050000000000001
 20
-34.149999999999999
 30
0
 40
1.0499999999999998
 50
180
 51
0
  0
ARC
  8
default
 10
11.050000000000001
 20
-36.299999999999997
 30
0
 40
1.0499999999999998
 50
0
 51
180
  0
ARC
  8
default
 10
11.050000000000001
 20
-36.299999999999997
 30
0
 40
1.0499999999999998
 50
180
 51
0
  0
ARC
  8
default
 10
11.050000000000001
 20
-38.450000000000003
 30
0
 40
1.0499999999999998
 50
0
 51
180
  0
ARC
  8
default
 10
11.050000000000001
 20
-38.450000000000003
 30
0
 40
1.0499999999999998
 50
180
 51
0
  0
ARC
  8
default
 10
11.050000000000001
 20
-40.600000000000001
 30
0
 40
1.0499999999999998
 50
0
 51
180
  0
ARC
  8
default
 10
11.050000000000001
 20
-40.600000000000001
 30
0
 40
1.0499999999999998
 50
180
 51
0
  0
ARC
  8
default
 10
11.050000000000001
 20
-42.75
 30
0
 40
1.0499999999999998
 50
0
 51
180
  0
ARC
  8
default
 10
11.050000000000001
 20
-42.75
 30
0
 40
1.0499999999999998
 50
180
 51
0
  0
ARC
  8
default
 10
12.949999999999999
 20
-33.079999999999998
 30
0
 40
1.0499999999999998
 50
0
 51
180
  0
ARC
  8
default
 10
12.949999999999999
 20
-33.079999999999998
 30
0
 40
1.0499999999999998
 50
180
 51
0
  0
ARC
  8
default
 10
12.949999999999999
 20
-35.229999999999997
 30
0
 40
1.0499999999999998
 50
0
 51
180
  0
ARC
  8
default
 10
12.949999999999999
 20
-35.229999999999997
 30
0
 40
1.0499999999999998
 50
180
 51
0
  0
ARC
  8
default
 10
12.949999999999999
 20
-37.379999999999995
 30
0
 40
1.0499999999999998
 50
0
 51
180
  0
ARC
  8
default
 10
12.949999999999999
 20
-37.379999999999995
 30
0
 40
1.0499999999999998
 50
180
 51
0
  0
ARC
  8
default
 10
12.949999999999999
 20
-39.530000000000001
 30
0
 40
1.0499999999999998
 50
0
 51
180
  0
ARC
  8
default
 10
12.949999999999999
 20
-39.530000000000001
 30
0
 40
1.0499999999999998
 50
180
 51
0
  0
ARC
  8
default
 10
12.949999999999999
 20
-41.68
 30
0
 40
1.0499999999999998
 50
0
 51
180
  0
ARC
  8
default
 10
12.949999999999999
 20
-41.68
 30
0
 40
1.0499999999999998
 50
180
 51
0
  0
ARC
  8
default
 10
11.050000000000001
 20
-26
 30
0
 40
1.0499999999999998
 50
180
 51
0
  0
ARC
  8
default
 10
11.050000000000001
 20
-26
 30
0
 40
1.0499999999999998
 50
0
 51
180
  0
ARC
  8
default
 10
11.050000000000001
 20
-23.850000000000001
 30
0
 40
1.0499999999999998
 50
180
 51
0
  0
ARC
  8
default
 10
11.050000000000001
 20
-23.850000000000001
 30
0
 40
1.0499999999999998
 50
0
 51
180
  0
ARC
  8
default
 10
11.050000000000001
 20
-21.700000000000003
 30
0
 40
1.0499999999999998
 50
180
 51
0
  0
ARC
  8
default
 10
11.050000000000001
 20
-21.700000000000003
 30
0
 40
1.0499999999999998
 50
0
 51
180
  0
ARC
  8
default
 10
11.050000000000001
 20
-19.549999999999997
 30
0
 40
1.0499999999999998
 50
180
 51
0
  0
ARC
  8
default
 10
11.050000000000001
 20
-19.549999999999997
 30
0
 40
1.0499999999999998
 50
0
 51
180
  0
ARC
  8
default
 10
11.050000000000001
 20
-17.399999999999999
 30
0
 40
1.0499999999999998
 50
180
 51
0
  0
ARC
  8
default
 10
11.050000000000001
 20
-17.399999999999999
 30
0
 40
1.0499999999999998
 50
0
 51
180
  0
ARC
  8
default
 10
11.050000000000001
 20
-15.25
 30
0
 40
1.0499999999999998
 50
180
 51
0
  0
ARC
  8
default
 10
11.050000000000001
 20
-15.25
 30
0
 40
1.0499999999999998
 50
0
 51
180
  0
ARC
  8
default
 10
12.949999999999999
 20
-24.920000000000002
 30
0
 40
1.0499999999999998
 50
180
 51
0
  0
ARC
  8
default
 10
12.949999999999999
 20
-24.920000000000002
 30
0
 40
1.0499999999999998
 50
0
 51
180
  0
ARC
  8
default
 10
12.949999999999999
 20
-22.770000000000003
 30
0
 40
1.0499999999999998
 50
180
 51
0
  0
ARC
  8
default
 10
12.949999999999999
 20
-22.770000000000003
 30
0
 40
1.0499999999999998
 50
0
 51
180
  0
ARC
  8
default
 10
12.949999999999999
 20
-20.620000000000005
 30
0
 40
1.0499999999999998
 50
180
 51
0
  0
ARC
  8
default
 10
12.949999999999999
 20
-20.620000000000005
 30
0
 40
1.0499999999999998
 50
0
 51
180
  0
ARC
  8
default
 10
12.949999999999999
 20
-18.469999999999999
 30
0
 40
1.0499999999999998
 50
180
 51
0
  0
ARC
  8
default
 10
12.949999999999999
 20
-18.469999999999999
 30
0
 40
1.0499999999999998
 50
0
 51
180
  0
ARC
  8
default
 10
12.949999999999999
 20
-16.32
 30
0
 40
1.0499999999999998
 50
180
 51
0
  0
ARC
  8
default
 10
12.949999999999999
 20
-16.32
 30
0
 40
1.0499999999999998
 50
0
 51
180
  0
ENDSEC
  0
EOF
