M48
;GenerationSoftware,Autodesk,EAGLE,9.5.2*%
;CreationDate,2021-06-06T17:24:53Z*%
FMAT,2
ICI,OFF
METRIC,TZ,000.000
T7C0.350
T6C0.813
T5C0.864
T4C1.016
T3C1.118
T2C1.194
T1C3.429
%
G90
M71
T1
X53975Y22860
X3810Y69850
X61595Y69850
X3810Y22860
X61595Y22860
X53975Y69850
T2
X16470Y62230
X11470Y62230
X52030Y62230
X47030Y62230
T3
X57150Y46355
X57150Y56515
X8890Y54610
X19050Y54610
T4
X7620Y58420
X5080Y58420
X49530Y43180
X57150Y60960
X57150Y63500
X4445Y38100
X4445Y40640
X49530Y40640
T5
X30480Y36830
X38100Y36830
X38100Y39370
X38100Y41910
X38100Y44450
X30480Y41910
X30480Y44450
X30480Y39370
T6
X41910Y65405
X22860Y63500
X22860Y66040
X39370Y65405
T7
X12700Y39370
X13970Y34290
X10160Y52070
X13970Y52070
X30480Y24130
X27940Y24130
X10160Y43180
X35560Y54610
X35560Y49530
X34290Y44450
X25400Y43815
X57150Y40640
X8890Y27940
X17145Y29210
X7620Y34290
X8890Y24130
X35560Y57150
X20955Y29210
X33655Y29210
X29210Y34290
X25400Y32385
X15240Y43815
X7620Y39370
X6350Y46990
X25400Y49530
X20320Y49530
X43180Y54610
X43180Y49530
X41910Y35560
X34290Y36830
X62230Y38100
X62230Y48260
X54610Y44450
X58420Y44450
X53340Y40640
X29210Y31750
X58420Y38100
X51435Y39370
X50800Y44450
X57150Y50800
X60960Y63500
X40640Y26670
X29210Y29210
X25400Y29210
X18415Y36195
X15240Y39370
M30