M48
;GenerationSoftware,Autodesk,EAGLE,9.5.2*%
;CreationDate,2021-05-13T01:47:03Z*%
FMAT,2
ICI,OFF
METRIC,TZ,000.000
T7C0.350
T6C0.813
T5C1.016
T4C1.194
T3C1.270
T2C1.778
T1C3.048
%
G90
M71
T1
X16510Y19050
X52070Y19050
X71120Y34290
X71120Y3810
T2
X8900Y29200
X3800Y34300
X8900Y34300
X3800Y29200
X66030Y29220
X71130Y29220
X71130Y24120
X66030Y24120
X66030Y8880
X66030Y13980
X71130Y13980
X71130Y8880
X3800Y8900
X8900Y8900
X8900Y3800
X3800Y3800
T3
X6350Y31750
X68580Y26670
X68580Y11430
X6350Y6350
T4
X5060Y14050
X5060Y24050
X5060Y19050
T5
X33020Y31750
T6
X39370Y33020
X36830Y5080
X39370Y5080
X36830Y33020
T7
X54610Y22860
X10160Y24130
X10160Y20320
X10160Y16510
X10160Y12700
X22098Y19558
X29591Y19812
X41910Y19050
X25400Y19050
X46990Y19050
X57150Y19050
X57150Y22860
X66040Y20320
X72390Y20320
X72390Y16510
X66040Y16510
X46990Y6350
X40640Y26670
X40640Y30480
X48260Y30480
X21590Y34290
X32131Y10033
X29210Y3810
X33020Y2540
X19558Y4318
X48260Y2540
X12319Y36322
X34290Y22987
X38862Y13970
X12065Y31750
X25908Y21590
X35560Y24130
X34290Y13970
M30