G04 EAGLE Gerber RS-274X export*
G75*
%MOMM*%
%FSLAX34Y34*%
%LPD*%
%INSoldermask Top*%
%IPPOS*%
%AMOC8*
5,1,8,0,0,1.08239X$1,22.5*%
G01*
%ADD10C,3.251200*%
%ADD11P,1.649562X8X202.500000*%
%ADD12R,1.803200X2.003200*%
%ADD13R,2.003200X1.803200*%
%ADD14C,1.524000*%
%ADD15R,2.006200X1.803200*%
%ADD16R,0.812800X2.413000*%
%ADD17R,0.803200X2.403200*%
%ADD18C,2.403200*%
%ADD19R,1.050000X1.575000*%
%ADD20C,1.727200*%
%ADD21R,1.403200X1.403200*%
%ADD22R,5.603200X6.403200*%
%ADD23R,1.203200X1.803200*%
%ADD24R,1.803200X2.006200*%
%ADD25P,2.005885X8X22.500000*%
%ADD26R,2.387600X2.387600*%
%ADD27C,2.387600*%
%ADD28C,1.993900*%
%ADD29R,2.235200X4.267200*%
%ADD30R,4.267200X2.235200*%
%ADD31C,0.959600*%


D10*
X577850Y31750D03*
X31750Y539750D03*
X577850Y539750D03*
X298450Y31750D03*
D11*
X101600Y304800D03*
X50800Y304800D03*
D12*
X64800Y152400D03*
X36800Y152400D03*
X24100Y381000D03*
X52100Y381000D03*
D13*
X101600Y268000D03*
X101600Y240000D03*
X488950Y166400D03*
X488950Y138400D03*
X457200Y166400D03*
X457200Y138400D03*
X82550Y395000D03*
X82550Y367000D03*
X273050Y179100D03*
X273050Y151100D03*
D14*
X152654Y279400D02*
X139446Y279400D01*
X215646Y279400D02*
X228854Y279400D01*
X361696Y400050D02*
X374904Y400050D01*
X437896Y400050D02*
X451104Y400050D01*
D15*
X171450Y338070D03*
X171450Y309630D03*
D16*
X349250Y297688D03*
X349250Y350012D03*
X361950Y297688D03*
X374650Y297688D03*
X361950Y350012D03*
X374650Y350012D03*
X387350Y297688D03*
X387350Y350012D03*
D17*
X361950Y145450D03*
X361950Y197450D03*
X349250Y145450D03*
X374650Y145450D03*
X387350Y145450D03*
X349250Y197450D03*
X374650Y197450D03*
X387350Y197450D03*
D18*
X444500Y224150D02*
X444500Y239150D01*
D19*
X429500Y202375D03*
X459500Y202375D03*
X444500Y202375D03*
D20*
X280670Y241300D02*
X265430Y241300D01*
X265430Y215900D02*
X280670Y215900D01*
X487680Y228600D02*
X502920Y228600D01*
X502920Y203200D02*
X487680Y203200D01*
D21*
X114300Y110150D03*
X114300Y131150D03*
D22*
X177800Y152800D03*
D23*
X200600Y225800D03*
X155000Y225800D03*
D15*
X114300Y198370D03*
X114300Y169930D03*
X304800Y214380D03*
X304800Y242820D03*
X304800Y150880D03*
X304800Y179320D03*
D24*
X65020Y114300D03*
X36580Y114300D03*
X198370Y254000D03*
X169930Y254000D03*
X255520Y304800D03*
X227080Y304800D03*
D15*
X114300Y395220D03*
X114300Y366780D03*
D24*
X172970Y368300D03*
X144530Y368300D03*
X144530Y400050D03*
X172970Y400050D03*
D25*
X273050Y457200D03*
X577850Y457200D03*
D24*
X65020Y241300D03*
X36580Y241300D03*
D15*
X63500Y182630D03*
X63500Y211070D03*
D24*
X436630Y317500D03*
X465070Y317500D03*
X436630Y361950D03*
X465070Y361950D03*
X436630Y279400D03*
X465070Y279400D03*
D26*
X45720Y436118D03*
D27*
X62738Y486918D03*
X79756Y436118D03*
X96774Y486918D03*
X113792Y436118D03*
X130810Y486918D03*
X147828Y436118D03*
X164846Y486918D03*
X181864Y436118D03*
X198882Y486918D03*
X215900Y436118D03*
D28*
X190900Y72454D02*
X190900Y54547D01*
X240900Y54547D02*
X240900Y72454D01*
X38500Y59754D02*
X38500Y41847D01*
X88500Y41847D02*
X88500Y59754D01*
X524447Y342500D02*
X542354Y342500D01*
X542354Y292500D02*
X524447Y292500D01*
D12*
X233650Y412750D03*
X261650Y412750D03*
D29*
X234950Y234950D03*
D30*
X368300Y241300D03*
D29*
X520700Y152400D03*
X425450Y152400D03*
X25400Y279400D03*
X25400Y203200D03*
D30*
X127000Y342900D03*
X393700Y38100D03*
D29*
X571500Y222250D03*
D30*
X476250Y539750D03*
D13*
X330200Y214600D03*
X330200Y242600D03*
D31*
X361950Y317500D03*
X368300Y273050D03*
X393700Y273050D03*
X406400Y323850D03*
X203200Y304800D03*
X279400Y330200D03*
X279400Y355600D03*
X215900Y349250D03*
X215900Y387350D03*
X368300Y431800D03*
X450850Y431800D03*
X368300Y482600D03*
X457200Y488950D03*
X400050Y203200D03*
X400050Y184150D03*
X400050Y120650D03*
X317500Y120650D03*
X273050Y120650D03*
X88900Y88900D03*
X88900Y139700D03*
X88900Y209550D03*
X88900Y342900D03*
X19050Y336550D03*
X114300Y463550D03*
X146050Y463550D03*
X431800Y260350D03*
X501650Y184150D03*
X488950Y254000D03*
X336550Y184150D03*
X177800Y463550D03*
X330200Y266700D03*
X298450Y266700D03*
X330200Y292100D03*
X228600Y95250D03*
X228600Y114300D03*
X228600Y133350D03*
X228600Y152400D03*
X381000Y317500D03*
X406400Y152400D03*
X361950Y177800D03*
X349250Y127000D03*
M02*
