G04 EAGLE Gerber RS-274X export*
G75*
%MOMM*%
%FSLAX34Y34*%
%LPD*%
%INSoldermask Bottom*%
%IPPOS*%
%AMOC8*
5,1,8,0,0,1.08239X$1,22.5*%
G01*
%ADD10C,3.251200*%
%ADD11P,1.649562X8X202.500000*%
%ADD12R,1.803200X2.003200*%
%ADD13C,1.524000*%
%ADD14C,1.727200*%
%ADD15P,2.005885X8X22.500000*%
%ADD16R,2.387600X2.387600*%
%ADD17C,2.387600*%
%ADD18C,1.993900*%
%ADD19R,4.267200X2.235200*%
%ADD20C,0.959600*%


D10*
X577850Y31750D03*
X31750Y539750D03*
X577850Y539750D03*
X298450Y31750D03*
D11*
X101600Y304800D03*
X50800Y304800D03*
D12*
X373350Y374650D03*
X401350Y374650D03*
D13*
X152654Y279400D02*
X139446Y279400D01*
X215646Y279400D02*
X228854Y279400D01*
X361696Y400050D02*
X374904Y400050D01*
X437896Y400050D02*
X451104Y400050D01*
D14*
X280670Y241300D02*
X265430Y241300D01*
X265430Y215900D02*
X280670Y215900D01*
X487680Y228600D02*
X502920Y228600D01*
X502920Y203200D02*
X487680Y203200D01*
D15*
X273050Y457200D03*
X577850Y457200D03*
D16*
X45720Y436118D03*
D17*
X62738Y486918D03*
X79756Y436118D03*
X96774Y486918D03*
X113792Y436118D03*
X130810Y486918D03*
X147828Y436118D03*
X164846Y486918D03*
X181864Y436118D03*
X198882Y486918D03*
X215900Y436118D03*
D18*
X190900Y72454D02*
X190900Y54547D01*
X240900Y54547D02*
X240900Y72454D01*
X38500Y59754D02*
X38500Y41847D01*
X88500Y41847D02*
X88500Y59754D01*
X524447Y342500D02*
X542354Y342500D01*
X542354Y292500D02*
X524447Y292500D01*
D19*
X184150Y387350D03*
D20*
X361950Y317500D03*
X368300Y273050D03*
X393700Y273050D03*
X406400Y323850D03*
X203200Y304800D03*
X279400Y330200D03*
X279400Y355600D03*
X215900Y349250D03*
X215900Y387350D03*
X368300Y431800D03*
X450850Y431800D03*
X368300Y482600D03*
X457200Y488950D03*
X400050Y203200D03*
X400050Y184150D03*
X400050Y120650D03*
X317500Y120650D03*
X273050Y120650D03*
X88900Y88900D03*
X88900Y139700D03*
X88900Y209550D03*
X88900Y342900D03*
X19050Y336550D03*
X114300Y463550D03*
X146050Y463550D03*
X431800Y260350D03*
X501650Y184150D03*
X488950Y254000D03*
X336550Y184150D03*
X177800Y463550D03*
X330200Y266700D03*
X298450Y266700D03*
X330200Y292100D03*
X228600Y95250D03*
X228600Y114300D03*
X228600Y133350D03*
X228600Y152400D03*
X381000Y317500D03*
X406400Y152400D03*
X361950Y177800D03*
X349250Y127000D03*
M02*
