G04 EAGLE Gerber RS-274X export*
G75*
%MOMM*%
%FSLAX34Y34*%
%LPD*%
%INBottom Copper*%
%IPPOS*%
%AMOC8*
5,1,8,0,0,1.08239X$1,22.5*%
G01*
%ADD10C,1.790700*%
%ADD11P,1.429621X8X112.500000*%
%ADD12C,1.320800*%
%ADD13P,1.429621X8X22.500000*%
%ADD14R,1.800000X1.600000*%
%ADD15R,1.600000X1.800000*%
%ADD16C,1.676400*%
%ADD17C,1.524000*%
%ADD18R,1.371600X1.371600*%
%ADD19C,1.371600*%
%ADD20R,4.100000X1.250000*%
%ADD21C,0.756400*%
%ADD22C,1.016000*%
%ADD23C,0.508000*%

G36*
X525837Y194327D02*
X525837Y194327D01*
X526101Y194338D01*
X526155Y194347D01*
X526209Y194351D01*
X526468Y194400D01*
X526729Y194444D01*
X526781Y194460D01*
X526835Y194470D01*
X527086Y194552D01*
X527339Y194628D01*
X527389Y194650D01*
X527441Y194667D01*
X527681Y194779D01*
X527921Y194886D01*
X527968Y194914D01*
X528018Y194938D01*
X528241Y195079D01*
X528467Y195215D01*
X528510Y195249D01*
X528556Y195279D01*
X528760Y195447D01*
X528967Y195611D01*
X529005Y195650D01*
X529047Y195684D01*
X529228Y195877D01*
X529413Y196065D01*
X529446Y196109D01*
X529484Y196148D01*
X529639Y196362D01*
X529799Y196572D01*
X529827Y196619D01*
X529859Y196663D01*
X529986Y196894D01*
X530119Y197123D01*
X530140Y197174D01*
X530166Y197221D01*
X530264Y197467D01*
X530367Y197710D01*
X530381Y197763D01*
X530402Y197814D01*
X530468Y198069D01*
X530539Y198323D01*
X530547Y198378D01*
X530561Y198430D01*
X530595Y198692D01*
X530634Y198953D01*
X530635Y199008D01*
X530642Y199062D01*
X530642Y199327D01*
X530649Y199590D01*
X530643Y199645D01*
X530643Y199700D01*
X530610Y199962D01*
X530584Y200224D01*
X530571Y200277D01*
X530564Y200332D01*
X530499Y200588D01*
X530440Y200845D01*
X530421Y200896D01*
X530407Y200949D01*
X530311Y201195D01*
X530219Y201443D01*
X530194Y201491D01*
X530174Y201542D01*
X530047Y201774D01*
X529926Y202008D01*
X529895Y202053D01*
X529868Y202101D01*
X529714Y202315D01*
X529564Y202532D01*
X529527Y202573D01*
X529495Y202618D01*
X529315Y202811D01*
X529139Y203007D01*
X529098Y203043D01*
X529060Y203083D01*
X528857Y203252D01*
X528658Y203425D01*
X528613Y203455D01*
X528571Y203491D01*
X528320Y203651D01*
X528113Y203789D01*
X522984Y206750D01*
X517900Y211834D01*
X514305Y218060D01*
X512444Y225005D01*
X512444Y232195D01*
X514305Y239140D01*
X517900Y245366D01*
X522984Y250450D01*
X529210Y254045D01*
X536155Y255906D01*
X543345Y255906D01*
X550290Y254045D01*
X556516Y250450D01*
X561600Y245366D01*
X565195Y239140D01*
X567056Y232195D01*
X567056Y225005D01*
X565195Y218060D01*
X561600Y211834D01*
X556516Y206750D01*
X551387Y203789D01*
X551167Y203643D01*
X550944Y203501D01*
X550902Y203466D01*
X550856Y203436D01*
X550656Y203264D01*
X550453Y203096D01*
X550415Y203056D01*
X550374Y203020D01*
X550197Y202823D01*
X550016Y202632D01*
X549984Y202587D01*
X549947Y202547D01*
X549797Y202330D01*
X549641Y202116D01*
X549615Y202069D01*
X549584Y202024D01*
X549461Y201790D01*
X549334Y201559D01*
X549313Y201508D01*
X549288Y201459D01*
X549196Y201212D01*
X549098Y200966D01*
X549085Y200913D01*
X549066Y200862D01*
X549005Y200605D01*
X548939Y200350D01*
X548932Y200295D01*
X548919Y200242D01*
X548891Y199979D01*
X548858Y199718D01*
X548858Y199663D01*
X548852Y199609D01*
X548857Y199345D01*
X548857Y199080D01*
X548864Y199026D01*
X548865Y198971D01*
X548903Y198711D01*
X548936Y198448D01*
X548949Y198395D01*
X548957Y198341D01*
X549027Y198087D01*
X549093Y197831D01*
X549113Y197780D01*
X549127Y197727D01*
X549229Y197484D01*
X549326Y197238D01*
X549352Y197190D01*
X549373Y197139D01*
X549504Y196911D01*
X549632Y196679D01*
X549664Y196634D01*
X549691Y196587D01*
X549850Y196377D01*
X550005Y196162D01*
X550042Y196122D01*
X550075Y196079D01*
X550259Y195890D01*
X550440Y195697D01*
X550482Y195662D01*
X550520Y195623D01*
X550727Y195458D01*
X550929Y195289D01*
X550975Y195260D01*
X551018Y195226D01*
X551244Y195088D01*
X551466Y194946D01*
X551516Y194923D01*
X551563Y194894D01*
X551803Y194787D01*
X552042Y194673D01*
X552094Y194656D01*
X552144Y194634D01*
X552396Y194557D01*
X552647Y194474D01*
X552701Y194464D01*
X552753Y194448D01*
X553013Y194403D01*
X553273Y194353D01*
X553327Y194350D01*
X553381Y194340D01*
X553678Y194327D01*
X553927Y194311D01*
X601773Y194311D01*
X602037Y194327D01*
X602301Y194338D01*
X602355Y194347D01*
X602409Y194351D01*
X602668Y194400D01*
X602929Y194444D01*
X602981Y194460D01*
X603035Y194470D01*
X603286Y194552D01*
X603539Y194628D01*
X603589Y194650D01*
X603641Y194667D01*
X603881Y194779D01*
X604121Y194886D01*
X604168Y194914D01*
X604218Y194938D01*
X604441Y195079D01*
X604667Y195215D01*
X604710Y195249D01*
X604756Y195279D01*
X604960Y195447D01*
X605167Y195611D01*
X605205Y195650D01*
X605247Y195684D01*
X605428Y195877D01*
X605613Y196065D01*
X605646Y196109D01*
X605684Y196148D01*
X605839Y196362D01*
X605999Y196572D01*
X606027Y196619D01*
X606059Y196663D01*
X606186Y196894D01*
X606319Y197123D01*
X606340Y197174D01*
X606366Y197221D01*
X606464Y197467D01*
X606567Y197710D01*
X606581Y197763D01*
X606602Y197814D01*
X606668Y198069D01*
X606739Y198323D01*
X606747Y198378D01*
X606761Y198430D01*
X606795Y198692D01*
X606834Y198953D01*
X606835Y199008D01*
X606842Y199062D01*
X606842Y199327D01*
X606849Y199590D01*
X606843Y199645D01*
X606843Y199700D01*
X606810Y199962D01*
X606784Y200224D01*
X606771Y200277D01*
X606764Y200332D01*
X606699Y200588D01*
X606640Y200845D01*
X606621Y200896D01*
X606607Y200949D01*
X606511Y201195D01*
X606419Y201443D01*
X606394Y201491D01*
X606374Y201542D01*
X606247Y201774D01*
X606126Y202008D01*
X606095Y202053D01*
X606068Y202101D01*
X605914Y202315D01*
X605764Y202532D01*
X605727Y202573D01*
X605695Y202618D01*
X605515Y202811D01*
X605339Y203007D01*
X605298Y203043D01*
X605260Y203083D01*
X605057Y203252D01*
X604858Y203425D01*
X604813Y203455D01*
X604771Y203491D01*
X604520Y203651D01*
X604313Y203789D01*
X599184Y206750D01*
X594100Y211834D01*
X590505Y218060D01*
X588644Y225005D01*
X588644Y232195D01*
X590505Y239140D01*
X594100Y245366D01*
X599184Y250450D01*
X605410Y254045D01*
X612355Y255906D01*
X619545Y255906D01*
X626490Y254045D01*
X632716Y250450D01*
X637800Y245366D01*
X641395Y239140D01*
X643256Y232195D01*
X643256Y225005D01*
X641395Y218060D01*
X637800Y211834D01*
X632716Y206750D01*
X627587Y203789D01*
X627367Y203643D01*
X627144Y203501D01*
X627102Y203466D01*
X627056Y203436D01*
X626856Y203264D01*
X626653Y203096D01*
X626615Y203056D01*
X626574Y203020D01*
X626397Y202823D01*
X626216Y202632D01*
X626184Y202587D01*
X626147Y202547D01*
X625997Y202330D01*
X625841Y202116D01*
X625815Y202069D01*
X625784Y202024D01*
X625661Y201790D01*
X625534Y201559D01*
X625513Y201508D01*
X625488Y201459D01*
X625396Y201212D01*
X625298Y200966D01*
X625285Y200913D01*
X625266Y200862D01*
X625205Y200605D01*
X625139Y200350D01*
X625132Y200295D01*
X625119Y200242D01*
X625091Y199979D01*
X625058Y199718D01*
X625058Y199663D01*
X625052Y199609D01*
X625057Y199345D01*
X625057Y199080D01*
X625064Y199026D01*
X625065Y198971D01*
X625103Y198711D01*
X625136Y198448D01*
X625149Y198395D01*
X625157Y198341D01*
X625227Y198087D01*
X625293Y197831D01*
X625313Y197780D01*
X625327Y197727D01*
X625429Y197484D01*
X625526Y197238D01*
X625552Y197190D01*
X625573Y197139D01*
X625704Y196911D01*
X625832Y196679D01*
X625864Y196634D01*
X625891Y196587D01*
X626050Y196377D01*
X626205Y196162D01*
X626242Y196122D01*
X626275Y196079D01*
X626459Y195890D01*
X626640Y195697D01*
X626682Y195662D01*
X626720Y195623D01*
X626927Y195458D01*
X627129Y195289D01*
X627175Y195260D01*
X627218Y195226D01*
X627444Y195088D01*
X627666Y194946D01*
X627716Y194923D01*
X627763Y194894D01*
X628003Y194787D01*
X628242Y194673D01*
X628294Y194656D01*
X628344Y194634D01*
X628596Y194557D01*
X628847Y194474D01*
X628901Y194464D01*
X628953Y194448D01*
X629213Y194403D01*
X629473Y194353D01*
X629527Y194350D01*
X629581Y194340D01*
X629878Y194327D01*
X630127Y194311D01*
X651135Y194311D01*
X651318Y194322D01*
X651502Y194324D01*
X651636Y194342D01*
X651771Y194351D01*
X651951Y194385D01*
X652134Y194410D01*
X652264Y194445D01*
X652397Y194470D01*
X652571Y194527D01*
X652749Y194574D01*
X652874Y194625D01*
X653003Y194667D01*
X653169Y194745D01*
X653339Y194814D01*
X653457Y194880D01*
X653579Y194938D01*
X653735Y195036D01*
X653895Y195126D01*
X654003Y195206D01*
X654117Y195279D01*
X654259Y195396D01*
X654407Y195505D01*
X654505Y195598D01*
X654609Y195684D01*
X654735Y195818D01*
X654868Y195945D01*
X654953Y196050D01*
X655045Y196148D01*
X655154Y196297D01*
X655269Y196440D01*
X655341Y196554D01*
X655420Y196663D01*
X655509Y196824D01*
X655606Y196981D01*
X655663Y197103D01*
X655728Y197221D01*
X655796Y197392D01*
X655873Y197559D01*
X655913Y197688D01*
X655963Y197814D01*
X656009Y197991D01*
X656065Y198167D01*
X656089Y198300D01*
X656123Y198430D01*
X656146Y198613D01*
X656179Y198794D01*
X656186Y198925D01*
X656204Y199062D01*
X656204Y199262D01*
X656214Y199448D01*
X653998Y393300D01*
X653993Y393369D01*
X653994Y393438D01*
X653969Y393687D01*
X653951Y393935D01*
X653937Y394003D01*
X653930Y394072D01*
X653874Y394315D01*
X653824Y394560D01*
X653802Y394625D01*
X653787Y394693D01*
X653701Y394927D01*
X653621Y395164D01*
X653590Y395226D01*
X653567Y395291D01*
X653452Y395512D01*
X653343Y395737D01*
X653305Y395795D01*
X653274Y395856D01*
X653132Y396062D01*
X652996Y396271D01*
X652951Y396324D01*
X652912Y396381D01*
X652746Y396567D01*
X652585Y396758D01*
X652534Y396805D01*
X652488Y396856D01*
X652299Y397020D01*
X652116Y397189D01*
X652059Y397229D01*
X652007Y397275D01*
X651800Y397414D01*
X651596Y397558D01*
X651535Y397591D01*
X651478Y397629D01*
X651255Y397741D01*
X651035Y397860D01*
X650970Y397884D01*
X650909Y397915D01*
X650674Y397998D01*
X650440Y398088D01*
X650373Y398105D01*
X650308Y398128D01*
X650065Y398181D01*
X649821Y398240D01*
X649753Y398248D01*
X649685Y398263D01*
X649437Y398285D01*
X649189Y398314D01*
X649119Y398313D01*
X649051Y398320D01*
X648801Y398310D01*
X648551Y398308D01*
X648483Y398299D01*
X648414Y398296D01*
X648168Y398256D01*
X647920Y398222D01*
X647853Y398204D01*
X647785Y398193D01*
X647546Y398122D01*
X647305Y398058D01*
X647240Y398032D01*
X647174Y398012D01*
X646946Y397912D01*
X646714Y397818D01*
X646654Y397784D01*
X646591Y397756D01*
X646376Y397628D01*
X646159Y397506D01*
X646103Y397465D01*
X646044Y397429D01*
X645847Y397275D01*
X645647Y397127D01*
X645597Y397079D01*
X645542Y397036D01*
X645366Y396858D01*
X645186Y396687D01*
X645143Y396633D01*
X645094Y396584D01*
X644951Y396398D01*
X644784Y396192D01*
X644782Y396189D01*
X644420Y395827D01*
X644003Y395548D01*
X643541Y395357D01*
X643050Y395259D01*
X627379Y395259D01*
X627379Y404050D01*
X627379Y412841D01*
X643050Y412841D01*
X643541Y412743D01*
X644003Y412552D01*
X644420Y412274D01*
X645076Y411617D01*
X645276Y411441D01*
X645471Y411261D01*
X645514Y411231D01*
X645554Y411196D01*
X645775Y411046D01*
X645990Y410892D01*
X646037Y410867D01*
X646081Y410837D01*
X646318Y410716D01*
X646552Y410591D01*
X646601Y410572D01*
X646648Y410548D01*
X646898Y410458D01*
X647147Y410362D01*
X647198Y410350D01*
X647248Y410332D01*
X647507Y410274D01*
X647765Y410210D01*
X647818Y410204D01*
X647870Y410192D01*
X648133Y410167D01*
X648398Y410136D01*
X648451Y410137D01*
X648504Y410132D01*
X648769Y410140D01*
X649035Y410143D01*
X649088Y410150D01*
X649141Y410151D01*
X649403Y410193D01*
X649667Y410228D01*
X649718Y410242D01*
X649770Y410250D01*
X650025Y410324D01*
X650282Y410393D01*
X650331Y410413D01*
X650382Y410427D01*
X650625Y410532D01*
X650872Y410633D01*
X650919Y410659D01*
X650967Y410680D01*
X651196Y410815D01*
X651428Y410945D01*
X651470Y410976D01*
X651516Y411003D01*
X651727Y411166D01*
X651940Y411324D01*
X651978Y411360D01*
X652020Y411393D01*
X652209Y411581D01*
X652401Y411764D01*
X652434Y411805D01*
X652471Y411842D01*
X652635Y412052D01*
X652802Y412258D01*
X652830Y412303D01*
X652863Y412345D01*
X652998Y412573D01*
X653139Y412799D01*
X653161Y412847D01*
X653188Y412893D01*
X653294Y413136D01*
X653406Y413378D01*
X653422Y413428D01*
X653443Y413477D01*
X653518Y413732D01*
X653598Y413985D01*
X653607Y414038D01*
X653622Y414088D01*
X653664Y414351D01*
X653712Y414612D01*
X653715Y414664D01*
X653723Y414717D01*
X653733Y415019D01*
X653747Y415267D01*
X653372Y448075D01*
X653356Y448282D01*
X653350Y448490D01*
X653333Y448599D01*
X653324Y448710D01*
X653283Y448914D01*
X653251Y449119D01*
X653220Y449226D01*
X653198Y449334D01*
X653132Y449531D01*
X653074Y449731D01*
X653030Y449833D01*
X652994Y449938D01*
X652904Y450125D01*
X652822Y450316D01*
X652765Y450412D01*
X652717Y450512D01*
X652604Y450686D01*
X652498Y450865D01*
X652430Y450953D01*
X652370Y451046D01*
X652235Y451205D01*
X652108Y451369D01*
X652030Y451448D01*
X651958Y451532D01*
X651806Y451673D01*
X651659Y451820D01*
X651571Y451889D01*
X651489Y451964D01*
X651320Y452084D01*
X651156Y452212D01*
X651060Y452269D01*
X650970Y452333D01*
X650787Y452431D01*
X650608Y452537D01*
X650507Y452581D01*
X650409Y452634D01*
X650214Y452709D01*
X650024Y452792D01*
X649918Y452823D01*
X649814Y452863D01*
X649612Y452912D01*
X649413Y452971D01*
X649303Y452988D01*
X649195Y453015D01*
X648989Y453039D01*
X648784Y453072D01*
X648673Y453076D01*
X648562Y453089D01*
X648354Y453087D01*
X648147Y453094D01*
X648036Y453083D01*
X647925Y453082D01*
X647719Y453054D01*
X647512Y453035D01*
X647404Y453012D01*
X647294Y452997D01*
X647093Y452943D01*
X646890Y452898D01*
X646786Y452861D01*
X646678Y452832D01*
X646485Y452754D01*
X646290Y452684D01*
X646191Y452634D01*
X646088Y452592D01*
X645907Y452490D01*
X645721Y452397D01*
X645630Y452335D01*
X645533Y452280D01*
X645366Y452157D01*
X645193Y452040D01*
X645112Y451969D01*
X645021Y451901D01*
X644857Y451745D01*
X644701Y451608D01*
X644420Y451327D01*
X644003Y451048D01*
X643541Y450857D01*
X643050Y450759D01*
X627379Y450759D01*
X627379Y459550D01*
X627379Y468341D01*
X643050Y468341D01*
X643541Y468243D01*
X644003Y468052D01*
X644420Y467773D01*
X644434Y467759D01*
X644634Y467583D01*
X644829Y467403D01*
X644873Y467372D01*
X644912Y467337D01*
X645131Y467188D01*
X645349Y467034D01*
X645396Y467009D01*
X645439Y466979D01*
X645675Y466859D01*
X645910Y466733D01*
X645960Y466714D01*
X646007Y466690D01*
X646257Y466600D01*
X646505Y466504D01*
X646556Y466491D01*
X646606Y466474D01*
X646865Y466415D01*
X647124Y466352D01*
X647176Y466346D01*
X647228Y466334D01*
X647492Y466309D01*
X647756Y466278D01*
X647810Y466279D01*
X647862Y466274D01*
X648127Y466282D01*
X648393Y466284D01*
X648446Y466291D01*
X648499Y466293D01*
X648761Y466334D01*
X649025Y466370D01*
X649076Y466384D01*
X649128Y466392D01*
X649383Y466466D01*
X649640Y466534D01*
X649689Y466554D01*
X649740Y466569D01*
X649985Y466674D01*
X650231Y466774D01*
X650277Y466800D01*
X650325Y466821D01*
X650555Y466956D01*
X650786Y467086D01*
X650829Y467118D01*
X650874Y467145D01*
X651085Y467308D01*
X651298Y467465D01*
X651336Y467502D01*
X651378Y467535D01*
X651567Y467722D01*
X651759Y467906D01*
X651792Y467947D01*
X651830Y467984D01*
X651993Y468194D01*
X652161Y468400D01*
X652189Y468445D01*
X652221Y468487D01*
X652357Y468715D01*
X652497Y468941D01*
X652520Y468989D01*
X652547Y469035D01*
X652653Y469278D01*
X652764Y469520D01*
X652780Y469570D01*
X652801Y469619D01*
X652876Y469874D01*
X652956Y470127D01*
X652965Y470179D01*
X652980Y470230D01*
X653023Y470493D01*
X653070Y470754D01*
X653073Y470806D01*
X653081Y470859D01*
X653092Y471160D01*
X653105Y471408D01*
X650662Y685114D01*
X650645Y685348D01*
X650635Y685583D01*
X650621Y685666D01*
X650615Y685750D01*
X650568Y685980D01*
X650529Y686212D01*
X650505Y686292D01*
X650488Y686374D01*
X650413Y686597D01*
X650346Y686822D01*
X650312Y686898D01*
X650285Y686978D01*
X650182Y687190D01*
X650087Y687404D01*
X650044Y687476D01*
X650007Y687551D01*
X649879Y687748D01*
X649758Y687950D01*
X649706Y688015D01*
X649660Y688085D01*
X649509Y688265D01*
X649363Y688449D01*
X649303Y688508D01*
X649249Y688572D01*
X649076Y688731D01*
X648908Y688896D01*
X648841Y688947D01*
X648780Y689003D01*
X648588Y689140D01*
X648401Y689282D01*
X648329Y689324D01*
X648260Y689372D01*
X648053Y689484D01*
X647850Y689601D01*
X647773Y689634D01*
X647699Y689674D01*
X647479Y689758D01*
X647263Y689849D01*
X647183Y689872D01*
X647104Y689902D01*
X646876Y689958D01*
X646650Y690022D01*
X646567Y690035D01*
X646486Y690055D01*
X646252Y690082D01*
X646020Y690117D01*
X645936Y690118D01*
X645853Y690128D01*
X645618Y690126D01*
X645383Y690131D01*
X645299Y690123D01*
X645216Y690122D01*
X644983Y690090D01*
X644749Y690066D01*
X644667Y690047D01*
X644584Y690036D01*
X644357Y689976D01*
X644128Y689923D01*
X644050Y689894D01*
X643969Y689872D01*
X643751Y689783D01*
X643530Y689702D01*
X643456Y689664D01*
X643379Y689632D01*
X643173Y689517D01*
X642965Y689409D01*
X642896Y689361D01*
X642823Y689320D01*
X642634Y689180D01*
X642441Y689047D01*
X642378Y688991D01*
X642311Y688941D01*
X642141Y688779D01*
X641966Y688622D01*
X641911Y688558D01*
X641850Y688501D01*
X641702Y688319D01*
X641548Y688141D01*
X641502Y688072D01*
X641448Y688006D01*
X641312Y687788D01*
X641184Y687596D01*
X637800Y681734D01*
X632716Y676650D01*
X626490Y673055D01*
X619545Y671194D01*
X612355Y671194D01*
X605410Y673055D01*
X599184Y676650D01*
X594100Y681734D01*
X590505Y687960D01*
X588644Y694905D01*
X588644Y702095D01*
X590505Y709040D01*
X594100Y715266D01*
X599652Y720818D01*
X599809Y720996D01*
X599971Y721168D01*
X600019Y721235D01*
X600074Y721296D01*
X600207Y721492D01*
X600346Y721684D01*
X600386Y721755D01*
X600432Y721823D01*
X600540Y722034D01*
X600654Y722241D01*
X600684Y722318D01*
X600721Y722391D01*
X600802Y722613D01*
X600889Y722834D01*
X600910Y722913D01*
X600937Y722990D01*
X600989Y723221D01*
X601049Y723450D01*
X601059Y723532D01*
X601077Y723612D01*
X601099Y723847D01*
X601129Y724082D01*
X601130Y724165D01*
X601137Y724246D01*
X601130Y724482D01*
X601131Y724720D01*
X601120Y724801D01*
X601118Y724883D01*
X601081Y725117D01*
X601052Y725352D01*
X601032Y725431D01*
X601019Y725512D01*
X600953Y725740D01*
X600895Y725969D01*
X600865Y726045D01*
X600842Y726124D01*
X600748Y726342D01*
X600662Y726562D01*
X600622Y726634D01*
X600590Y726709D01*
X600470Y726913D01*
X600356Y727121D01*
X600308Y727188D01*
X600266Y727258D01*
X600121Y727446D01*
X599983Y727638D01*
X599927Y727698D01*
X599876Y727762D01*
X599709Y727930D01*
X599548Y728103D01*
X599485Y728156D01*
X599427Y728214D01*
X599240Y728359D01*
X599058Y728511D01*
X598989Y728555D01*
X598924Y728605D01*
X598721Y728726D01*
X598521Y728854D01*
X598447Y728889D01*
X598376Y728931D01*
X598160Y729025D01*
X597945Y729127D01*
X597867Y729152D01*
X597792Y729185D01*
X597565Y729252D01*
X597340Y729326D01*
X597260Y729341D01*
X597181Y729364D01*
X596947Y729402D01*
X596715Y729447D01*
X596634Y729452D01*
X596552Y729465D01*
X596292Y729474D01*
X596061Y729489D01*
X559639Y729489D01*
X559403Y729474D01*
X559166Y729467D01*
X559085Y729454D01*
X559003Y729449D01*
X558771Y729405D01*
X558537Y729368D01*
X558458Y729345D01*
X558378Y729330D01*
X558152Y729257D01*
X557925Y729191D01*
X557850Y729159D01*
X557771Y729133D01*
X557557Y729033D01*
X557340Y728939D01*
X557269Y728897D01*
X557195Y728862D01*
X556995Y728736D01*
X556791Y728615D01*
X556726Y728565D01*
X556657Y728521D01*
X556474Y728370D01*
X556287Y728226D01*
X556229Y728168D01*
X556165Y728116D01*
X556003Y727943D01*
X555835Y727776D01*
X555785Y727711D01*
X555729Y727652D01*
X555590Y727460D01*
X555444Y727273D01*
X555402Y727203D01*
X555354Y727137D01*
X555240Y726929D01*
X555119Y726726D01*
X555086Y726650D01*
X555046Y726579D01*
X554959Y726359D01*
X554864Y726141D01*
X554841Y726063D01*
X554811Y725986D01*
X554752Y725757D01*
X554685Y725530D01*
X554672Y725449D01*
X554651Y725370D01*
X554621Y725135D01*
X554584Y724901D01*
X554581Y724819D01*
X554571Y724738D01*
X554570Y724501D01*
X554562Y724264D01*
X554570Y724183D01*
X554569Y724100D01*
X554599Y723865D01*
X554620Y723630D01*
X554638Y723550D01*
X554648Y723468D01*
X554707Y723239D01*
X554757Y723008D01*
X554785Y722930D01*
X554805Y722851D01*
X554892Y722630D01*
X554971Y722407D01*
X555008Y722334D01*
X555038Y722258D01*
X555152Y722050D01*
X555259Y721839D01*
X555305Y721771D01*
X555344Y721699D01*
X555483Y721507D01*
X555615Y721311D01*
X555668Y721250D01*
X555717Y721182D01*
X555895Y720992D01*
X556048Y720818D01*
X561600Y715266D01*
X565195Y709040D01*
X567056Y702095D01*
X567056Y694905D01*
X565195Y687960D01*
X561600Y681734D01*
X556516Y676650D01*
X550290Y673055D01*
X543345Y671194D01*
X536155Y671194D01*
X529210Y673055D01*
X522984Y676650D01*
X517900Y681734D01*
X514305Y687960D01*
X512444Y694905D01*
X512444Y702095D01*
X514305Y709040D01*
X517900Y715266D01*
X523452Y720818D01*
X523609Y720996D01*
X523771Y721168D01*
X523819Y721235D01*
X523874Y721296D01*
X524007Y721492D01*
X524146Y721684D01*
X524186Y721755D01*
X524232Y721823D01*
X524340Y722034D01*
X524454Y722241D01*
X524484Y722318D01*
X524521Y722391D01*
X524602Y722613D01*
X524689Y722834D01*
X524710Y722913D01*
X524737Y722990D01*
X524789Y723221D01*
X524849Y723450D01*
X524859Y723532D01*
X524877Y723612D01*
X524899Y723847D01*
X524929Y724082D01*
X524930Y724165D01*
X524937Y724246D01*
X524930Y724482D01*
X524931Y724720D01*
X524920Y724801D01*
X524918Y724883D01*
X524881Y725117D01*
X524852Y725352D01*
X524832Y725431D01*
X524819Y725512D01*
X524753Y725740D01*
X524695Y725969D01*
X524665Y726045D01*
X524642Y726124D01*
X524548Y726342D01*
X524462Y726562D01*
X524422Y726634D01*
X524390Y726709D01*
X524270Y726913D01*
X524156Y727121D01*
X524108Y727188D01*
X524066Y727258D01*
X523921Y727446D01*
X523783Y727638D01*
X523727Y727698D01*
X523676Y727762D01*
X523509Y727930D01*
X523348Y728103D01*
X523285Y728156D01*
X523227Y728214D01*
X523040Y728359D01*
X522858Y728511D01*
X522789Y728555D01*
X522724Y728605D01*
X522521Y728726D01*
X522321Y728854D01*
X522247Y728889D01*
X522176Y728931D01*
X521960Y729025D01*
X521745Y729127D01*
X521667Y729152D01*
X521592Y729185D01*
X521365Y729252D01*
X521140Y729326D01*
X521060Y729341D01*
X520981Y729364D01*
X520747Y729402D01*
X520515Y729447D01*
X520434Y729452D01*
X520352Y729465D01*
X520092Y729474D01*
X519861Y729489D01*
X57989Y729489D01*
X57753Y729474D01*
X57516Y729467D01*
X57435Y729454D01*
X57353Y729449D01*
X57121Y729405D01*
X56887Y729368D01*
X56808Y729345D01*
X56728Y729330D01*
X56502Y729257D01*
X56275Y729191D01*
X56200Y729159D01*
X56121Y729133D01*
X55907Y729033D01*
X55690Y728939D01*
X55619Y728897D01*
X55545Y728862D01*
X55345Y728736D01*
X55141Y728615D01*
X55076Y728565D01*
X55007Y728521D01*
X54824Y728370D01*
X54637Y728226D01*
X54579Y728168D01*
X54515Y728116D01*
X54353Y727943D01*
X54185Y727776D01*
X54135Y727711D01*
X54079Y727652D01*
X53940Y727460D01*
X53794Y727273D01*
X53752Y727203D01*
X53704Y727137D01*
X53590Y726929D01*
X53469Y726726D01*
X53436Y726650D01*
X53396Y726579D01*
X53309Y726359D01*
X53214Y726141D01*
X53191Y726063D01*
X53161Y725986D01*
X53102Y725757D01*
X53035Y725530D01*
X53022Y725449D01*
X53001Y725370D01*
X52971Y725135D01*
X52934Y724901D01*
X52931Y724819D01*
X52921Y724738D01*
X52920Y724501D01*
X52912Y724264D01*
X52920Y724183D01*
X52919Y724100D01*
X52949Y723865D01*
X52970Y723630D01*
X52988Y723550D01*
X52998Y723468D01*
X53057Y723239D01*
X53107Y723008D01*
X53135Y722930D01*
X53155Y722851D01*
X53242Y722630D01*
X53321Y722407D01*
X53358Y722334D01*
X53388Y722258D01*
X53502Y722050D01*
X53609Y721839D01*
X53655Y721771D01*
X53694Y721699D01*
X53833Y721507D01*
X53965Y721311D01*
X54018Y721250D01*
X54067Y721182D01*
X54245Y720992D01*
X54398Y720818D01*
X59950Y715266D01*
X63545Y709040D01*
X65406Y702095D01*
X65406Y694905D01*
X63545Y687960D01*
X59950Y681734D01*
X54866Y676650D01*
X48640Y673055D01*
X41695Y671194D01*
X34505Y671194D01*
X27560Y673055D01*
X21334Y676650D01*
X19574Y678410D01*
X19374Y678587D01*
X19179Y678766D01*
X19136Y678796D01*
X19096Y678832D01*
X18876Y678981D01*
X18659Y679135D01*
X18612Y679160D01*
X18569Y679190D01*
X18333Y679310D01*
X18098Y679436D01*
X18048Y679455D01*
X18001Y679479D01*
X17752Y679569D01*
X17503Y679665D01*
X17452Y679677D01*
X17402Y679695D01*
X17143Y679754D01*
X16885Y679817D01*
X16832Y679823D01*
X16780Y679835D01*
X16516Y679860D01*
X16252Y679891D01*
X16199Y679890D01*
X16146Y679895D01*
X15881Y679887D01*
X15615Y679885D01*
X15562Y679877D01*
X15509Y679876D01*
X15247Y679835D01*
X14983Y679799D01*
X14932Y679785D01*
X14880Y679777D01*
X14625Y679703D01*
X14368Y679635D01*
X14319Y679615D01*
X14268Y679600D01*
X14024Y679495D01*
X13777Y679395D01*
X13731Y679369D01*
X13683Y679348D01*
X13454Y679213D01*
X13222Y679083D01*
X13179Y679051D01*
X13134Y679024D01*
X12923Y678861D01*
X12710Y678703D01*
X12672Y678667D01*
X12630Y678634D01*
X12441Y678446D01*
X12249Y678263D01*
X12216Y678222D01*
X12178Y678185D01*
X12015Y677975D01*
X11847Y677769D01*
X11819Y677724D01*
X11787Y677682D01*
X11651Y677454D01*
X11511Y677228D01*
X11488Y677180D01*
X11461Y677134D01*
X11355Y676890D01*
X11244Y676649D01*
X11228Y676599D01*
X11207Y676550D01*
X11132Y676295D01*
X11052Y676042D01*
X11043Y675990D01*
X11028Y675939D01*
X10986Y675676D01*
X10938Y675415D01*
X10935Y675363D01*
X10927Y675310D01*
X10916Y675009D01*
X10903Y674761D01*
X15691Y255931D01*
X15704Y255751D01*
X15708Y255571D01*
X15728Y255434D01*
X15738Y255296D01*
X15774Y255119D01*
X15800Y254940D01*
X15837Y254807D01*
X15864Y254671D01*
X15922Y254501D01*
X15970Y254326D01*
X16024Y254199D01*
X16068Y254068D01*
X16147Y253905D01*
X16216Y253739D01*
X16285Y253619D01*
X16346Y253494D01*
X16444Y253343D01*
X16534Y253186D01*
X16617Y253076D01*
X16693Y252960D01*
X16809Y252822D01*
X16918Y252678D01*
X17015Y252579D01*
X17104Y252473D01*
X17237Y252351D01*
X17363Y252222D01*
X17471Y252136D01*
X17573Y252042D01*
X17720Y251938D01*
X17861Y251825D01*
X17980Y251753D01*
X18092Y251673D01*
X18252Y251587D01*
X18406Y251494D01*
X18532Y251437D01*
X18654Y251372D01*
X18823Y251307D01*
X18987Y251233D01*
X19119Y251193D01*
X19249Y251143D01*
X19424Y251100D01*
X19597Y251047D01*
X19733Y251024D01*
X19867Y250991D01*
X20047Y250970D01*
X20224Y250939D01*
X20363Y250933D01*
X20500Y250917D01*
X20681Y250919D01*
X20861Y250911D01*
X20999Y250922D01*
X21137Y250923D01*
X21316Y250948D01*
X21496Y250962D01*
X21631Y250991D01*
X21769Y251009D01*
X21943Y251056D01*
X22120Y251093D01*
X22250Y251138D01*
X22384Y251173D01*
X22552Y251242D01*
X22722Y251300D01*
X22843Y251360D01*
X22974Y251413D01*
X23145Y251509D01*
X23309Y251591D01*
X27560Y254045D01*
X34505Y255906D01*
X41695Y255906D01*
X48640Y254045D01*
X54866Y250450D01*
X59950Y245366D01*
X63545Y239140D01*
X65406Y232195D01*
X65406Y225005D01*
X63545Y218060D01*
X59950Y211834D01*
X54866Y206750D01*
X49737Y203789D01*
X49517Y203643D01*
X49294Y203501D01*
X49252Y203466D01*
X49206Y203436D01*
X49006Y203264D01*
X48803Y203096D01*
X48765Y203056D01*
X48724Y203020D01*
X48547Y202823D01*
X48366Y202632D01*
X48334Y202587D01*
X48297Y202547D01*
X48147Y202330D01*
X47991Y202116D01*
X47965Y202069D01*
X47934Y202024D01*
X47811Y201790D01*
X47684Y201559D01*
X47663Y201508D01*
X47638Y201459D01*
X47546Y201212D01*
X47448Y200966D01*
X47435Y200913D01*
X47416Y200862D01*
X47355Y200605D01*
X47289Y200350D01*
X47282Y200295D01*
X47269Y200242D01*
X47241Y199979D01*
X47208Y199718D01*
X47208Y199663D01*
X47202Y199609D01*
X47207Y199345D01*
X47207Y199080D01*
X47214Y199026D01*
X47215Y198971D01*
X47253Y198711D01*
X47286Y198448D01*
X47299Y198395D01*
X47307Y198341D01*
X47377Y198087D01*
X47443Y197831D01*
X47463Y197780D01*
X47477Y197727D01*
X47579Y197484D01*
X47676Y197238D01*
X47702Y197190D01*
X47723Y197139D01*
X47854Y196911D01*
X47982Y196679D01*
X48014Y196634D01*
X48041Y196587D01*
X48200Y196377D01*
X48355Y196162D01*
X48392Y196122D01*
X48425Y196079D01*
X48609Y195890D01*
X48790Y195697D01*
X48832Y195662D01*
X48870Y195623D01*
X49077Y195458D01*
X49279Y195289D01*
X49325Y195260D01*
X49368Y195226D01*
X49594Y195088D01*
X49816Y194946D01*
X49866Y194923D01*
X49913Y194894D01*
X50153Y194787D01*
X50392Y194673D01*
X50444Y194656D01*
X50494Y194634D01*
X50746Y194557D01*
X50997Y194474D01*
X51051Y194464D01*
X51103Y194448D01*
X51363Y194403D01*
X51623Y194353D01*
X51677Y194350D01*
X51731Y194340D01*
X52028Y194327D01*
X52277Y194311D01*
X525573Y194311D01*
X525837Y194327D01*
G37*
%LPC*%
G36*
X317500Y321279D02*
X317500Y321279D01*
X305959Y321279D01*
X305959Y324450D01*
X306057Y324941D01*
X306248Y325403D01*
X306527Y325820D01*
X306956Y326249D01*
X307058Y326365D01*
X307168Y326475D01*
X307269Y326604D01*
X307377Y326727D01*
X307465Y326855D01*
X307560Y326977D01*
X307643Y327118D01*
X307736Y327254D01*
X307806Y327392D01*
X307885Y327525D01*
X307951Y327675D01*
X308025Y327822D01*
X308078Y327968D01*
X308140Y328109D01*
X308186Y328267D01*
X308241Y328421D01*
X308275Y328572D01*
X308319Y328721D01*
X308345Y328882D01*
X308381Y329043D01*
X308395Y329197D01*
X308420Y329350D01*
X308426Y329514D01*
X308441Y329677D01*
X308436Y329832D01*
X308442Y329987D01*
X308427Y330150D01*
X308422Y330314D01*
X308398Y330467D01*
X308383Y330621D01*
X308348Y330781D01*
X308323Y330943D01*
X308280Y331092D01*
X308246Y331243D01*
X308191Y331398D01*
X308146Y331555D01*
X308084Y331698D01*
X308032Y331843D01*
X307958Y331990D01*
X307893Y332140D01*
X307815Y332274D01*
X307745Y332412D01*
X307653Y332548D01*
X307570Y332689D01*
X307475Y332812D01*
X307389Y332940D01*
X307284Y333060D01*
X307180Y333193D01*
X307061Y333313D01*
X306956Y333432D01*
X305915Y334473D01*
X305451Y335594D01*
X305451Y353368D01*
X305469Y353490D01*
X305472Y353654D01*
X305485Y353817D01*
X305478Y353971D01*
X305480Y354127D01*
X305463Y354290D01*
X305455Y354453D01*
X305429Y354606D01*
X305412Y354760D01*
X305374Y354920D01*
X305346Y355081D01*
X305301Y355229D01*
X305265Y355380D01*
X305207Y355534D01*
X305159Y355690D01*
X305096Y355831D01*
X305041Y355977D01*
X304965Y356122D01*
X304898Y356271D01*
X304817Y356403D01*
X304745Y356541D01*
X304651Y356675D01*
X304566Y356814D01*
X304469Y356936D01*
X304380Y357063D01*
X304270Y357184D01*
X304168Y357312D01*
X304056Y357421D01*
X303952Y357536D01*
X303828Y357642D01*
X303711Y357756D01*
X303587Y357850D01*
X303469Y357951D01*
X303333Y358041D01*
X303202Y358140D01*
X303067Y358217D01*
X302938Y358303D01*
X302795Y358373D01*
X302649Y358456D01*
X302493Y358521D01*
X302350Y358592D01*
X299188Y359901D01*
X296402Y362688D01*
X294893Y366329D01*
X294893Y370271D01*
X296402Y373912D01*
X299898Y377408D01*
X300001Y377525D01*
X300110Y377634D01*
X300211Y377763D01*
X300320Y377886D01*
X300407Y378014D01*
X300502Y378137D01*
X300586Y378278D01*
X300678Y378413D01*
X300748Y378551D01*
X300827Y378684D01*
X300893Y378835D01*
X300967Y378981D01*
X301020Y379127D01*
X301082Y379269D01*
X301128Y379426D01*
X301183Y379580D01*
X301217Y379731D01*
X301261Y379880D01*
X301287Y380042D01*
X301323Y380202D01*
X301337Y380356D01*
X301362Y380509D01*
X301368Y380673D01*
X301383Y380836D01*
X301378Y380991D01*
X301384Y381146D01*
X301369Y381309D01*
X301364Y381473D01*
X301340Y381626D01*
X301326Y381780D01*
X301290Y381940D01*
X301265Y382102D01*
X301222Y382251D01*
X301188Y382402D01*
X301133Y382557D01*
X301088Y382714D01*
X301026Y382857D01*
X300974Y383003D01*
X300900Y383149D01*
X300836Y383299D01*
X300757Y383433D01*
X300687Y383571D01*
X300595Y383707D01*
X300512Y383848D01*
X300417Y383971D01*
X300331Y384099D01*
X300225Y384219D01*
X300122Y384352D01*
X300003Y384472D01*
X299898Y384592D01*
X296401Y388088D01*
X294893Y391729D01*
X294893Y395671D01*
X296402Y399312D01*
X299898Y402808D01*
X300001Y402925D01*
X300110Y403034D01*
X300211Y403163D01*
X300320Y403286D01*
X300407Y403414D01*
X300502Y403537D01*
X300586Y403678D01*
X300678Y403813D01*
X300748Y403951D01*
X300827Y404084D01*
X300893Y404235D01*
X300967Y404381D01*
X301020Y404527D01*
X301082Y404669D01*
X301128Y404826D01*
X301183Y404980D01*
X301217Y405131D01*
X301261Y405280D01*
X301287Y405442D01*
X301323Y405602D01*
X301337Y405756D01*
X301362Y405909D01*
X301368Y406073D01*
X301383Y406236D01*
X301378Y406391D01*
X301384Y406546D01*
X301369Y406709D01*
X301364Y406873D01*
X301340Y407026D01*
X301326Y407180D01*
X301290Y407340D01*
X301265Y407502D01*
X301222Y407651D01*
X301188Y407802D01*
X301133Y407957D01*
X301088Y408114D01*
X301026Y408257D01*
X300974Y408403D01*
X300900Y408549D01*
X300836Y408699D01*
X300757Y408833D01*
X300687Y408971D01*
X300595Y409107D01*
X300512Y409248D01*
X300417Y409371D01*
X300331Y409499D01*
X300225Y409619D01*
X300122Y409752D01*
X300003Y409872D01*
X299898Y409992D01*
X296401Y413488D01*
X294893Y417129D01*
X294893Y421071D01*
X296401Y424712D01*
X298287Y426597D01*
X298417Y426744D01*
X298553Y426885D01*
X298627Y426983D01*
X298709Y427075D01*
X298819Y427237D01*
X298937Y427394D01*
X298998Y427501D01*
X299067Y427602D01*
X299156Y427777D01*
X299253Y427947D01*
X299300Y428060D01*
X299356Y428170D01*
X299423Y428354D01*
X299498Y428535D01*
X299531Y428653D01*
X299572Y428769D01*
X299615Y428960D01*
X299667Y429149D01*
X299685Y429270D01*
X299712Y429391D01*
X299730Y429586D01*
X299758Y429780D01*
X299761Y429903D01*
X299772Y430025D01*
X299766Y430221D01*
X299770Y430417D01*
X299757Y430539D01*
X299753Y430662D01*
X299722Y430855D01*
X299701Y431050D01*
X299673Y431170D01*
X299654Y431291D01*
X299599Y431479D01*
X299554Y431670D01*
X299511Y431785D01*
X299477Y431903D01*
X299399Y432083D01*
X299331Y432267D01*
X299273Y432376D01*
X299225Y432488D01*
X299125Y432657D01*
X299034Y432831D01*
X298964Y432931D01*
X298901Y433037D01*
X298781Y433192D01*
X298669Y433353D01*
X298587Y433444D01*
X298511Y433541D01*
X298373Y433680D01*
X298242Y433825D01*
X298149Y433905D01*
X298062Y433993D01*
X297907Y434113D01*
X297759Y434241D01*
X297656Y434309D01*
X297559Y434384D01*
X297391Y434484D01*
X297227Y434592D01*
X297119Y434646D01*
X297011Y434710D01*
X296816Y434795D01*
X296639Y434882D01*
X296215Y435057D01*
X295357Y435915D01*
X294893Y437036D01*
X294893Y451964D01*
X295357Y453085D01*
X296215Y453943D01*
X297336Y454407D01*
X312264Y454407D01*
X313385Y453943D01*
X314243Y453085D01*
X314707Y451964D01*
X314707Y437036D01*
X314243Y435915D01*
X313385Y435057D01*
X312961Y434882D01*
X312785Y434795D01*
X312605Y434718D01*
X312499Y434656D01*
X312388Y434601D01*
X312224Y434494D01*
X312056Y434394D01*
X311959Y434319D01*
X311856Y434252D01*
X311707Y434124D01*
X311552Y434005D01*
X311465Y433918D01*
X311371Y433838D01*
X311239Y433693D01*
X311101Y433555D01*
X311025Y433458D01*
X310942Y433367D01*
X310829Y433207D01*
X310709Y433052D01*
X310646Y432947D01*
X310575Y432846D01*
X310484Y432673D01*
X310384Y432505D01*
X310334Y432392D01*
X310277Y432283D01*
X310208Y432100D01*
X310129Y431920D01*
X310095Y431803D01*
X310051Y431687D01*
X310005Y431497D01*
X309950Y431309D01*
X309931Y431188D01*
X309902Y431068D01*
X309880Y430873D01*
X309849Y430680D01*
X309845Y430557D01*
X309831Y430435D01*
X309834Y430239D01*
X309827Y430043D01*
X309838Y429921D01*
X309840Y429798D01*
X309867Y429604D01*
X309885Y429409D01*
X309912Y429289D01*
X309929Y429167D01*
X309980Y428978D01*
X310023Y428787D01*
X310064Y428671D01*
X310096Y428552D01*
X310171Y428371D01*
X310237Y428186D01*
X310292Y428076D01*
X310339Y427963D01*
X310436Y427793D01*
X310524Y427618D01*
X310593Y427516D01*
X310654Y427409D01*
X310771Y427252D01*
X310880Y427090D01*
X310960Y426999D01*
X311035Y426899D01*
X311183Y426746D01*
X311313Y426597D01*
X313199Y424712D01*
X314707Y421071D01*
X314707Y416970D01*
X314716Y416815D01*
X314716Y416660D01*
X314736Y416498D01*
X314747Y416334D01*
X314776Y416182D01*
X314795Y416028D01*
X314835Y415869D01*
X314866Y415708D01*
X314914Y415561D01*
X314952Y415411D01*
X315012Y415258D01*
X315063Y415102D01*
X315128Y414962D01*
X315185Y414818D01*
X315264Y414674D01*
X315334Y414526D01*
X315416Y414395D01*
X315491Y414259D01*
X315587Y414126D01*
X315675Y413987D01*
X315773Y413868D01*
X315864Y413742D01*
X315976Y413623D01*
X316080Y413496D01*
X316193Y413390D01*
X316299Y413277D01*
X316425Y413172D01*
X316544Y413060D01*
X316670Y412968D01*
X316789Y412869D01*
X316927Y412781D01*
X317059Y412685D01*
X317195Y412610D01*
X317326Y412526D01*
X317474Y412456D01*
X317617Y412377D01*
X317761Y412320D01*
X317901Y412253D01*
X318057Y412202D01*
X318210Y412142D01*
X318360Y412103D01*
X318507Y412054D01*
X318668Y412023D01*
X318771Y411997D01*
X318771Y401350D01*
X318780Y401196D01*
X318780Y401041D01*
X318800Y400878D01*
X318811Y400714D01*
X318839Y400563D01*
X318859Y400409D01*
X318899Y400249D01*
X318930Y400089D01*
X318978Y399941D01*
X319016Y399791D01*
X319076Y399639D01*
X319126Y399483D01*
X319192Y399342D01*
X319249Y399198D01*
X319328Y399054D01*
X319397Y398906D01*
X319480Y398775D01*
X319555Y398639D01*
X319651Y398506D01*
X319738Y398368D01*
X319837Y398248D01*
X319928Y398123D01*
X320040Y398003D01*
X320144Y397877D01*
X320145Y397876D01*
X320257Y397770D01*
X320363Y397657D01*
X320489Y397552D01*
X320609Y397439D01*
X320734Y397348D01*
X320853Y397249D01*
X320991Y397161D01*
X321124Y397064D01*
X321259Y396990D01*
X321390Y396906D01*
X321538Y396836D01*
X321682Y396757D01*
X321826Y396700D01*
X321966Y396633D01*
X322122Y396582D01*
X322274Y396521D01*
X322424Y396483D01*
X322571Y396434D01*
X322732Y396403D01*
X322891Y396362D01*
X323044Y396342D01*
X323196Y396313D01*
X323355Y396303D01*
X323523Y396281D01*
X323691Y396281D01*
X323850Y396271D01*
X335391Y396271D01*
X335391Y393100D01*
X335293Y392609D01*
X335102Y392147D01*
X334823Y391730D01*
X334394Y391301D01*
X334292Y391185D01*
X334182Y391075D01*
X334081Y390946D01*
X333973Y390823D01*
X333885Y390695D01*
X333790Y390573D01*
X333707Y390432D01*
X333614Y390296D01*
X333544Y390158D01*
X333465Y390025D01*
X333399Y389875D01*
X333325Y389728D01*
X333272Y389582D01*
X333210Y389441D01*
X333164Y389283D01*
X333109Y389129D01*
X333075Y388978D01*
X333031Y388829D01*
X333005Y388668D01*
X332969Y388507D01*
X332955Y388353D01*
X332930Y388200D01*
X332924Y388036D01*
X332909Y387873D01*
X332914Y387718D01*
X332908Y387563D01*
X332923Y387400D01*
X332928Y387236D01*
X332952Y387083D01*
X332967Y386929D01*
X333002Y386769D01*
X333027Y386607D01*
X333070Y386458D01*
X333104Y386307D01*
X333159Y386152D01*
X333204Y385995D01*
X333266Y385852D01*
X333318Y385707D01*
X333392Y385560D01*
X333457Y385410D01*
X333535Y385276D01*
X333605Y385138D01*
X333697Y385002D01*
X333780Y384861D01*
X333875Y384738D01*
X333961Y384610D01*
X334066Y384490D01*
X334170Y384357D01*
X334289Y384237D01*
X334394Y384118D01*
X335435Y383077D01*
X335899Y381956D01*
X335899Y364744D01*
X335435Y363623D01*
X334577Y362765D01*
X333456Y362301D01*
X332973Y362301D01*
X332736Y362286D01*
X332500Y362279D01*
X332419Y362266D01*
X332337Y362261D01*
X332104Y362217D01*
X331870Y362180D01*
X331791Y362157D01*
X331711Y362142D01*
X331486Y362069D01*
X331258Y362003D01*
X331183Y361971D01*
X331105Y361945D01*
X330891Y361845D01*
X330673Y361751D01*
X330602Y361709D01*
X330528Y361674D01*
X330328Y361548D01*
X330124Y361427D01*
X330059Y361377D01*
X329990Y361333D01*
X329808Y361183D01*
X329620Y361038D01*
X329562Y360980D01*
X329499Y360928D01*
X329336Y360755D01*
X329169Y360588D01*
X329119Y360523D01*
X329062Y360464D01*
X328923Y360272D01*
X328777Y360085D01*
X328735Y360015D01*
X328687Y359949D01*
X328573Y359741D01*
X328452Y359537D01*
X328419Y359462D01*
X328380Y359391D01*
X328292Y359170D01*
X328198Y358953D01*
X328175Y358875D01*
X328144Y358798D01*
X328085Y358569D01*
X328018Y358342D01*
X328005Y358261D01*
X327985Y358182D01*
X327955Y357946D01*
X327917Y357713D01*
X327914Y357631D01*
X327904Y357550D01*
X327904Y357312D01*
X327896Y357076D01*
X327903Y356994D01*
X327903Y356912D01*
X327932Y356677D01*
X327954Y356442D01*
X327971Y356362D01*
X327981Y356280D01*
X328040Y356051D01*
X328091Y355819D01*
X328118Y355742D01*
X328139Y355663D01*
X328225Y355443D01*
X328305Y355219D01*
X328342Y355146D01*
X328372Y355070D01*
X328486Y354862D01*
X328592Y354651D01*
X328638Y354583D01*
X328678Y354511D01*
X328817Y354318D01*
X328949Y354123D01*
X329002Y354062D01*
X329051Y353994D01*
X329061Y353983D01*
X329549Y352806D01*
X329549Y335594D01*
X329085Y334473D01*
X328044Y333432D01*
X327941Y333316D01*
X327832Y333207D01*
X327731Y333078D01*
X327623Y332955D01*
X327535Y332826D01*
X327440Y332704D01*
X327356Y332563D01*
X327264Y332428D01*
X327194Y332290D01*
X327115Y332156D01*
X327049Y332006D01*
X326975Y331860D01*
X326922Y331714D01*
X326860Y331572D01*
X326814Y331415D01*
X326759Y331261D01*
X326725Y331109D01*
X326681Y330961D01*
X326655Y330799D01*
X326619Y330639D01*
X326605Y330485D01*
X326580Y330332D01*
X326574Y330168D01*
X326559Y330005D01*
X326564Y329850D01*
X326558Y329695D01*
X326573Y329532D01*
X326578Y329368D01*
X326602Y329215D01*
X326617Y329061D01*
X326652Y328900D01*
X326677Y328738D01*
X326720Y328590D01*
X326754Y328438D01*
X326809Y328284D01*
X326854Y328126D01*
X326916Y327984D01*
X326968Y327838D01*
X327042Y327692D01*
X327107Y327541D01*
X327185Y327408D01*
X327255Y327270D01*
X327347Y327134D01*
X327430Y326992D01*
X327525Y326870D01*
X327611Y326741D01*
X327717Y326622D01*
X327820Y326488D01*
X327939Y326369D01*
X328044Y326249D01*
X328473Y325820D01*
X328752Y325403D01*
X328943Y324941D01*
X329041Y324450D01*
X329041Y321279D01*
X317500Y321279D01*
X317500Y321279D01*
G37*
%LPD*%
%LPC*%
G36*
X381000Y373379D02*
X381000Y373379D01*
X373073Y373379D01*
X373831Y374423D01*
X374877Y375469D01*
X376344Y376535D01*
X376557Y376711D01*
X376773Y376883D01*
X376802Y376914D01*
X376835Y376941D01*
X377024Y377142D01*
X377217Y377340D01*
X377242Y377374D01*
X377272Y377405D01*
X377434Y377628D01*
X377600Y377849D01*
X377621Y377886D01*
X377646Y377921D01*
X377779Y378162D01*
X377917Y378402D01*
X377933Y378442D01*
X377954Y378479D01*
X378055Y378735D01*
X378161Y378990D01*
X378173Y379031D01*
X378189Y379071D01*
X378257Y379338D01*
X378331Y379604D01*
X378337Y379647D01*
X378347Y379688D01*
X378382Y379962D01*
X378422Y380235D01*
X378423Y380278D01*
X378428Y380320D01*
X378428Y380596D01*
X378433Y380872D01*
X378429Y380915D01*
X378429Y380957D01*
X378395Y381230D01*
X378365Y381505D01*
X378355Y381547D01*
X378350Y381590D01*
X378282Y381856D01*
X378218Y382125D01*
X378203Y382165D01*
X378192Y382207D01*
X378091Y382463D01*
X377994Y382722D01*
X377974Y382760D01*
X377958Y382800D01*
X377826Y383041D01*
X377697Y383286D01*
X377673Y383321D01*
X377652Y383358D01*
X377490Y383582D01*
X377333Y383808D01*
X377304Y383840D01*
X377279Y383875D01*
X377090Y384076D01*
X376905Y384281D01*
X376873Y384309D01*
X376843Y384340D01*
X376631Y384516D01*
X376422Y384696D01*
X376386Y384720D01*
X376353Y384747D01*
X376121Y384895D01*
X375891Y385048D01*
X375853Y385066D01*
X375816Y385090D01*
X375528Y385226D01*
X375401Y385288D01*
X372602Y388088D01*
X371093Y391729D01*
X371093Y395671D01*
X372601Y399312D01*
X376098Y402808D01*
X376201Y402925D01*
X376310Y403034D01*
X376411Y403163D01*
X376520Y403286D01*
X376607Y403414D01*
X376702Y403537D01*
X376786Y403678D01*
X376878Y403813D01*
X376948Y403951D01*
X377027Y404084D01*
X377093Y404235D01*
X377167Y404381D01*
X377220Y404526D01*
X377282Y404669D01*
X377328Y404826D01*
X377383Y404980D01*
X377417Y405131D01*
X377461Y405280D01*
X377487Y405442D01*
X377523Y405602D01*
X377537Y405756D01*
X377562Y405909D01*
X377568Y406073D01*
X377583Y406236D01*
X377578Y406391D01*
X377584Y406546D01*
X377569Y406709D01*
X377564Y406873D01*
X377540Y407026D01*
X377526Y407180D01*
X377490Y407340D01*
X377465Y407502D01*
X377422Y407651D01*
X377388Y407802D01*
X377333Y407957D01*
X377288Y408114D01*
X377226Y408257D01*
X377174Y408403D01*
X377101Y408549D01*
X377036Y408699D01*
X376957Y408833D01*
X376887Y408971D01*
X376795Y409107D01*
X376712Y409248D01*
X376617Y409371D01*
X376531Y409499D01*
X376426Y409619D01*
X376322Y409752D01*
X376203Y409872D01*
X376098Y409992D01*
X372602Y413488D01*
X371093Y417129D01*
X371093Y421071D01*
X372601Y424712D01*
X376098Y428208D01*
X376201Y428325D01*
X376310Y428434D01*
X376411Y428563D01*
X376520Y428686D01*
X376607Y428814D01*
X376702Y428937D01*
X376786Y429078D01*
X376878Y429213D01*
X376948Y429351D01*
X377027Y429484D01*
X377093Y429635D01*
X377167Y429781D01*
X377220Y429926D01*
X377282Y430069D01*
X377328Y430226D01*
X377383Y430380D01*
X377417Y430531D01*
X377461Y430680D01*
X377487Y430842D01*
X377523Y431002D01*
X377537Y431156D01*
X377562Y431309D01*
X377568Y431473D01*
X377583Y431636D01*
X377578Y431790D01*
X377584Y431946D01*
X377569Y432109D01*
X377564Y432273D01*
X377540Y432426D01*
X377526Y432580D01*
X377490Y432740D01*
X377465Y432902D01*
X377422Y433051D01*
X377388Y433202D01*
X377333Y433357D01*
X377288Y433514D01*
X377226Y433657D01*
X377174Y433803D01*
X377101Y433949D01*
X377036Y434099D01*
X376957Y434233D01*
X376887Y434371D01*
X376795Y434507D01*
X376712Y434648D01*
X376617Y434771D01*
X376531Y434899D01*
X376426Y435019D01*
X376322Y435152D01*
X376203Y435272D01*
X376098Y435392D01*
X372602Y438888D01*
X371093Y442529D01*
X371093Y446471D01*
X372602Y450112D01*
X375388Y452898D01*
X379029Y454407D01*
X382971Y454407D01*
X386806Y452818D01*
X386940Y452718D01*
X387046Y452656D01*
X387148Y452587D01*
X387322Y452498D01*
X387493Y452401D01*
X387606Y452354D01*
X387715Y452298D01*
X387899Y452232D01*
X388081Y452156D01*
X388199Y452123D01*
X388315Y452082D01*
X388506Y452039D01*
X388695Y451987D01*
X388816Y451969D01*
X388936Y451942D01*
X389132Y451924D01*
X389326Y451896D01*
X389448Y451894D01*
X389571Y451882D01*
X389767Y451888D01*
X389963Y451884D01*
X390085Y451898D01*
X390208Y451901D01*
X390401Y451932D01*
X390596Y451953D01*
X390716Y451981D01*
X390837Y452000D01*
X391025Y452055D01*
X391216Y452100D01*
X391331Y452143D01*
X391449Y452177D01*
X391629Y452255D01*
X391813Y452324D01*
X391922Y452381D01*
X392034Y452429D01*
X392202Y452529D01*
X392376Y452620D01*
X392477Y452691D01*
X392583Y452753D01*
X392738Y452873D01*
X392899Y452985D01*
X392990Y453067D01*
X393087Y453143D01*
X393226Y453281D01*
X393371Y453412D01*
X393451Y453505D01*
X393538Y453592D01*
X393659Y453747D01*
X393787Y453896D01*
X393854Y453998D01*
X393930Y454095D01*
X394030Y454264D01*
X394138Y454427D01*
X394191Y454534D01*
X394255Y454643D01*
X394341Y454838D01*
X394428Y455015D01*
X394515Y455227D01*
X395373Y456085D01*
X396494Y456549D01*
X413706Y456549D01*
X414827Y456085D01*
X415868Y455044D01*
X415984Y454941D01*
X416093Y454832D01*
X416222Y454731D01*
X416345Y454623D01*
X416474Y454535D01*
X416596Y454440D01*
X416737Y454356D01*
X416872Y454264D01*
X417010Y454194D01*
X417144Y454115D01*
X417294Y454049D01*
X417440Y453975D01*
X417586Y453922D01*
X417728Y453860D01*
X417885Y453814D01*
X418039Y453759D01*
X418191Y453725D01*
X418339Y453681D01*
X418501Y453655D01*
X418661Y453619D01*
X418815Y453605D01*
X418968Y453580D01*
X419132Y453574D01*
X419295Y453559D01*
X419450Y453564D01*
X419605Y453558D01*
X419768Y453573D01*
X419932Y453578D01*
X420085Y453602D01*
X420239Y453617D01*
X420400Y453652D01*
X420562Y453677D01*
X420710Y453720D01*
X420862Y453754D01*
X421016Y453809D01*
X421174Y453854D01*
X421316Y453916D01*
X421462Y453968D01*
X421608Y454042D01*
X421759Y454107D01*
X421892Y454185D01*
X422030Y454255D01*
X422166Y454347D01*
X422308Y454430D01*
X422430Y454525D01*
X422559Y454611D01*
X422678Y454717D01*
X422812Y454820D01*
X422931Y454939D01*
X423051Y455044D01*
X423480Y455473D01*
X423897Y455752D01*
X424359Y455943D01*
X424850Y456041D01*
X428021Y456041D01*
X428021Y444500D01*
X428021Y419100D01*
X428021Y407559D01*
X424850Y407559D01*
X424359Y407657D01*
X423897Y407848D01*
X423480Y408127D01*
X423051Y408556D01*
X422935Y408658D01*
X422825Y408768D01*
X422696Y408869D01*
X422573Y408977D01*
X422445Y409065D01*
X422323Y409160D01*
X422182Y409243D01*
X422046Y409336D01*
X421908Y409406D01*
X421775Y409485D01*
X421625Y409551D01*
X421478Y409625D01*
X421332Y409678D01*
X421191Y409740D01*
X421033Y409786D01*
X420879Y409841D01*
X420728Y409875D01*
X420579Y409919D01*
X420418Y409945D01*
X420257Y409981D01*
X420103Y409995D01*
X419950Y410020D01*
X419786Y410026D01*
X419623Y410041D01*
X419468Y410036D01*
X419313Y410042D01*
X419150Y410027D01*
X418986Y410022D01*
X418833Y409998D01*
X418679Y409983D01*
X418519Y409948D01*
X418357Y409923D01*
X418208Y409880D01*
X418057Y409846D01*
X417902Y409791D01*
X417745Y409746D01*
X417602Y409684D01*
X417457Y409632D01*
X417310Y409558D01*
X417160Y409493D01*
X417026Y409415D01*
X416888Y409345D01*
X416752Y409253D01*
X416611Y409170D01*
X416488Y409075D01*
X416360Y408989D01*
X416240Y408884D01*
X416107Y408780D01*
X415987Y408661D01*
X415868Y408556D01*
X414827Y407515D01*
X413706Y407051D01*
X396494Y407051D01*
X394761Y407769D01*
X394498Y407859D01*
X394237Y407953D01*
X394197Y407962D01*
X394158Y407975D01*
X393885Y408032D01*
X393615Y408093D01*
X393574Y408096D01*
X393534Y408105D01*
X393256Y408127D01*
X392981Y408153D01*
X392940Y408152D01*
X392899Y408155D01*
X392621Y408142D01*
X392344Y408134D01*
X392303Y408127D01*
X392262Y408125D01*
X391989Y408078D01*
X391714Y408035D01*
X391675Y408023D01*
X391635Y408016D01*
X391369Y407935D01*
X391102Y407858D01*
X391065Y407841D01*
X391026Y407829D01*
X390772Y407715D01*
X390517Y407605D01*
X390482Y407585D01*
X390445Y407568D01*
X390207Y407423D01*
X389968Y407282D01*
X389936Y407257D01*
X389901Y407235D01*
X389683Y407061D01*
X389464Y406892D01*
X389436Y406863D01*
X389403Y406838D01*
X389209Y406638D01*
X389013Y406442D01*
X388988Y406410D01*
X388959Y406381D01*
X388792Y406158D01*
X388622Y405940D01*
X388601Y405905D01*
X388576Y405872D01*
X388438Y405631D01*
X388296Y405392D01*
X388280Y405354D01*
X388259Y405319D01*
X388153Y405062D01*
X388042Y404808D01*
X388030Y404769D01*
X388015Y404731D01*
X387941Y404463D01*
X387863Y404196D01*
X387856Y404156D01*
X387845Y404116D01*
X387806Y403841D01*
X387761Y403567D01*
X387760Y403526D01*
X387754Y403486D01*
X387749Y403208D01*
X387740Y402931D01*
X387744Y402890D01*
X387743Y402849D01*
X387773Y402572D01*
X387798Y402296D01*
X387807Y402256D01*
X387811Y402215D01*
X387875Y401946D01*
X387935Y401674D01*
X387949Y401635D01*
X387958Y401595D01*
X388056Y401336D01*
X388149Y401074D01*
X388168Y401037D01*
X388182Y400999D01*
X388311Y400753D01*
X388437Y400505D01*
X388459Y400471D01*
X388479Y400435D01*
X388638Y400207D01*
X388793Y399977D01*
X388820Y399947D01*
X388843Y399913D01*
X389060Y399673D01*
X389225Y399485D01*
X389399Y399312D01*
X390907Y395671D01*
X390907Y391729D01*
X389398Y388088D01*
X386599Y385289D01*
X386450Y385216D01*
X386200Y385098D01*
X386164Y385075D01*
X386125Y385057D01*
X385894Y384905D01*
X385661Y384758D01*
X385628Y384731D01*
X385592Y384707D01*
X385382Y384528D01*
X385170Y384352D01*
X385140Y384321D01*
X385108Y384293D01*
X384922Y384089D01*
X384733Y383889D01*
X384708Y383854D01*
X384679Y383822D01*
X384520Y383597D01*
X384357Y383374D01*
X384337Y383336D01*
X384312Y383301D01*
X384183Y383057D01*
X384049Y382816D01*
X384034Y382776D01*
X384014Y382738D01*
X383916Y382480D01*
X383814Y382224D01*
X383803Y382183D01*
X383788Y382143D01*
X383723Y381875D01*
X383654Y381607D01*
X383648Y381565D01*
X383638Y381523D01*
X383608Y381249D01*
X383573Y380975D01*
X383572Y380933D01*
X383568Y380890D01*
X383572Y380614D01*
X383571Y380338D01*
X383576Y380296D01*
X383577Y380253D01*
X383615Y379980D01*
X383649Y379706D01*
X383660Y379664D01*
X383666Y379622D01*
X383738Y379356D01*
X383806Y379088D01*
X383822Y379049D01*
X383833Y379007D01*
X383938Y378753D01*
X384039Y378495D01*
X384059Y378458D01*
X384075Y378418D01*
X384212Y378178D01*
X384344Y377936D01*
X384369Y377901D01*
X384390Y377864D01*
X384555Y377643D01*
X384717Y377419D01*
X384746Y377388D01*
X384772Y377354D01*
X384963Y377155D01*
X385151Y376954D01*
X385184Y376927D01*
X385214Y376895D01*
X385462Y376696D01*
X385656Y376535D01*
X387123Y375469D01*
X388169Y374423D01*
X388927Y373379D01*
X381000Y373379D01*
X381000Y373379D01*
G37*
%LPD*%
%LPC*%
G36*
X353478Y311911D02*
X353478Y311911D01*
X349557Y313536D01*
X346556Y316537D01*
X344931Y320458D01*
X344931Y339942D01*
X346556Y343863D01*
X349557Y346864D01*
X353478Y348489D01*
X357722Y348489D01*
X361643Y346865D01*
X364708Y343799D01*
X364825Y343697D01*
X364934Y343587D01*
X365063Y343487D01*
X365186Y343378D01*
X365314Y343291D01*
X365437Y343196D01*
X365578Y343112D01*
X365713Y343020D01*
X365851Y342949D01*
X365984Y342870D01*
X366135Y342805D01*
X366281Y342730D01*
X366426Y342678D01*
X366569Y342616D01*
X366726Y342570D01*
X366880Y342514D01*
X367031Y342480D01*
X367180Y342437D01*
X367342Y342411D01*
X367502Y342375D01*
X367656Y342360D01*
X367809Y342336D01*
X367973Y342330D01*
X368136Y342314D01*
X368291Y342319D01*
X368446Y342314D01*
X368609Y342329D01*
X368773Y342334D01*
X368926Y342358D01*
X369080Y342372D01*
X369240Y342407D01*
X369402Y342433D01*
X369551Y342476D01*
X369702Y342509D01*
X369857Y342564D01*
X370014Y342610D01*
X370157Y342671D01*
X370303Y342723D01*
X370449Y342797D01*
X370599Y342862D01*
X370733Y342941D01*
X370871Y343011D01*
X371007Y343102D01*
X371148Y343186D01*
X371271Y343280D01*
X371399Y343367D01*
X371519Y343472D01*
X371652Y343575D01*
X371772Y343694D01*
X371892Y343799D01*
X374957Y346864D01*
X378878Y348489D01*
X383122Y348489D01*
X387043Y346864D01*
X390044Y343863D01*
X391669Y339942D01*
X391669Y320458D01*
X390044Y316537D01*
X387043Y313536D01*
X383122Y311911D01*
X378878Y311911D01*
X374957Y313536D01*
X371892Y316601D01*
X371775Y316703D01*
X371666Y316813D01*
X371537Y316914D01*
X371414Y317022D01*
X371286Y317109D01*
X371163Y317204D01*
X371022Y317288D01*
X370887Y317380D01*
X370749Y317451D01*
X370616Y317530D01*
X370465Y317595D01*
X370319Y317670D01*
X370173Y317722D01*
X370031Y317784D01*
X369874Y317830D01*
X369720Y317886D01*
X369569Y317920D01*
X369420Y317963D01*
X369258Y317989D01*
X369098Y318025D01*
X368944Y318040D01*
X368791Y318064D01*
X368627Y318070D01*
X368464Y318086D01*
X368309Y318081D01*
X368154Y318086D01*
X367991Y318071D01*
X367827Y318066D01*
X367674Y318042D01*
X367520Y318028D01*
X367360Y317993D01*
X367198Y317967D01*
X367049Y317924D01*
X366898Y317891D01*
X366743Y317836D01*
X366586Y317790D01*
X366443Y317729D01*
X366297Y317677D01*
X366151Y317603D01*
X366001Y317538D01*
X365867Y317459D01*
X365729Y317389D01*
X365593Y317298D01*
X365452Y317214D01*
X365329Y317120D01*
X365201Y317033D01*
X365081Y316928D01*
X364948Y316825D01*
X364828Y316706D01*
X364708Y316601D01*
X361643Y313535D01*
X357722Y311911D01*
X353478Y311911D01*
G37*
%LPD*%
%LPC*%
G36*
X447458Y497331D02*
X447458Y497331D01*
X443537Y498956D01*
X440536Y501957D01*
X438911Y505878D01*
X438911Y510122D01*
X440536Y514043D01*
X443601Y517108D01*
X443703Y517225D01*
X443813Y517334D01*
X443914Y517463D01*
X444022Y517586D01*
X444109Y517714D01*
X444204Y517837D01*
X444288Y517978D01*
X444380Y518113D01*
X444451Y518251D01*
X444530Y518384D01*
X444595Y518535D01*
X444670Y518681D01*
X444722Y518827D01*
X444784Y518969D01*
X444830Y519126D01*
X444886Y519280D01*
X444920Y519431D01*
X444963Y519580D01*
X444989Y519742D01*
X445025Y519902D01*
X445040Y520056D01*
X445064Y520209D01*
X445070Y520373D01*
X445086Y520536D01*
X445081Y520691D01*
X445086Y520846D01*
X445071Y521009D01*
X445066Y521173D01*
X445042Y521326D01*
X445028Y521480D01*
X444993Y521640D01*
X444967Y521802D01*
X444924Y521951D01*
X444891Y522102D01*
X444836Y522257D01*
X444790Y522414D01*
X444729Y522557D01*
X444677Y522703D01*
X444603Y522849D01*
X444538Y522999D01*
X444459Y523133D01*
X444389Y523271D01*
X444298Y523407D01*
X444214Y523548D01*
X444120Y523671D01*
X444033Y523799D01*
X443928Y523919D01*
X443825Y524052D01*
X443706Y524172D01*
X443601Y524292D01*
X440535Y527357D01*
X438911Y531278D01*
X438911Y535522D01*
X440536Y539443D01*
X443537Y542444D01*
X447458Y544069D01*
X466942Y544069D01*
X470863Y542444D01*
X473864Y539443D01*
X475489Y535522D01*
X475489Y531278D01*
X473865Y527357D01*
X470799Y524292D01*
X470697Y524175D01*
X470587Y524066D01*
X470487Y523937D01*
X470378Y523814D01*
X470291Y523686D01*
X470196Y523563D01*
X470112Y523422D01*
X470020Y523287D01*
X469949Y523149D01*
X469870Y523016D01*
X469805Y522865D01*
X469730Y522719D01*
X469678Y522574D01*
X469616Y522431D01*
X469570Y522274D01*
X469514Y522120D01*
X469480Y521969D01*
X469437Y521820D01*
X469411Y521658D01*
X469375Y521498D01*
X469360Y521344D01*
X469336Y521191D01*
X469330Y521027D01*
X469314Y520864D01*
X469319Y520709D01*
X469314Y520554D01*
X469329Y520391D01*
X469334Y520227D01*
X469358Y520074D01*
X469372Y519920D01*
X469407Y519760D01*
X469433Y519598D01*
X469476Y519449D01*
X469509Y519298D01*
X469564Y519143D01*
X469610Y518986D01*
X469671Y518843D01*
X469723Y518697D01*
X469797Y518551D01*
X469862Y518401D01*
X469941Y518267D01*
X470011Y518129D01*
X470102Y517993D01*
X470186Y517852D01*
X470280Y517729D01*
X470367Y517601D01*
X470472Y517481D01*
X470575Y517348D01*
X470694Y517228D01*
X470799Y517108D01*
X473864Y514043D01*
X475489Y510122D01*
X475489Y505878D01*
X473864Y501957D01*
X470863Y498956D01*
X466942Y497331D01*
X447458Y497331D01*
G37*
%LPD*%
%LPC*%
G36*
X34708Y370331D02*
X34708Y370331D01*
X30787Y371956D01*
X27786Y374957D01*
X26161Y378878D01*
X26161Y383122D01*
X27785Y387043D01*
X30851Y390108D01*
X30953Y390225D01*
X31063Y390334D01*
X31163Y390463D01*
X31272Y390586D01*
X31359Y390714D01*
X31454Y390837D01*
X31538Y390978D01*
X31630Y391113D01*
X31701Y391251D01*
X31780Y391384D01*
X31845Y391535D01*
X31920Y391681D01*
X31972Y391826D01*
X32034Y391969D01*
X32080Y392126D01*
X32136Y392280D01*
X32170Y392431D01*
X32213Y392580D01*
X32239Y392742D01*
X32275Y392902D01*
X32290Y393056D01*
X32314Y393209D01*
X32320Y393373D01*
X32336Y393536D01*
X32331Y393691D01*
X32336Y393846D01*
X32321Y394009D01*
X32316Y394173D01*
X32292Y394326D01*
X32278Y394480D01*
X32243Y394640D01*
X32217Y394802D01*
X32174Y394951D01*
X32141Y395102D01*
X32086Y395257D01*
X32040Y395414D01*
X31979Y395557D01*
X31927Y395703D01*
X31853Y395849D01*
X31788Y395999D01*
X31709Y396133D01*
X31639Y396271D01*
X31548Y396407D01*
X31464Y396548D01*
X31370Y396671D01*
X31283Y396799D01*
X31178Y396919D01*
X31075Y397052D01*
X30956Y397172D01*
X30851Y397292D01*
X27786Y400357D01*
X26161Y404278D01*
X26161Y408522D01*
X27786Y412443D01*
X30787Y415444D01*
X34708Y417069D01*
X54192Y417069D01*
X58113Y415444D01*
X61114Y412443D01*
X62739Y408522D01*
X62739Y404278D01*
X61114Y400357D01*
X58049Y397292D01*
X57947Y397175D01*
X57837Y397066D01*
X57736Y396937D01*
X57628Y396814D01*
X57541Y396686D01*
X57446Y396563D01*
X57362Y396422D01*
X57270Y396287D01*
X57199Y396149D01*
X57120Y396016D01*
X57055Y395865D01*
X56980Y395719D01*
X56928Y395573D01*
X56866Y395431D01*
X56820Y395274D01*
X56764Y395120D01*
X56730Y394969D01*
X56687Y394820D01*
X56661Y394658D01*
X56625Y394498D01*
X56610Y394344D01*
X56586Y394191D01*
X56580Y394027D01*
X56564Y393864D01*
X56569Y393709D01*
X56564Y393554D01*
X56579Y393391D01*
X56584Y393227D01*
X56608Y393074D01*
X56622Y392920D01*
X56657Y392760D01*
X56683Y392598D01*
X56726Y392449D01*
X56759Y392298D01*
X56814Y392143D01*
X56860Y391986D01*
X56921Y391843D01*
X56973Y391697D01*
X57047Y391551D01*
X57112Y391401D01*
X57191Y391267D01*
X57261Y391129D01*
X57352Y390993D01*
X57436Y390852D01*
X57530Y390729D01*
X57617Y390601D01*
X57722Y390481D01*
X57825Y390348D01*
X57944Y390228D01*
X58049Y390108D01*
X61115Y387043D01*
X62739Y383122D01*
X62739Y378878D01*
X61114Y374957D01*
X58113Y371956D01*
X54192Y370331D01*
X34708Y370331D01*
G37*
%LPD*%
%LPC*%
G36*
X569883Y398271D02*
X569883Y398271D01*
X566895Y399509D01*
X564609Y401795D01*
X563371Y404783D01*
X563371Y459759D01*
X563367Y459832D01*
X563369Y459905D01*
X563347Y460150D01*
X563331Y460395D01*
X563318Y460467D01*
X563311Y460540D01*
X563258Y460780D01*
X563212Y461021D01*
X563190Y461090D01*
X563174Y461162D01*
X563091Y461394D01*
X563015Y461627D01*
X562984Y461693D01*
X562960Y461762D01*
X562849Y461981D01*
X562744Y462204D01*
X562705Y462265D01*
X562672Y462331D01*
X562535Y462535D01*
X562403Y462742D01*
X562357Y462798D01*
X562316Y462859D01*
X562163Y463033D01*
X561998Y463233D01*
X561937Y463290D01*
X561884Y463351D01*
X561809Y463425D01*
X560069Y467626D01*
X560069Y472174D01*
X561810Y476375D01*
X565025Y479590D01*
X569226Y481331D01*
X573774Y481331D01*
X577975Y479590D01*
X581190Y476375D01*
X582931Y472174D01*
X582931Y467626D01*
X581191Y463425D01*
X581116Y463351D01*
X581068Y463296D01*
X581015Y463246D01*
X580857Y463057D01*
X580695Y462873D01*
X580654Y462813D01*
X580607Y462757D01*
X580475Y462549D01*
X580337Y462346D01*
X580304Y462281D01*
X580264Y462220D01*
X580159Y461997D01*
X580047Y461779D01*
X580023Y461710D01*
X579991Y461644D01*
X579914Y461410D01*
X579831Y461179D01*
X579815Y461108D01*
X579792Y461039D01*
X579746Y460797D01*
X579692Y460558D01*
X579685Y460485D01*
X579671Y460413D01*
X579656Y460182D01*
X579631Y459923D01*
X579634Y459840D01*
X579629Y459759D01*
X579629Y404783D01*
X578391Y401795D01*
X576105Y399509D01*
X573117Y398271D01*
X569883Y398271D01*
G37*
%LPD*%
%LPC*%
G36*
X460158Y395731D02*
X460158Y395731D01*
X456237Y397356D01*
X453236Y400357D01*
X451611Y404278D01*
X451611Y404756D01*
X451596Y404992D01*
X451589Y405229D01*
X451576Y405310D01*
X451571Y405392D01*
X451527Y405624D01*
X451490Y405858D01*
X451467Y405937D01*
X451452Y406018D01*
X451379Y406243D01*
X451313Y406470D01*
X451281Y406546D01*
X451255Y406624D01*
X451155Y406838D01*
X451061Y407055D01*
X451019Y407126D01*
X450984Y407200D01*
X450858Y407400D01*
X450737Y407604D01*
X450687Y407669D01*
X450643Y407738D01*
X450492Y407921D01*
X450348Y408108D01*
X450290Y408166D01*
X450238Y408230D01*
X450065Y408392D01*
X449898Y408560D01*
X449833Y408610D01*
X449774Y408666D01*
X449582Y408806D01*
X449395Y408951D01*
X449325Y408993D01*
X449259Y409041D01*
X449051Y409156D01*
X448848Y409277D01*
X448772Y409309D01*
X448701Y409349D01*
X448480Y409436D01*
X448263Y409531D01*
X448185Y409554D01*
X448108Y409584D01*
X447879Y409643D01*
X447652Y409710D01*
X447571Y409723D01*
X447492Y409744D01*
X447256Y409774D01*
X447023Y409811D01*
X446941Y409814D01*
X446860Y409824D01*
X446622Y409825D01*
X446386Y409833D01*
X446304Y409825D01*
X446222Y409826D01*
X445987Y409796D01*
X445752Y409775D01*
X445672Y409757D01*
X445590Y409747D01*
X445360Y409688D01*
X445129Y409638D01*
X445052Y409610D01*
X444973Y409590D01*
X444752Y409503D01*
X444529Y409424D01*
X444456Y409387D01*
X444380Y409357D01*
X444171Y409243D01*
X443961Y409136D01*
X443893Y409090D01*
X443821Y409051D01*
X443629Y408912D01*
X443433Y408780D01*
X443372Y408727D01*
X443304Y408678D01*
X443114Y408500D01*
X442940Y408347D01*
X442720Y408126D01*
X442303Y407848D01*
X441841Y407657D01*
X441350Y407559D01*
X438179Y407559D01*
X438179Y414021D01*
X443711Y414021D01*
X443733Y413907D01*
X443780Y413632D01*
X443792Y413593D01*
X443800Y413553D01*
X443886Y413289D01*
X443967Y413023D01*
X443984Y412986D01*
X443997Y412947D01*
X444115Y412695D01*
X444229Y412442D01*
X444250Y412407D01*
X444268Y412370D01*
X444416Y412135D01*
X444561Y411898D01*
X444587Y411867D01*
X444609Y411832D01*
X444786Y411617D01*
X444959Y411401D01*
X444988Y411372D01*
X445014Y411341D01*
X445217Y411151D01*
X445416Y410957D01*
X445449Y410932D01*
X445478Y410904D01*
X445703Y410741D01*
X445925Y410574D01*
X445960Y410553D01*
X445993Y410529D01*
X446237Y410395D01*
X446478Y410257D01*
X446516Y410241D01*
X446551Y410222D01*
X446810Y410119D01*
X447066Y410012D01*
X447105Y410001D01*
X447144Y409986D01*
X447412Y409917D01*
X447680Y409843D01*
X447721Y409837D01*
X447760Y409827D01*
X448036Y409792D01*
X448311Y409752D01*
X448352Y409751D01*
X448392Y409746D01*
X448671Y409745D01*
X448948Y409740D01*
X448989Y409745D01*
X449030Y409745D01*
X449306Y409779D01*
X449581Y409809D01*
X449621Y409818D01*
X449662Y409823D01*
X449932Y409892D01*
X450201Y409956D01*
X450240Y409970D01*
X450279Y409981D01*
X450538Y410082D01*
X450798Y410180D01*
X450834Y410199D01*
X450872Y410214D01*
X451116Y410347D01*
X451362Y410476D01*
X451395Y410500D01*
X451431Y410519D01*
X451657Y410682D01*
X451884Y410841D01*
X451914Y410869D01*
X451948Y410893D01*
X452151Y411083D01*
X452357Y411269D01*
X452383Y411300D01*
X452413Y411328D01*
X452591Y411542D01*
X452772Y411752D01*
X452794Y411786D01*
X452821Y411817D01*
X452970Y412051D01*
X453123Y412283D01*
X453141Y412319D01*
X453164Y412354D01*
X453179Y412387D01*
X456773Y415981D01*
X456929Y416157D01*
X457090Y416328D01*
X457139Y416396D01*
X457195Y416459D01*
X457327Y416653D01*
X457465Y416843D01*
X457506Y416917D01*
X457553Y416986D01*
X457660Y417196D01*
X457773Y417401D01*
X457804Y417479D01*
X457842Y417553D01*
X457922Y417775D01*
X458009Y417993D01*
X458030Y418074D01*
X458058Y418153D01*
X458110Y418382D01*
X458169Y418610D01*
X458179Y418693D01*
X458198Y418775D01*
X458220Y419009D01*
X458250Y419242D01*
X458250Y419325D01*
X458258Y419409D01*
X458251Y419643D01*
X458252Y419879D01*
X458241Y419962D01*
X458239Y420046D01*
X458202Y420278D01*
X458173Y420511D01*
X458153Y420592D01*
X458140Y420675D01*
X458074Y420901D01*
X458017Y421129D01*
X457986Y421206D01*
X457963Y421287D01*
X457870Y421503D01*
X457784Y421722D01*
X457744Y421795D01*
X457711Y421872D01*
X457591Y422075D01*
X457479Y422281D01*
X457430Y422349D01*
X457387Y422421D01*
X457243Y422607D01*
X457106Y422798D01*
X457049Y422859D01*
X456997Y422925D01*
X456832Y423091D01*
X456671Y423263D01*
X456608Y423316D01*
X456548Y423376D01*
X456344Y423535D01*
X456167Y423682D01*
X455661Y424050D01*
X454530Y425181D01*
X453590Y426475D01*
X453246Y427150D01*
X453206Y427217D01*
X453172Y427289D01*
X453044Y427492D01*
X452921Y427698D01*
X452873Y427760D01*
X452831Y427827D01*
X452678Y428012D01*
X452531Y428202D01*
X452476Y428257D01*
X452426Y428318D01*
X452251Y428483D01*
X452081Y428653D01*
X452019Y428701D01*
X451962Y428755D01*
X451767Y428896D01*
X451577Y429043D01*
X451510Y429083D01*
X451446Y429130D01*
X451236Y429246D01*
X451029Y429368D01*
X450957Y429399D01*
X450889Y429437D01*
X450665Y429526D01*
X450445Y429622D01*
X450369Y429644D01*
X450296Y429673D01*
X450064Y429733D01*
X449833Y429800D01*
X449756Y429812D01*
X449680Y429832D01*
X449441Y429862D01*
X449204Y429900D01*
X449125Y429903D01*
X449048Y429913D01*
X448807Y429913D01*
X448567Y429921D01*
X448489Y429914D01*
X448410Y429914D01*
X448172Y429884D01*
X447933Y429862D01*
X447856Y429845D01*
X447778Y429835D01*
X447545Y429776D01*
X447311Y429724D01*
X447237Y429698D01*
X447161Y429678D01*
X446937Y429590D01*
X446711Y429509D01*
X446641Y429474D01*
X446568Y429445D01*
X446357Y429330D01*
X446143Y429221D01*
X446078Y429177D01*
X446009Y429139D01*
X445814Y428999D01*
X445615Y428864D01*
X445556Y428812D01*
X445492Y428766D01*
X445317Y428602D01*
X445136Y428443D01*
X445084Y428385D01*
X445027Y428331D01*
X444873Y428146D01*
X444714Y427966D01*
X444669Y427902D01*
X444619Y427841D01*
X444490Y427639D01*
X444354Y427440D01*
X444319Y427370D01*
X444276Y427304D01*
X444173Y427087D01*
X444064Y426873D01*
X444037Y426800D01*
X444003Y426729D01*
X443928Y426500D01*
X443846Y426275D01*
X443829Y426198D01*
X443804Y426123D01*
X443759Y425888D01*
X443706Y425653D01*
X443698Y425575D01*
X443683Y425498D01*
X443668Y425271D01*
X443644Y425019D01*
X443646Y424930D01*
X443641Y424844D01*
X443641Y424179D01*
X438179Y424179D01*
X438179Y439421D01*
X443641Y439421D01*
X443641Y438756D01*
X443646Y438678D01*
X443643Y438599D01*
X443666Y438359D01*
X443681Y438120D01*
X443695Y438043D01*
X443703Y437965D01*
X443755Y437730D01*
X443800Y437494D01*
X443824Y437420D01*
X443841Y437343D01*
X443922Y437117D01*
X443997Y436888D01*
X444030Y436817D01*
X444056Y436743D01*
X444165Y436529D01*
X444268Y436311D01*
X444310Y436245D01*
X444345Y436175D01*
X444480Y435977D01*
X444609Y435773D01*
X444659Y435713D01*
X444703Y435648D01*
X444861Y435468D01*
X445014Y435282D01*
X445072Y435228D01*
X445123Y435169D01*
X445303Y435010D01*
X445478Y434845D01*
X445542Y434799D01*
X445601Y434747D01*
X445799Y434612D01*
X445993Y434470D01*
X446062Y434433D01*
X446127Y434388D01*
X446341Y434279D01*
X446551Y434163D01*
X446624Y434134D01*
X446694Y434098D01*
X446920Y434016D01*
X447144Y433927D01*
X447219Y433908D01*
X447293Y433881D01*
X447528Y433828D01*
X447760Y433768D01*
X447838Y433758D01*
X447915Y433741D01*
X448154Y433718D01*
X448392Y433687D01*
X448471Y433687D01*
X448549Y433680D01*
X448789Y433687D01*
X449030Y433686D01*
X449107Y433696D01*
X449186Y433698D01*
X449423Y433735D01*
X449662Y433765D01*
X449738Y433784D01*
X449815Y433796D01*
X450046Y433863D01*
X450279Y433922D01*
X450352Y433951D01*
X450428Y433972D01*
X450648Y434067D01*
X450872Y434155D01*
X450941Y434193D01*
X451013Y434224D01*
X451220Y434345D01*
X451431Y434461D01*
X451495Y434507D01*
X451562Y434546D01*
X451753Y434693D01*
X451948Y434834D01*
X452005Y434887D01*
X452067Y434935D01*
X452238Y435105D01*
X452413Y435269D01*
X452463Y435329D01*
X452519Y435384D01*
X452667Y435574D01*
X452821Y435759D01*
X452863Y435825D01*
X452911Y435887D01*
X453027Y436082D01*
X453164Y436296D01*
X453202Y436376D01*
X453246Y436450D01*
X453590Y437125D01*
X454530Y438419D01*
X455661Y439550D01*
X456955Y440490D01*
X458380Y441216D01*
X459901Y441711D01*
X461480Y441961D01*
X464821Y441961D01*
X464821Y431800D01*
X464830Y431646D01*
X464830Y431491D01*
X464850Y431328D01*
X464861Y431164D01*
X464889Y431013D01*
X464909Y430859D01*
X464949Y430699D01*
X464980Y430539D01*
X465028Y430391D01*
X465066Y430241D01*
X465126Y430089D01*
X465176Y429933D01*
X465242Y429792D01*
X465299Y429648D01*
X465378Y429504D01*
X465447Y429356D01*
X465530Y429225D01*
X465605Y429089D01*
X465701Y428956D01*
X465788Y428818D01*
X465887Y428698D01*
X465978Y428573D01*
X466090Y428453D01*
X466194Y428327D01*
X466195Y428326D01*
X466307Y428220D01*
X466413Y428107D01*
X466539Y428002D01*
X466659Y427889D01*
X466784Y427798D01*
X466903Y427699D01*
X467041Y427611D01*
X467174Y427514D01*
X467309Y427440D01*
X467440Y427356D01*
X467588Y427286D01*
X467732Y427207D01*
X467876Y427150D01*
X468016Y427083D01*
X468172Y427032D01*
X468324Y426971D01*
X468474Y426933D01*
X468621Y426884D01*
X468782Y426853D01*
X468941Y426812D01*
X469094Y426792D01*
X469246Y426763D01*
X469405Y426753D01*
X469573Y426731D01*
X469741Y426731D01*
X469900Y426721D01*
X486336Y426721D01*
X486210Y426475D01*
X485270Y425181D01*
X484139Y424050D01*
X483633Y423682D01*
X483452Y423532D01*
X483266Y423388D01*
X483207Y423329D01*
X483142Y423276D01*
X482981Y423104D01*
X482815Y422939D01*
X482763Y422873D01*
X482706Y422812D01*
X482568Y422622D01*
X482423Y422436D01*
X482380Y422364D01*
X482331Y422296D01*
X482218Y422090D01*
X482098Y421888D01*
X482064Y421812D01*
X482024Y421738D01*
X481937Y421519D01*
X481843Y421304D01*
X481820Y421224D01*
X481789Y421146D01*
X481730Y420918D01*
X481664Y420693D01*
X481651Y420610D01*
X481630Y420529D01*
X481600Y420296D01*
X481563Y420064D01*
X481560Y419980D01*
X481549Y419897D01*
X481549Y419662D01*
X481541Y419427D01*
X481549Y419343D01*
X481549Y419260D01*
X481578Y419026D01*
X481599Y418792D01*
X481617Y418711D01*
X481628Y418627D01*
X481686Y418399D01*
X481737Y418170D01*
X481765Y418092D01*
X481785Y418010D01*
X481872Y417791D01*
X481951Y417570D01*
X481988Y417495D01*
X482019Y417417D01*
X482132Y417211D01*
X482238Y417001D01*
X482285Y416932D01*
X482325Y416859D01*
X482463Y416668D01*
X482594Y416473D01*
X482648Y416412D01*
X482699Y416342D01*
X482875Y416154D01*
X483027Y415981D01*
X486564Y412443D01*
X488189Y408522D01*
X488189Y404278D01*
X486564Y400357D01*
X483563Y397356D01*
X479642Y395731D01*
X460158Y395731D01*
G37*
%LPD*%
%LPC*%
G36*
X74078Y565911D02*
X74078Y565911D01*
X70157Y567536D01*
X66619Y571073D01*
X66443Y571229D01*
X66272Y571390D01*
X66204Y571439D01*
X66141Y571495D01*
X65947Y571627D01*
X65757Y571765D01*
X65683Y571806D01*
X65614Y571853D01*
X65404Y571960D01*
X65199Y572073D01*
X65121Y572104D01*
X65047Y572142D01*
X64825Y572222D01*
X64607Y572309D01*
X64526Y572330D01*
X64447Y572358D01*
X64218Y572410D01*
X63990Y572469D01*
X63907Y572479D01*
X63825Y572498D01*
X63591Y572520D01*
X63358Y572550D01*
X63275Y572550D01*
X63191Y572558D01*
X62957Y572551D01*
X62721Y572552D01*
X62638Y572541D01*
X62554Y572539D01*
X62322Y572502D01*
X62089Y572473D01*
X62008Y572453D01*
X61925Y572440D01*
X61699Y572374D01*
X61471Y572317D01*
X61394Y572286D01*
X61313Y572263D01*
X61097Y572170D01*
X60878Y572084D01*
X60805Y572044D01*
X60728Y572011D01*
X60525Y571891D01*
X60319Y571779D01*
X60251Y571730D01*
X60179Y571687D01*
X59993Y571543D01*
X59802Y571406D01*
X59741Y571349D01*
X59675Y571297D01*
X59509Y571132D01*
X59337Y570971D01*
X59284Y570908D01*
X59224Y570848D01*
X59065Y570644D01*
X58918Y570467D01*
X58550Y569961D01*
X57419Y568830D01*
X56125Y567890D01*
X55879Y567764D01*
X55879Y584200D01*
X55879Y600636D01*
X56125Y600510D01*
X57419Y599570D01*
X58550Y598439D01*
X58918Y597933D01*
X59068Y597752D01*
X59212Y597566D01*
X59271Y597507D01*
X59324Y597442D01*
X59496Y597281D01*
X59661Y597115D01*
X59727Y597063D01*
X59788Y597006D01*
X59978Y596868D01*
X60164Y596723D01*
X60236Y596680D01*
X60304Y596631D01*
X60510Y596518D01*
X60712Y596398D01*
X60788Y596364D01*
X60862Y596324D01*
X61081Y596237D01*
X61296Y596143D01*
X61376Y596120D01*
X61454Y596089D01*
X61682Y596030D01*
X61907Y595964D01*
X61990Y595951D01*
X62071Y595930D01*
X62304Y595900D01*
X62536Y595863D01*
X62620Y595860D01*
X62703Y595849D01*
X62938Y595849D01*
X63173Y595841D01*
X63257Y595849D01*
X63340Y595849D01*
X63573Y595878D01*
X63808Y595899D01*
X63889Y595917D01*
X63973Y595928D01*
X64201Y595986D01*
X64430Y596037D01*
X64508Y596065D01*
X64590Y596085D01*
X64809Y596172D01*
X65030Y596251D01*
X65105Y596288D01*
X65183Y596319D01*
X65389Y596432D01*
X65599Y596538D01*
X65668Y596585D01*
X65741Y596625D01*
X65932Y596763D01*
X66127Y596894D01*
X66188Y596948D01*
X66258Y596999D01*
X66446Y597175D01*
X66619Y597327D01*
X70157Y600864D01*
X74078Y602489D01*
X78322Y602489D01*
X82243Y600864D01*
X85244Y597863D01*
X86869Y593942D01*
X86869Y574458D01*
X85244Y570537D01*
X82243Y567536D01*
X78322Y565911D01*
X74078Y565911D01*
G37*
%LPD*%
%LPC*%
G36*
X561758Y598931D02*
X561758Y598931D01*
X557837Y600556D01*
X554836Y603557D01*
X553211Y607478D01*
X553211Y611722D01*
X554836Y615643D01*
X558373Y619181D01*
X558529Y619357D01*
X558690Y619528D01*
X558739Y619596D01*
X558795Y619659D01*
X558927Y619853D01*
X559065Y620043D01*
X559106Y620117D01*
X559153Y620186D01*
X559260Y620396D01*
X559373Y620601D01*
X559404Y620679D01*
X559442Y620753D01*
X559522Y620975D01*
X559609Y621193D01*
X559630Y621274D01*
X559658Y621353D01*
X559710Y621582D01*
X559769Y621810D01*
X559779Y621893D01*
X559798Y621975D01*
X559820Y622209D01*
X559850Y622442D01*
X559850Y622525D01*
X559858Y622609D01*
X559851Y622843D01*
X559852Y623079D01*
X559841Y623162D01*
X559839Y623246D01*
X559802Y623478D01*
X559773Y623711D01*
X559753Y623792D01*
X559740Y623875D01*
X559674Y624101D01*
X559617Y624329D01*
X559586Y624406D01*
X559563Y624487D01*
X559470Y624703D01*
X559384Y624922D01*
X559344Y624995D01*
X559311Y625072D01*
X559191Y625275D01*
X559079Y625481D01*
X559030Y625549D01*
X558987Y625621D01*
X558843Y625807D01*
X558706Y625998D01*
X558649Y626059D01*
X558597Y626125D01*
X558432Y626291D01*
X558271Y626463D01*
X558208Y626516D01*
X558148Y626576D01*
X557944Y626735D01*
X557767Y626882D01*
X557261Y627250D01*
X556130Y628381D01*
X555190Y629675D01*
X555064Y629921D01*
X571500Y629921D01*
X587936Y629921D01*
X587810Y629675D01*
X586870Y628381D01*
X585739Y627250D01*
X585233Y626882D01*
X585052Y626732D01*
X584866Y626588D01*
X584807Y626529D01*
X584742Y626476D01*
X584581Y626304D01*
X584415Y626139D01*
X584363Y626073D01*
X584306Y626012D01*
X584168Y625822D01*
X584023Y625636D01*
X583980Y625564D01*
X583931Y625496D01*
X583818Y625290D01*
X583698Y625088D01*
X583664Y625012D01*
X583624Y624938D01*
X583537Y624719D01*
X583443Y624504D01*
X583420Y624424D01*
X583389Y624346D01*
X583330Y624118D01*
X583264Y623893D01*
X583251Y623810D01*
X583230Y623729D01*
X583200Y623496D01*
X583163Y623264D01*
X583160Y623180D01*
X583149Y623097D01*
X583149Y622862D01*
X583141Y622627D01*
X583149Y622543D01*
X583149Y622460D01*
X583178Y622227D01*
X583199Y621992D01*
X583217Y621911D01*
X583228Y621827D01*
X583286Y621599D01*
X583337Y621370D01*
X583365Y621292D01*
X583385Y621210D01*
X583472Y620991D01*
X583551Y620770D01*
X583588Y620695D01*
X583619Y620617D01*
X583732Y620411D01*
X583838Y620201D01*
X583885Y620132D01*
X583925Y620059D01*
X584063Y619868D01*
X584194Y619673D01*
X584248Y619612D01*
X584299Y619542D01*
X584475Y619354D01*
X584627Y619181D01*
X588164Y615643D01*
X589789Y611722D01*
X589789Y607478D01*
X588164Y603557D01*
X585163Y600556D01*
X581242Y598931D01*
X561758Y598931D01*
G37*
%LPD*%
%LPC*%
G36*
X517913Y601344D02*
X517913Y601344D01*
X513501Y603172D01*
X510125Y606548D01*
X508298Y610959D01*
X508298Y633641D01*
X510125Y638052D01*
X513501Y641428D01*
X517913Y643256D01*
X522687Y643256D01*
X527099Y641428D01*
X530475Y638052D01*
X532302Y633641D01*
X532302Y610959D01*
X530475Y606548D01*
X527099Y603172D01*
X522687Y601344D01*
X517913Y601344D01*
G37*
%LPD*%
%LPC*%
G36*
X112313Y601344D02*
X112313Y601344D01*
X107901Y603172D01*
X104525Y606548D01*
X102698Y610959D01*
X102698Y633641D01*
X104525Y638052D01*
X107901Y641428D01*
X112313Y643256D01*
X117087Y643256D01*
X121499Y641428D01*
X124875Y638052D01*
X126702Y633641D01*
X126702Y610959D01*
X124875Y606548D01*
X121499Y603172D01*
X117087Y601344D01*
X112313Y601344D01*
G37*
%LPD*%
%LPC*%
G36*
X569226Y560069D02*
X569226Y560069D01*
X565025Y561810D01*
X561810Y565025D01*
X560069Y569226D01*
X560069Y573774D01*
X561810Y577975D01*
X565025Y581190D01*
X569226Y582931D01*
X573774Y582931D01*
X577975Y581190D01*
X581190Y577975D01*
X582931Y573774D01*
X582931Y569226D01*
X581190Y565025D01*
X577975Y561810D01*
X573774Y560069D01*
X569226Y560069D01*
G37*
%LPD*%
%LPC*%
G36*
X188226Y534669D02*
X188226Y534669D01*
X184025Y536410D01*
X180810Y539625D01*
X179069Y543826D01*
X179069Y548374D01*
X180810Y552575D01*
X184025Y555790D01*
X188226Y557531D01*
X192774Y557531D01*
X196975Y555790D01*
X200190Y552575D01*
X201931Y548374D01*
X201931Y543826D01*
X200190Y539625D01*
X196975Y536410D01*
X192774Y534669D01*
X188226Y534669D01*
G37*
%LPD*%
%LPC*%
G36*
X86626Y534669D02*
X86626Y534669D01*
X82425Y536410D01*
X79210Y539625D01*
X77469Y543826D01*
X77469Y548374D01*
X79210Y552575D01*
X82425Y555790D01*
X86626Y557531D01*
X91174Y557531D01*
X95375Y555790D01*
X98590Y552575D01*
X100331Y548374D01*
X100331Y543826D01*
X98590Y539625D01*
X95375Y536410D01*
X91174Y534669D01*
X86626Y534669D01*
G37*
%LPD*%
%LPC*%
G36*
X389702Y612647D02*
X389702Y612647D01*
X383996Y618353D01*
X383820Y618508D01*
X383649Y618669D01*
X383581Y618719D01*
X383518Y618774D01*
X383324Y618906D01*
X383134Y619045D01*
X383061Y619085D01*
X382991Y619132D01*
X382782Y619239D01*
X382576Y619353D01*
X382498Y619384D01*
X382424Y619422D01*
X382203Y619501D01*
X381985Y619589D01*
X381903Y619610D01*
X381824Y619638D01*
X381595Y619689D01*
X381368Y619748D01*
X381285Y619759D01*
X381203Y619777D01*
X380969Y619800D01*
X380736Y619830D01*
X380652Y619830D01*
X380569Y619838D01*
X380334Y619831D01*
X380099Y619831D01*
X380015Y619821D01*
X379932Y619818D01*
X379699Y619782D01*
X379466Y619753D01*
X379385Y619732D01*
X379302Y619719D01*
X379077Y619654D01*
X378849Y619596D01*
X378771Y619566D01*
X378690Y619542D01*
X378475Y619449D01*
X378256Y619364D01*
X378182Y619323D01*
X378105Y619290D01*
X377903Y619171D01*
X377697Y619058D01*
X377629Y619009D01*
X377556Y618967D01*
X377370Y618823D01*
X377180Y618686D01*
X377119Y618628D01*
X377052Y618577D01*
X376886Y618411D01*
X376714Y618251D01*
X376661Y618187D01*
X376601Y618127D01*
X376443Y617924D01*
X376295Y617747D01*
X375275Y616343D01*
X374257Y615325D01*
X373701Y614921D01*
X373701Y614920D01*
X373379Y614687D01*
X373379Y622300D01*
X373379Y629913D01*
X374257Y629275D01*
X375275Y628257D01*
X376295Y626853D01*
X376445Y626672D01*
X376589Y626486D01*
X376648Y626427D01*
X376702Y626362D01*
X376873Y626202D01*
X377039Y626035D01*
X377105Y625983D01*
X377166Y625926D01*
X377356Y625788D01*
X377541Y625643D01*
X377613Y625601D01*
X377681Y625551D01*
X377887Y625438D01*
X378089Y625318D01*
X378166Y625285D01*
X378239Y625244D01*
X378458Y625158D01*
X378673Y625064D01*
X378754Y625040D01*
X378832Y625009D01*
X379059Y624951D01*
X379285Y624885D01*
X379367Y624871D01*
X379449Y624850D01*
X379682Y624821D01*
X379914Y624783D01*
X379997Y624780D01*
X380081Y624770D01*
X380316Y624770D01*
X380550Y624762D01*
X380634Y624769D01*
X380718Y624769D01*
X380951Y624798D01*
X381185Y624820D01*
X381267Y624838D01*
X381350Y624848D01*
X381578Y624906D01*
X381807Y624957D01*
X381886Y624985D01*
X381967Y625006D01*
X382186Y625092D01*
X382407Y625171D01*
X382482Y625209D01*
X382560Y625240D01*
X382766Y625352D01*
X382976Y625458D01*
X383045Y625505D01*
X383119Y625546D01*
X383309Y625683D01*
X383504Y625815D01*
X383566Y625869D01*
X383635Y625919D01*
X383823Y626095D01*
X383996Y626247D01*
X389702Y631953D01*
X397698Y631953D01*
X403353Y626298D01*
X403353Y618302D01*
X397698Y612647D01*
X389702Y612647D01*
G37*
%LPD*%
%LPC*%
G36*
X226680Y599947D02*
X226680Y599947D01*
X223132Y601417D01*
X220417Y604132D01*
X218947Y607680D01*
X218947Y611520D01*
X220417Y615068D01*
X223151Y617802D01*
X223181Y617817D01*
X223361Y617894D01*
X223467Y617957D01*
X223577Y618011D01*
X223741Y618118D01*
X223910Y618218D01*
X224007Y618293D01*
X224110Y618360D01*
X224259Y618487D01*
X224414Y618607D01*
X224501Y618694D01*
X224594Y618774D01*
X224726Y618918D01*
X224865Y619057D01*
X224941Y619154D01*
X225023Y619245D01*
X225136Y619405D01*
X225256Y619560D01*
X225319Y619666D01*
X225390Y619766D01*
X225482Y619939D01*
X225582Y620108D01*
X225631Y620220D01*
X225689Y620329D01*
X225758Y620512D01*
X225836Y620692D01*
X225871Y620810D01*
X225914Y620925D01*
X225960Y621115D01*
X226015Y621303D01*
X226035Y621424D01*
X226064Y621544D01*
X226086Y621739D01*
X226117Y621932D01*
X226121Y622055D01*
X226134Y622177D01*
X226132Y622373D01*
X226138Y622569D01*
X226127Y622691D01*
X226125Y622814D01*
X226098Y623008D01*
X226080Y623203D01*
X226054Y623324D01*
X226036Y623445D01*
X225985Y623634D01*
X225943Y623826D01*
X225902Y623941D01*
X225869Y624060D01*
X225795Y624241D01*
X225729Y624426D01*
X225673Y624535D01*
X225627Y624649D01*
X225530Y624820D01*
X225442Y624994D01*
X225373Y625096D01*
X225312Y625203D01*
X225195Y625360D01*
X225085Y625522D01*
X225006Y625613D01*
X224931Y625714D01*
X224783Y625867D01*
X224653Y626015D01*
X220747Y629921D01*
X228600Y629921D01*
X236453Y629921D01*
X232547Y626015D01*
X232418Y625868D01*
X232281Y625727D01*
X232207Y625629D01*
X232126Y625537D01*
X232016Y625375D01*
X231898Y625218D01*
X231837Y625112D01*
X231768Y625010D01*
X231679Y624835D01*
X231581Y624665D01*
X231534Y624552D01*
X231478Y624442D01*
X231412Y624258D01*
X231336Y624077D01*
X231304Y623959D01*
X231262Y623843D01*
X231219Y623652D01*
X231167Y623463D01*
X231150Y623341D01*
X231123Y623221D01*
X231104Y623026D01*
X231076Y622832D01*
X231074Y622709D01*
X231062Y622587D01*
X231068Y622392D01*
X231065Y622195D01*
X231078Y622073D01*
X231082Y621950D01*
X231112Y621757D01*
X231133Y621562D01*
X231162Y621442D01*
X231181Y621321D01*
X231235Y621132D01*
X231280Y620942D01*
X231323Y620827D01*
X231358Y620709D01*
X231435Y620529D01*
X231504Y620346D01*
X231561Y620237D01*
X231610Y620124D01*
X231709Y619955D01*
X231800Y619782D01*
X231871Y619681D01*
X231933Y619575D01*
X232053Y619420D01*
X232165Y619259D01*
X232248Y619168D01*
X232323Y619071D01*
X232461Y618932D01*
X232593Y618787D01*
X232686Y618707D01*
X232773Y618619D01*
X232927Y618499D01*
X233076Y618371D01*
X233178Y618303D01*
X233275Y618228D01*
X233444Y618128D01*
X233607Y618020D01*
X233715Y617967D01*
X233823Y617902D01*
X234018Y617817D01*
X234048Y617803D01*
X236783Y615068D01*
X238253Y611520D01*
X238253Y607680D01*
X236783Y604132D01*
X234068Y601417D01*
X230520Y599947D01*
X226680Y599947D01*
G37*
%LPD*%
%LPC*%
G36*
X169779Y627379D02*
X169779Y627379D01*
X169779Y641591D01*
X169795Y641584D01*
X171100Y640831D01*
X172295Y639914D01*
X173360Y638849D01*
X174278Y637653D01*
X175031Y636348D01*
X175608Y634956D01*
X175998Y633501D01*
X176194Y632007D01*
X176194Y627379D01*
X169779Y627379D01*
G37*
%LPD*%
%LPC*%
G36*
X475379Y627379D02*
X475379Y627379D01*
X475379Y641591D01*
X475395Y641584D01*
X476700Y640831D01*
X477895Y639914D01*
X478960Y638849D01*
X479878Y637653D01*
X480631Y636348D01*
X481208Y634956D01*
X481598Y633501D01*
X481794Y632007D01*
X481794Y627379D01*
X475379Y627379D01*
G37*
%LPD*%
%LPC*%
G36*
X475379Y617221D02*
X475379Y617221D01*
X481794Y617221D01*
X481794Y612593D01*
X481598Y611099D01*
X481208Y609644D01*
X480631Y608252D01*
X479878Y606947D01*
X478960Y605751D01*
X477895Y604686D01*
X476700Y603769D01*
X475395Y603016D01*
X475379Y603009D01*
X475379Y617221D01*
G37*
%LPD*%
%LPC*%
G36*
X169779Y617221D02*
X169779Y617221D01*
X176194Y617221D01*
X176194Y612593D01*
X175998Y611099D01*
X175608Y609644D01*
X175031Y608252D01*
X174278Y606947D01*
X173360Y605751D01*
X172295Y604686D01*
X171100Y603769D01*
X169795Y603016D01*
X169779Y603009D01*
X169779Y617221D01*
G37*
%LPD*%
%LPC*%
G36*
X153206Y627379D02*
X153206Y627379D01*
X153206Y632007D01*
X153402Y633501D01*
X153792Y634956D01*
X154369Y636348D01*
X155122Y637653D01*
X156040Y638849D01*
X157105Y639914D01*
X158300Y640831D01*
X159605Y641584D01*
X159621Y641591D01*
X159621Y627379D01*
X153206Y627379D01*
G37*
%LPD*%
%LPC*%
G36*
X458806Y627379D02*
X458806Y627379D01*
X458806Y632007D01*
X459002Y633501D01*
X459392Y634956D01*
X459969Y636348D01*
X460722Y637653D01*
X461640Y638849D01*
X462705Y639914D01*
X463900Y640831D01*
X465205Y641584D01*
X465221Y641591D01*
X465221Y627379D01*
X458806Y627379D01*
G37*
%LPD*%
%LPC*%
G36*
X159605Y603016D02*
X159605Y603016D01*
X158300Y603769D01*
X157105Y604686D01*
X156040Y605751D01*
X155122Y606947D01*
X154369Y608252D01*
X153792Y609644D01*
X153402Y611099D01*
X153206Y612593D01*
X153206Y617221D01*
X159621Y617221D01*
X159621Y603009D01*
X159605Y603016D01*
G37*
%LPD*%
%LPC*%
G36*
X465205Y603016D02*
X465205Y603016D01*
X463900Y603769D01*
X462705Y604686D01*
X461640Y605751D01*
X460722Y606947D01*
X459969Y608252D01*
X459392Y609644D01*
X459002Y611099D01*
X458806Y612593D01*
X458806Y617221D01*
X465221Y617221D01*
X465221Y603009D01*
X465205Y603016D01*
G37*
%LPD*%
%LPC*%
G36*
X599259Y464629D02*
X599259Y464629D01*
X599259Y466050D01*
X599357Y466541D01*
X599548Y467003D01*
X599827Y467420D01*
X600180Y467773D01*
X600597Y468052D01*
X601059Y468243D01*
X601550Y468341D01*
X617221Y468341D01*
X617221Y464629D01*
X599259Y464629D01*
G37*
%LPD*%
%LPC*%
G36*
X599259Y409129D02*
X599259Y409129D01*
X599259Y410550D01*
X599357Y411041D01*
X599548Y411503D01*
X599827Y411920D01*
X600180Y412273D01*
X600597Y412552D01*
X601059Y412743D01*
X601550Y412841D01*
X617221Y412841D01*
X617221Y409129D01*
X599259Y409129D01*
G37*
%LPD*%
%LPC*%
G36*
X601550Y450759D02*
X601550Y450759D01*
X601059Y450857D01*
X600597Y451048D01*
X600180Y451327D01*
X599827Y451680D01*
X599548Y452097D01*
X599357Y452559D01*
X599259Y453050D01*
X599259Y454471D01*
X617221Y454471D01*
X617221Y450759D01*
X601550Y450759D01*
G37*
%LPD*%
%LPC*%
G36*
X601550Y395259D02*
X601550Y395259D01*
X601059Y395357D01*
X600597Y395548D01*
X600180Y395827D01*
X599827Y396180D01*
X599548Y396597D01*
X599357Y397059D01*
X599259Y397550D01*
X599259Y398971D01*
X617221Y398971D01*
X617221Y395259D01*
X601550Y395259D01*
G37*
%LPD*%
%LPC*%
G36*
X474979Y436879D02*
X474979Y436879D01*
X474979Y441961D01*
X478320Y441961D01*
X479899Y441711D01*
X481420Y441216D01*
X482845Y440490D01*
X484139Y439550D01*
X485270Y438419D01*
X486210Y437125D01*
X486336Y436879D01*
X474979Y436879D01*
G37*
%LPD*%
%LPC*%
G36*
X576579Y640079D02*
X576579Y640079D01*
X576579Y645161D01*
X579920Y645161D01*
X581499Y644911D01*
X583020Y644416D01*
X584445Y643690D01*
X585739Y642750D01*
X586870Y641619D01*
X587810Y640325D01*
X587936Y640079D01*
X576579Y640079D01*
G37*
%LPD*%
%LPC*%
G36*
X555064Y640079D02*
X555064Y640079D01*
X555190Y640325D01*
X556130Y641619D01*
X557261Y642750D01*
X558555Y643690D01*
X559980Y644416D01*
X561501Y644911D01*
X563080Y645161D01*
X566421Y645161D01*
X566421Y640079D01*
X555064Y640079D01*
G37*
%LPD*%
%LPC*%
G36*
X40639Y589279D02*
X40639Y589279D01*
X40639Y592620D01*
X40889Y594199D01*
X41384Y595720D01*
X42110Y597145D01*
X43050Y598439D01*
X44181Y599570D01*
X45475Y600510D01*
X45721Y600636D01*
X45721Y589279D01*
X40639Y589279D01*
G37*
%LPD*%
%LPC*%
G36*
X45475Y567890D02*
X45475Y567890D01*
X44181Y568830D01*
X43050Y569961D01*
X42110Y571255D01*
X41384Y572680D01*
X40889Y574201D01*
X40639Y575780D01*
X40639Y579121D01*
X45721Y579121D01*
X45721Y567764D01*
X45475Y567890D01*
G37*
%LPD*%
%LPC*%
G36*
X438179Y449579D02*
X438179Y449579D01*
X438179Y456041D01*
X441350Y456041D01*
X441841Y455943D01*
X442303Y455752D01*
X442720Y455473D01*
X443073Y455120D01*
X443352Y454703D01*
X443543Y454241D01*
X443641Y453750D01*
X443641Y449579D01*
X438179Y449579D01*
G37*
%LPD*%
%LPC*%
G36*
X328929Y406429D02*
X328929Y406429D01*
X328929Y411891D01*
X333100Y411891D01*
X333591Y411793D01*
X334053Y411602D01*
X334470Y411323D01*
X334823Y410970D01*
X335102Y410553D01*
X335293Y410091D01*
X335391Y409600D01*
X335391Y406429D01*
X328929Y406429D01*
G37*
%LPD*%
%LPC*%
G36*
X322579Y305659D02*
X322579Y305659D01*
X322579Y311121D01*
X329041Y311121D01*
X329041Y307950D01*
X328943Y307459D01*
X328752Y306997D01*
X328473Y306580D01*
X328120Y306227D01*
X327703Y305948D01*
X327241Y305757D01*
X326750Y305659D01*
X322579Y305659D01*
G37*
%LPD*%
%LPC*%
G36*
X308250Y305659D02*
X308250Y305659D01*
X307759Y305757D01*
X307297Y305948D01*
X306880Y306227D01*
X306527Y306580D01*
X306248Y306997D01*
X306057Y307459D01*
X305959Y307950D01*
X305959Y311121D01*
X312421Y311121D01*
X312421Y305659D01*
X308250Y305659D01*
G37*
%LPD*%
%LPC*%
G36*
X386079Y363221D02*
X386079Y363221D01*
X388927Y363221D01*
X388169Y362177D01*
X387123Y361131D01*
X386885Y360958D01*
X386079Y360373D01*
X386079Y363221D01*
G37*
%LPD*%
%LPC*%
G36*
X374877Y361131D02*
X374877Y361131D01*
X373831Y362177D01*
X373073Y363221D01*
X375921Y363221D01*
X375921Y360373D01*
X374877Y361131D01*
G37*
%LPD*%
%LPC*%
G36*
X233679Y640079D02*
X233679Y640079D01*
X233679Y642853D01*
X236453Y640079D01*
X233679Y640079D01*
G37*
%LPD*%
%LPC*%
G36*
X220747Y640079D02*
X220747Y640079D01*
X223521Y642853D01*
X223521Y640079D01*
X220747Y640079D01*
G37*
%LPD*%
%LPC*%
G36*
X360687Y627379D02*
X360687Y627379D01*
X361325Y628257D01*
X362343Y629275D01*
X363221Y629913D01*
X363221Y627379D01*
X360687Y627379D01*
G37*
%LPD*%
%LPC*%
G36*
X362343Y615325D02*
X362343Y615325D01*
X361325Y616343D01*
X360687Y617221D01*
X363221Y617221D01*
X363221Y614687D01*
X362343Y615325D01*
G37*
%LPD*%
D10*
X164700Y631254D02*
X164700Y613347D01*
X114700Y613347D02*
X114700Y631254D01*
X520300Y631254D02*
X520300Y613347D01*
X470300Y613347D02*
X470300Y631254D01*
D11*
X228600Y635000D03*
D12*
X228600Y609600D03*
D13*
X393700Y622300D03*
D12*
X368300Y622300D03*
D14*
X323850Y373350D03*
X323850Y401350D03*
X317500Y344200D03*
X317500Y316200D03*
D15*
X405100Y419100D03*
X433100Y419100D03*
D16*
X88900Y546100D03*
X190500Y546100D03*
X571500Y469900D03*
X571500Y571500D03*
D17*
X50800Y576580D02*
X50800Y591820D01*
X76200Y591820D02*
X76200Y576580D01*
X563880Y609600D02*
X579120Y609600D01*
X579120Y635000D02*
X563880Y635000D01*
D18*
X304800Y444500D03*
D19*
X304800Y419100D03*
X304800Y393700D03*
X304800Y368300D03*
X381000Y368300D03*
X381000Y393700D03*
X381000Y419100D03*
X381000Y444500D03*
D17*
X52070Y381000D02*
X36830Y381000D01*
X36830Y406400D02*
X52070Y406400D01*
X462280Y406400D02*
X477520Y406400D01*
X477520Y431800D02*
X462280Y431800D01*
X464820Y533400D02*
X449580Y533400D01*
X449580Y508000D02*
X464820Y508000D01*
X355600Y337820D02*
X355600Y322580D01*
X381000Y322580D02*
X381000Y337820D01*
D20*
X622300Y404050D03*
X622300Y459550D03*
D15*
X405100Y444500D03*
X433100Y444500D03*
D21*
X88900Y279400D03*
X171450Y292100D03*
X76200Y342900D03*
X88900Y241300D03*
X209550Y292100D03*
X336550Y292100D03*
X292100Y342900D03*
X254000Y323850D03*
X152400Y438150D03*
X76200Y393700D03*
X101600Y431800D03*
X63500Y469900D03*
X254000Y495300D03*
X203200Y495300D03*
X431800Y546100D03*
X431800Y495300D03*
X419100Y355600D03*
X342900Y368300D03*
X622300Y381000D03*
X622300Y482600D03*
X546100Y444500D03*
X584200Y444500D03*
X533400Y406400D03*
X584200Y381000D03*
X508000Y406400D03*
X508000Y444500D03*
X571500Y508000D03*
X609600Y635000D03*
X406400Y266700D03*
X292100Y292100D03*
X292100Y317500D03*
X254000Y292100D03*
X184150Y361950D03*
X152400Y393700D03*
X127000Y393700D03*
X139700Y342900D03*
X101600Y520700D03*
X139700Y520700D03*
X304800Y241300D03*
X279400Y241300D03*
X355600Y571500D03*
X355600Y546100D03*
X355600Y495300D03*
X342900Y444500D03*
X254000Y438150D03*
D22*
X571500Y469900D02*
X571500Y406400D01*
D21*
X571500Y406400D03*
D22*
X382300Y328900D02*
X381000Y330200D01*
D23*
X381000Y419100D02*
X405100Y419100D01*
X405100Y444500D01*
X309850Y373350D02*
X304800Y368300D01*
X309850Y373350D02*
X323850Y373350D01*
X317500Y355600D02*
X304800Y368300D01*
X317500Y355600D02*
X317500Y344200D01*
M02*
