G04 EAGLE Gerber RS-274X export*
G75*
%MOMM*%
%FSLAX34Y34*%
%LPD*%
%INBottom Copper*%
%IPPOS*%
%AMOC8*
5,1,8,0,0,1.08239X$1,22.5*%
G01*
%ADD10C,1.790700*%
%ADD11P,1.429621X8X112.500000*%
%ADD12C,1.320800*%
%ADD13P,1.429621X8X22.500000*%
%ADD14C,1.676400*%
%ADD15C,1.524000*%
%ADD16R,1.371600X1.371600*%
%ADD17C,1.371600*%
%ADD18R,4.100000X1.250000*%
%ADD19C,0.756400*%
%ADD20C,1.016000*%

G36*
X525837Y194327D02*
X525837Y194327D01*
X526101Y194338D01*
X526155Y194347D01*
X526209Y194351D01*
X526468Y194400D01*
X526729Y194444D01*
X526781Y194460D01*
X526835Y194470D01*
X527086Y194552D01*
X527339Y194628D01*
X527389Y194650D01*
X527441Y194667D01*
X527681Y194779D01*
X527921Y194886D01*
X527968Y194914D01*
X528018Y194938D01*
X528241Y195079D01*
X528467Y195215D01*
X528510Y195249D01*
X528556Y195279D01*
X528760Y195447D01*
X528967Y195611D01*
X529005Y195650D01*
X529047Y195684D01*
X529228Y195877D01*
X529413Y196065D01*
X529446Y196109D01*
X529484Y196148D01*
X529639Y196362D01*
X529799Y196572D01*
X529827Y196619D01*
X529859Y196663D01*
X529986Y196894D01*
X530119Y197123D01*
X530140Y197174D01*
X530166Y197221D01*
X530264Y197467D01*
X530367Y197710D01*
X530381Y197763D01*
X530402Y197814D01*
X530468Y198069D01*
X530539Y198323D01*
X530547Y198378D01*
X530561Y198430D01*
X530595Y198692D01*
X530634Y198953D01*
X530635Y199008D01*
X530642Y199062D01*
X530642Y199327D01*
X530649Y199590D01*
X530643Y199645D01*
X530643Y199700D01*
X530610Y199962D01*
X530584Y200224D01*
X530571Y200277D01*
X530564Y200332D01*
X530499Y200588D01*
X530440Y200845D01*
X530421Y200896D01*
X530407Y200949D01*
X530311Y201195D01*
X530219Y201443D01*
X530194Y201491D01*
X530174Y201542D01*
X530047Y201774D01*
X529926Y202008D01*
X529895Y202053D01*
X529868Y202101D01*
X529714Y202315D01*
X529564Y202532D01*
X529527Y202573D01*
X529495Y202618D01*
X529315Y202811D01*
X529139Y203007D01*
X529098Y203043D01*
X529060Y203083D01*
X528857Y203252D01*
X528658Y203425D01*
X528613Y203455D01*
X528571Y203491D01*
X528320Y203651D01*
X528113Y203789D01*
X522984Y206750D01*
X517900Y211834D01*
X514305Y218060D01*
X512444Y225005D01*
X512444Y232195D01*
X514305Y239140D01*
X517900Y245366D01*
X522984Y250450D01*
X529210Y254045D01*
X536155Y255906D01*
X543345Y255906D01*
X550290Y254045D01*
X556516Y250450D01*
X561600Y245366D01*
X565195Y239140D01*
X567056Y232195D01*
X567056Y225005D01*
X565195Y218060D01*
X561600Y211834D01*
X556516Y206750D01*
X551387Y203789D01*
X551167Y203643D01*
X550944Y203501D01*
X550902Y203466D01*
X550856Y203436D01*
X550656Y203264D01*
X550453Y203096D01*
X550415Y203056D01*
X550374Y203020D01*
X550197Y202823D01*
X550016Y202632D01*
X549984Y202587D01*
X549947Y202547D01*
X549797Y202330D01*
X549641Y202116D01*
X549615Y202069D01*
X549584Y202024D01*
X549461Y201790D01*
X549334Y201559D01*
X549313Y201508D01*
X549288Y201459D01*
X549196Y201212D01*
X549098Y200966D01*
X549085Y200913D01*
X549066Y200862D01*
X549005Y200605D01*
X548939Y200350D01*
X548932Y200295D01*
X548919Y200242D01*
X548891Y199979D01*
X548858Y199718D01*
X548858Y199663D01*
X548852Y199609D01*
X548857Y199345D01*
X548857Y199080D01*
X548864Y199026D01*
X548865Y198971D01*
X548903Y198711D01*
X548936Y198448D01*
X548949Y198395D01*
X548957Y198341D01*
X549027Y198087D01*
X549093Y197831D01*
X549113Y197780D01*
X549127Y197727D01*
X549229Y197484D01*
X549326Y197238D01*
X549352Y197190D01*
X549373Y197139D01*
X549504Y196911D01*
X549632Y196679D01*
X549664Y196634D01*
X549691Y196587D01*
X549850Y196377D01*
X550005Y196162D01*
X550042Y196122D01*
X550075Y196079D01*
X550259Y195890D01*
X550440Y195697D01*
X550482Y195662D01*
X550520Y195623D01*
X550727Y195458D01*
X550929Y195289D01*
X550975Y195260D01*
X551018Y195226D01*
X551244Y195088D01*
X551466Y194946D01*
X551516Y194923D01*
X551563Y194894D01*
X551803Y194787D01*
X552042Y194673D01*
X552094Y194656D01*
X552144Y194634D01*
X552396Y194557D01*
X552647Y194474D01*
X552701Y194464D01*
X552753Y194448D01*
X553013Y194403D01*
X553273Y194353D01*
X553327Y194350D01*
X553381Y194340D01*
X553678Y194327D01*
X553927Y194311D01*
X601773Y194311D01*
X602037Y194327D01*
X602301Y194338D01*
X602355Y194347D01*
X602409Y194351D01*
X602668Y194400D01*
X602929Y194444D01*
X602981Y194460D01*
X603035Y194470D01*
X603286Y194552D01*
X603539Y194628D01*
X603589Y194650D01*
X603641Y194667D01*
X603881Y194779D01*
X604121Y194886D01*
X604168Y194914D01*
X604218Y194938D01*
X604441Y195079D01*
X604667Y195215D01*
X604710Y195249D01*
X604756Y195279D01*
X604960Y195447D01*
X605167Y195611D01*
X605205Y195650D01*
X605247Y195684D01*
X605428Y195877D01*
X605613Y196065D01*
X605646Y196109D01*
X605684Y196148D01*
X605839Y196362D01*
X605999Y196572D01*
X606027Y196619D01*
X606059Y196663D01*
X606186Y196894D01*
X606319Y197123D01*
X606340Y197174D01*
X606366Y197221D01*
X606464Y197467D01*
X606567Y197710D01*
X606581Y197763D01*
X606602Y197814D01*
X606668Y198069D01*
X606739Y198323D01*
X606747Y198378D01*
X606761Y198430D01*
X606795Y198692D01*
X606834Y198953D01*
X606835Y199008D01*
X606842Y199062D01*
X606842Y199327D01*
X606849Y199590D01*
X606843Y199645D01*
X606843Y199700D01*
X606810Y199962D01*
X606784Y200224D01*
X606771Y200277D01*
X606764Y200332D01*
X606699Y200588D01*
X606640Y200845D01*
X606621Y200896D01*
X606607Y200949D01*
X606511Y201195D01*
X606419Y201443D01*
X606394Y201491D01*
X606374Y201542D01*
X606247Y201774D01*
X606126Y202008D01*
X606095Y202053D01*
X606068Y202101D01*
X605914Y202315D01*
X605764Y202532D01*
X605727Y202573D01*
X605695Y202618D01*
X605515Y202811D01*
X605339Y203007D01*
X605298Y203043D01*
X605260Y203083D01*
X605057Y203252D01*
X604858Y203425D01*
X604813Y203455D01*
X604771Y203491D01*
X604520Y203651D01*
X604313Y203789D01*
X599184Y206750D01*
X594100Y211834D01*
X590505Y218060D01*
X588644Y225005D01*
X588644Y232195D01*
X590505Y239140D01*
X594100Y245366D01*
X599184Y250450D01*
X605410Y254045D01*
X612355Y255906D01*
X619545Y255906D01*
X626490Y254045D01*
X632716Y250450D01*
X637800Y245366D01*
X641395Y239140D01*
X643256Y232195D01*
X643256Y225005D01*
X641395Y218060D01*
X637800Y211834D01*
X632716Y206750D01*
X627587Y203789D01*
X627367Y203643D01*
X627144Y203501D01*
X627102Y203466D01*
X627056Y203436D01*
X626856Y203264D01*
X626653Y203096D01*
X626615Y203056D01*
X626574Y203020D01*
X626397Y202823D01*
X626216Y202632D01*
X626184Y202587D01*
X626147Y202547D01*
X625997Y202330D01*
X625841Y202116D01*
X625815Y202069D01*
X625784Y202024D01*
X625661Y201790D01*
X625534Y201559D01*
X625513Y201508D01*
X625488Y201459D01*
X625396Y201212D01*
X625298Y200966D01*
X625285Y200913D01*
X625266Y200862D01*
X625205Y200605D01*
X625139Y200350D01*
X625132Y200295D01*
X625119Y200242D01*
X625091Y199979D01*
X625058Y199718D01*
X625058Y199663D01*
X625052Y199609D01*
X625057Y199345D01*
X625057Y199080D01*
X625064Y199026D01*
X625065Y198971D01*
X625103Y198711D01*
X625136Y198448D01*
X625149Y198395D01*
X625157Y198341D01*
X625227Y198087D01*
X625293Y197831D01*
X625313Y197780D01*
X625327Y197727D01*
X625429Y197484D01*
X625526Y197238D01*
X625552Y197190D01*
X625573Y197139D01*
X625704Y196911D01*
X625832Y196679D01*
X625864Y196634D01*
X625891Y196587D01*
X626050Y196377D01*
X626205Y196162D01*
X626242Y196122D01*
X626275Y196079D01*
X626459Y195890D01*
X626640Y195697D01*
X626682Y195662D01*
X626720Y195623D01*
X626927Y195458D01*
X627129Y195289D01*
X627175Y195260D01*
X627218Y195226D01*
X627444Y195088D01*
X627666Y194946D01*
X627716Y194923D01*
X627763Y194894D01*
X628003Y194787D01*
X628242Y194673D01*
X628294Y194656D01*
X628344Y194634D01*
X628596Y194557D01*
X628847Y194474D01*
X628901Y194464D01*
X628953Y194448D01*
X629213Y194403D01*
X629473Y194353D01*
X629527Y194350D01*
X629581Y194340D01*
X629878Y194327D01*
X630127Y194311D01*
X651135Y194311D01*
X651318Y194322D01*
X651502Y194324D01*
X651636Y194342D01*
X651771Y194351D01*
X651951Y194385D01*
X652134Y194410D01*
X652264Y194445D01*
X652397Y194470D01*
X652571Y194527D01*
X652749Y194574D01*
X652874Y194625D01*
X653003Y194667D01*
X653169Y194745D01*
X653339Y194814D01*
X653457Y194880D01*
X653579Y194938D01*
X653735Y195036D01*
X653895Y195126D01*
X654003Y195206D01*
X654117Y195279D01*
X654259Y195396D01*
X654407Y195505D01*
X654505Y195598D01*
X654609Y195684D01*
X654735Y195818D01*
X654868Y195945D01*
X654953Y196050D01*
X655045Y196148D01*
X655154Y196297D01*
X655269Y196440D01*
X655341Y196554D01*
X655420Y196663D01*
X655509Y196824D01*
X655606Y196981D01*
X655663Y197103D01*
X655728Y197221D01*
X655796Y197392D01*
X655873Y197559D01*
X655913Y197688D01*
X655963Y197814D01*
X656009Y197991D01*
X656065Y198167D01*
X656089Y198300D01*
X656123Y198430D01*
X656146Y198613D01*
X656179Y198794D01*
X656186Y198925D01*
X656204Y199062D01*
X656204Y199262D01*
X656214Y199448D01*
X653998Y393300D01*
X653993Y393369D01*
X653994Y393438D01*
X653969Y393686D01*
X653951Y393935D01*
X653937Y394003D01*
X653930Y394072D01*
X653874Y394315D01*
X653824Y394560D01*
X653802Y394625D01*
X653787Y394692D01*
X653701Y394926D01*
X653621Y395164D01*
X653590Y395226D01*
X653567Y395290D01*
X653452Y395512D01*
X653343Y395737D01*
X653305Y395795D01*
X653274Y395856D01*
X653132Y396062D01*
X652996Y396271D01*
X652951Y396324D01*
X652912Y396381D01*
X652746Y396567D01*
X652585Y396758D01*
X652534Y396804D01*
X652488Y396856D01*
X652299Y397020D01*
X652116Y397189D01*
X652059Y397229D01*
X652007Y397274D01*
X651800Y397414D01*
X651596Y397558D01*
X651535Y397591D01*
X651478Y397629D01*
X651255Y397741D01*
X651035Y397860D01*
X650970Y397884D01*
X650909Y397915D01*
X650674Y397998D01*
X650440Y398088D01*
X650373Y398105D01*
X650308Y398128D01*
X650064Y398181D01*
X649821Y398240D01*
X649753Y398248D01*
X649686Y398263D01*
X649437Y398285D01*
X649189Y398314D01*
X649120Y398313D01*
X649051Y398319D01*
X648801Y398310D01*
X648551Y398308D01*
X648483Y398299D01*
X648414Y398296D01*
X648168Y398256D01*
X647920Y398222D01*
X647853Y398204D01*
X647785Y398193D01*
X647546Y398122D01*
X647305Y398058D01*
X647241Y398032D01*
X647175Y398012D01*
X646946Y397912D01*
X646714Y397818D01*
X646654Y397784D01*
X646591Y397756D01*
X646377Y397628D01*
X646159Y397506D01*
X646103Y397465D01*
X646044Y397429D01*
X645847Y397275D01*
X645647Y397127D01*
X645597Y397079D01*
X645543Y397037D01*
X645366Y396859D01*
X645186Y396687D01*
X645143Y396633D01*
X645094Y396584D01*
X644951Y396398D01*
X644784Y396192D01*
X644783Y396189D01*
X644420Y395827D01*
X644003Y395548D01*
X643541Y395357D01*
X643050Y395259D01*
X627379Y395259D01*
X627379Y404050D01*
X627379Y412841D01*
X643050Y412841D01*
X643541Y412743D01*
X644003Y412552D01*
X644420Y412274D01*
X645076Y411617D01*
X645276Y411441D01*
X645471Y411261D01*
X645514Y411231D01*
X645554Y411196D01*
X645774Y411046D01*
X645990Y410892D01*
X646037Y410867D01*
X646081Y410837D01*
X646318Y410716D01*
X646552Y410591D01*
X646601Y410572D01*
X646648Y410548D01*
X646898Y410458D01*
X647147Y410362D01*
X647198Y410350D01*
X647248Y410332D01*
X647507Y410274D01*
X647765Y410210D01*
X647818Y410204D01*
X647870Y410192D01*
X648133Y410167D01*
X648398Y410136D01*
X648451Y410137D01*
X648504Y410132D01*
X648769Y410140D01*
X649035Y410143D01*
X649088Y410150D01*
X649141Y410151D01*
X649403Y410193D01*
X649667Y410228D01*
X649718Y410242D01*
X649770Y410250D01*
X650025Y410324D01*
X650282Y410393D01*
X650331Y410413D01*
X650382Y410427D01*
X650625Y410532D01*
X650872Y410633D01*
X650919Y410659D01*
X650967Y410680D01*
X651196Y410815D01*
X651428Y410945D01*
X651470Y410976D01*
X651516Y411003D01*
X651727Y411166D01*
X651940Y411324D01*
X651978Y411360D01*
X652020Y411393D01*
X652209Y411581D01*
X652401Y411764D01*
X652434Y411805D01*
X652471Y411842D01*
X652635Y412052D01*
X652802Y412258D01*
X652830Y412303D01*
X652863Y412345D01*
X652998Y412573D01*
X653139Y412799D01*
X653161Y412847D01*
X653188Y412893D01*
X653294Y413136D01*
X653406Y413378D01*
X653422Y413428D01*
X653443Y413477D01*
X653518Y413732D01*
X653598Y413985D01*
X653607Y414038D01*
X653622Y414088D01*
X653664Y414351D01*
X653712Y414612D01*
X653715Y414664D01*
X653723Y414717D01*
X653733Y415019D01*
X653747Y415267D01*
X653372Y448075D01*
X653356Y448282D01*
X653350Y448490D01*
X653333Y448599D01*
X653324Y448710D01*
X653283Y448914D01*
X653251Y449119D01*
X653220Y449226D01*
X653198Y449334D01*
X653132Y449531D01*
X653074Y449731D01*
X653030Y449833D01*
X652994Y449938D01*
X652904Y450125D01*
X652822Y450316D01*
X652765Y450412D01*
X652717Y450512D01*
X652604Y450686D01*
X652498Y450865D01*
X652430Y450953D01*
X652370Y451046D01*
X652235Y451205D01*
X652108Y451369D01*
X652030Y451448D01*
X651958Y451532D01*
X651806Y451673D01*
X651659Y451820D01*
X651571Y451889D01*
X651489Y451964D01*
X651320Y452084D01*
X651156Y452212D01*
X651060Y452269D01*
X650970Y452333D01*
X650787Y452431D01*
X650608Y452537D01*
X650507Y452581D01*
X650409Y452634D01*
X650214Y452709D01*
X650024Y452792D01*
X649918Y452823D01*
X649814Y452863D01*
X649612Y452912D01*
X649413Y452971D01*
X649303Y452988D01*
X649195Y453015D01*
X648989Y453039D01*
X648784Y453072D01*
X648673Y453076D01*
X648562Y453089D01*
X648354Y453087D01*
X648147Y453094D01*
X648036Y453083D01*
X647925Y453082D01*
X647719Y453054D01*
X647512Y453035D01*
X647404Y453012D01*
X647294Y452997D01*
X647093Y452943D01*
X646890Y452898D01*
X646786Y452861D01*
X646678Y452832D01*
X646485Y452754D01*
X646290Y452684D01*
X646191Y452634D01*
X646088Y452592D01*
X645907Y452490D01*
X645721Y452397D01*
X645630Y452335D01*
X645533Y452280D01*
X645366Y452157D01*
X645193Y452040D01*
X645112Y451969D01*
X645021Y451901D01*
X644857Y451745D01*
X644701Y451608D01*
X644420Y451327D01*
X644003Y451048D01*
X643541Y450857D01*
X643050Y450759D01*
X627379Y450759D01*
X627379Y459550D01*
X627379Y468341D01*
X643050Y468341D01*
X643541Y468243D01*
X644003Y468052D01*
X644420Y467774D01*
X644434Y467759D01*
X644634Y467583D01*
X644829Y467403D01*
X644873Y467372D01*
X644912Y467337D01*
X645131Y467189D01*
X645349Y467034D01*
X645396Y467009D01*
X645439Y466979D01*
X645675Y466859D01*
X645910Y466733D01*
X645960Y466714D01*
X646007Y466690D01*
X646256Y466600D01*
X646505Y466504D01*
X646556Y466491D01*
X646606Y466474D01*
X646865Y466415D01*
X647124Y466352D01*
X647176Y466346D01*
X647228Y466334D01*
X647492Y466309D01*
X647756Y466278D01*
X647809Y466279D01*
X647862Y466274D01*
X648127Y466282D01*
X648393Y466284D01*
X648446Y466291D01*
X648499Y466293D01*
X648760Y466334D01*
X649025Y466370D01*
X649076Y466384D01*
X649128Y466392D01*
X649383Y466466D01*
X649640Y466534D01*
X649689Y466554D01*
X649740Y466569D01*
X649984Y466674D01*
X650231Y466774D01*
X650277Y466800D01*
X650325Y466821D01*
X650554Y466956D01*
X650786Y467086D01*
X650829Y467118D01*
X650874Y467145D01*
X651084Y467307D01*
X651298Y467465D01*
X651336Y467502D01*
X651378Y467534D01*
X651567Y467722D01*
X651759Y467906D01*
X651792Y467947D01*
X651830Y467984D01*
X651993Y468194D01*
X652161Y468400D01*
X652189Y468445D01*
X652221Y468487D01*
X652357Y468715D01*
X652497Y468941D01*
X652520Y468989D01*
X652547Y469034D01*
X652653Y469278D01*
X652764Y469520D01*
X652780Y469570D01*
X652801Y469619D01*
X652876Y469874D01*
X652956Y470127D01*
X652965Y470179D01*
X652980Y470230D01*
X653022Y470493D01*
X653070Y470754D01*
X653073Y470806D01*
X653081Y470859D01*
X653092Y471160D01*
X653105Y471408D01*
X650662Y685114D01*
X650645Y685348D01*
X650635Y685583D01*
X650621Y685666D01*
X650615Y685750D01*
X650568Y685980D01*
X650529Y686212D01*
X650505Y686292D01*
X650488Y686374D01*
X650413Y686597D01*
X650346Y686822D01*
X650312Y686898D01*
X650285Y686978D01*
X650182Y687190D01*
X650087Y687404D01*
X650044Y687476D01*
X650007Y687551D01*
X649879Y687748D01*
X649758Y687950D01*
X649706Y688015D01*
X649660Y688085D01*
X649509Y688265D01*
X649363Y688449D01*
X649303Y688508D01*
X649249Y688572D01*
X649076Y688731D01*
X648908Y688896D01*
X648841Y688947D01*
X648780Y689003D01*
X648588Y689140D01*
X648401Y689282D01*
X648329Y689324D01*
X648260Y689372D01*
X648053Y689484D01*
X647850Y689601D01*
X647773Y689634D01*
X647699Y689674D01*
X647479Y689758D01*
X647263Y689849D01*
X647183Y689872D01*
X647104Y689902D01*
X646876Y689958D01*
X646650Y690022D01*
X646567Y690035D01*
X646486Y690055D01*
X646252Y690082D01*
X646020Y690117D01*
X645936Y690118D01*
X645853Y690128D01*
X645618Y690126D01*
X645383Y690131D01*
X645299Y690123D01*
X645216Y690122D01*
X644983Y690090D01*
X644749Y690066D01*
X644667Y690047D01*
X644584Y690036D01*
X644357Y689976D01*
X644128Y689923D01*
X644050Y689894D01*
X643969Y689872D01*
X643751Y689783D01*
X643530Y689702D01*
X643456Y689664D01*
X643379Y689632D01*
X643173Y689517D01*
X642965Y689409D01*
X642896Y689361D01*
X642823Y689320D01*
X642634Y689180D01*
X642441Y689047D01*
X642378Y688991D01*
X642311Y688941D01*
X642141Y688779D01*
X641966Y688622D01*
X641911Y688558D01*
X641850Y688501D01*
X641702Y688319D01*
X641548Y688141D01*
X641502Y688072D01*
X641448Y688006D01*
X641312Y687788D01*
X641184Y687596D01*
X637800Y681734D01*
X632716Y676650D01*
X626490Y673055D01*
X619545Y671194D01*
X612355Y671194D01*
X605410Y673055D01*
X599184Y676650D01*
X594100Y681734D01*
X590505Y687960D01*
X588644Y694905D01*
X588644Y702095D01*
X590505Y709040D01*
X594100Y715266D01*
X599652Y720818D01*
X599809Y720996D01*
X599971Y721168D01*
X600019Y721235D01*
X600074Y721296D01*
X600207Y721492D01*
X600346Y721684D01*
X600386Y721755D01*
X600432Y721823D01*
X600540Y722034D01*
X600654Y722241D01*
X600684Y722318D01*
X600721Y722391D01*
X600802Y722613D01*
X600889Y722834D01*
X600910Y722913D01*
X600937Y722990D01*
X600989Y723221D01*
X601049Y723450D01*
X601059Y723532D01*
X601077Y723612D01*
X601099Y723847D01*
X601129Y724082D01*
X601130Y724165D01*
X601137Y724246D01*
X601130Y724482D01*
X601131Y724720D01*
X601120Y724801D01*
X601118Y724883D01*
X601081Y725117D01*
X601052Y725352D01*
X601032Y725431D01*
X601019Y725512D01*
X600953Y725740D01*
X600895Y725969D01*
X600865Y726045D01*
X600842Y726124D01*
X600748Y726342D01*
X600662Y726562D01*
X600622Y726634D01*
X600590Y726709D01*
X600470Y726913D01*
X600356Y727121D01*
X600308Y727188D01*
X600266Y727258D01*
X600121Y727446D01*
X599983Y727638D01*
X599927Y727698D01*
X599876Y727762D01*
X599709Y727930D01*
X599548Y728103D01*
X599485Y728156D01*
X599427Y728214D01*
X599240Y728359D01*
X599058Y728511D01*
X598989Y728555D01*
X598924Y728605D01*
X598721Y728726D01*
X598521Y728854D01*
X598447Y728889D01*
X598376Y728931D01*
X598160Y729025D01*
X597945Y729127D01*
X597867Y729152D01*
X597792Y729185D01*
X597565Y729252D01*
X597340Y729326D01*
X597260Y729341D01*
X597181Y729364D01*
X596947Y729402D01*
X596715Y729447D01*
X596634Y729452D01*
X596552Y729465D01*
X596292Y729474D01*
X596061Y729489D01*
X559639Y729489D01*
X559403Y729474D01*
X559166Y729467D01*
X559085Y729454D01*
X559003Y729449D01*
X558771Y729405D01*
X558537Y729368D01*
X558458Y729345D01*
X558378Y729330D01*
X558152Y729257D01*
X557925Y729191D01*
X557850Y729159D01*
X557771Y729133D01*
X557557Y729033D01*
X557340Y728939D01*
X557269Y728897D01*
X557195Y728862D01*
X556995Y728736D01*
X556791Y728615D01*
X556726Y728565D01*
X556657Y728521D01*
X556474Y728370D01*
X556287Y728226D01*
X556229Y728168D01*
X556165Y728116D01*
X556003Y727943D01*
X555835Y727776D01*
X555785Y727711D01*
X555729Y727652D01*
X555590Y727460D01*
X555444Y727273D01*
X555402Y727203D01*
X555354Y727137D01*
X555240Y726929D01*
X555119Y726726D01*
X555086Y726650D01*
X555046Y726579D01*
X554959Y726359D01*
X554864Y726141D01*
X554841Y726063D01*
X554811Y725986D01*
X554752Y725757D01*
X554685Y725530D01*
X554672Y725449D01*
X554651Y725370D01*
X554621Y725135D01*
X554584Y724901D01*
X554581Y724819D01*
X554571Y724738D01*
X554570Y724501D01*
X554562Y724264D01*
X554570Y724183D01*
X554569Y724100D01*
X554599Y723865D01*
X554620Y723630D01*
X554638Y723550D01*
X554648Y723468D01*
X554707Y723239D01*
X554757Y723008D01*
X554785Y722930D01*
X554805Y722851D01*
X554892Y722630D01*
X554971Y722407D01*
X555008Y722334D01*
X555038Y722258D01*
X555152Y722050D01*
X555259Y721839D01*
X555305Y721771D01*
X555344Y721699D01*
X555483Y721507D01*
X555615Y721311D01*
X555668Y721250D01*
X555717Y721182D01*
X555895Y720992D01*
X556048Y720818D01*
X561600Y715266D01*
X565195Y709040D01*
X567056Y702095D01*
X567056Y694905D01*
X565195Y687960D01*
X561600Y681734D01*
X556516Y676650D01*
X550290Y673055D01*
X543345Y671194D01*
X536155Y671194D01*
X529210Y673055D01*
X522984Y676650D01*
X517900Y681734D01*
X514305Y687960D01*
X512444Y694905D01*
X512444Y702095D01*
X514305Y709040D01*
X517900Y715266D01*
X523452Y720818D01*
X523609Y720996D01*
X523771Y721168D01*
X523819Y721235D01*
X523874Y721296D01*
X524007Y721492D01*
X524146Y721684D01*
X524186Y721755D01*
X524232Y721823D01*
X524340Y722034D01*
X524454Y722241D01*
X524484Y722318D01*
X524521Y722391D01*
X524602Y722613D01*
X524689Y722834D01*
X524710Y722913D01*
X524737Y722990D01*
X524789Y723221D01*
X524849Y723450D01*
X524859Y723532D01*
X524877Y723612D01*
X524899Y723847D01*
X524929Y724082D01*
X524930Y724165D01*
X524937Y724246D01*
X524930Y724482D01*
X524931Y724720D01*
X524920Y724801D01*
X524918Y724883D01*
X524881Y725117D01*
X524852Y725352D01*
X524832Y725431D01*
X524819Y725512D01*
X524753Y725740D01*
X524695Y725969D01*
X524665Y726045D01*
X524642Y726124D01*
X524548Y726342D01*
X524462Y726562D01*
X524422Y726634D01*
X524390Y726709D01*
X524270Y726913D01*
X524156Y727121D01*
X524108Y727188D01*
X524066Y727258D01*
X523921Y727446D01*
X523783Y727638D01*
X523727Y727698D01*
X523676Y727762D01*
X523509Y727930D01*
X523348Y728103D01*
X523285Y728156D01*
X523227Y728214D01*
X523040Y728359D01*
X522858Y728511D01*
X522789Y728555D01*
X522724Y728605D01*
X522521Y728726D01*
X522321Y728854D01*
X522247Y728889D01*
X522176Y728931D01*
X521960Y729025D01*
X521745Y729127D01*
X521667Y729152D01*
X521592Y729185D01*
X521365Y729252D01*
X521140Y729326D01*
X521060Y729341D01*
X520981Y729364D01*
X520747Y729402D01*
X520515Y729447D01*
X520434Y729452D01*
X520352Y729465D01*
X520092Y729474D01*
X519861Y729489D01*
X57989Y729489D01*
X57753Y729474D01*
X57516Y729467D01*
X57435Y729454D01*
X57353Y729449D01*
X57121Y729405D01*
X56887Y729368D01*
X56808Y729345D01*
X56728Y729330D01*
X56502Y729257D01*
X56275Y729191D01*
X56200Y729159D01*
X56121Y729133D01*
X55907Y729033D01*
X55690Y728939D01*
X55619Y728897D01*
X55545Y728862D01*
X55345Y728736D01*
X55141Y728615D01*
X55076Y728565D01*
X55007Y728521D01*
X54824Y728370D01*
X54637Y728226D01*
X54579Y728168D01*
X54515Y728116D01*
X54353Y727943D01*
X54185Y727776D01*
X54135Y727711D01*
X54079Y727652D01*
X53940Y727460D01*
X53794Y727273D01*
X53752Y727203D01*
X53704Y727137D01*
X53590Y726929D01*
X53469Y726726D01*
X53436Y726650D01*
X53396Y726579D01*
X53309Y726359D01*
X53214Y726141D01*
X53191Y726063D01*
X53161Y725986D01*
X53102Y725757D01*
X53035Y725530D01*
X53022Y725449D01*
X53001Y725370D01*
X52971Y725135D01*
X52934Y724901D01*
X52931Y724819D01*
X52921Y724738D01*
X52920Y724501D01*
X52912Y724264D01*
X52920Y724183D01*
X52919Y724100D01*
X52949Y723865D01*
X52970Y723630D01*
X52988Y723550D01*
X52998Y723468D01*
X53057Y723239D01*
X53107Y723008D01*
X53135Y722930D01*
X53155Y722851D01*
X53242Y722630D01*
X53321Y722407D01*
X53358Y722334D01*
X53388Y722258D01*
X53502Y722050D01*
X53609Y721839D01*
X53655Y721771D01*
X53694Y721699D01*
X53833Y721507D01*
X53965Y721311D01*
X54018Y721250D01*
X54067Y721182D01*
X54245Y720992D01*
X54398Y720818D01*
X59950Y715266D01*
X63545Y709040D01*
X65406Y702095D01*
X65406Y694905D01*
X63545Y687960D01*
X59950Y681734D01*
X54866Y676650D01*
X48640Y673055D01*
X41695Y671194D01*
X34505Y671194D01*
X27560Y673055D01*
X21334Y676650D01*
X19574Y678410D01*
X19374Y678587D01*
X19179Y678766D01*
X19136Y678796D01*
X19096Y678832D01*
X18876Y678981D01*
X18659Y679135D01*
X18612Y679160D01*
X18569Y679190D01*
X18333Y679310D01*
X18098Y679436D01*
X18048Y679455D01*
X18001Y679479D01*
X17752Y679569D01*
X17503Y679665D01*
X17452Y679677D01*
X17402Y679695D01*
X17143Y679754D01*
X16885Y679817D01*
X16832Y679823D01*
X16780Y679835D01*
X16516Y679860D01*
X16252Y679891D01*
X16199Y679890D01*
X16146Y679895D01*
X15881Y679887D01*
X15615Y679885D01*
X15562Y679877D01*
X15509Y679876D01*
X15247Y679835D01*
X14983Y679799D01*
X14932Y679785D01*
X14880Y679777D01*
X14625Y679703D01*
X14368Y679635D01*
X14319Y679615D01*
X14268Y679600D01*
X14024Y679495D01*
X13777Y679395D01*
X13731Y679369D01*
X13683Y679348D01*
X13454Y679213D01*
X13222Y679083D01*
X13179Y679051D01*
X13134Y679024D01*
X12923Y678861D01*
X12710Y678703D01*
X12672Y678667D01*
X12630Y678634D01*
X12441Y678446D01*
X12249Y678263D01*
X12216Y678222D01*
X12178Y678185D01*
X12015Y677975D01*
X11847Y677769D01*
X11819Y677724D01*
X11787Y677682D01*
X11651Y677454D01*
X11511Y677228D01*
X11488Y677180D01*
X11461Y677134D01*
X11355Y676890D01*
X11244Y676649D01*
X11228Y676599D01*
X11207Y676550D01*
X11132Y676295D01*
X11052Y676042D01*
X11043Y675990D01*
X11028Y675939D01*
X10986Y675676D01*
X10938Y675415D01*
X10935Y675363D01*
X10927Y675310D01*
X10916Y675009D01*
X10903Y674761D01*
X15691Y255931D01*
X15704Y255751D01*
X15708Y255571D01*
X15728Y255434D01*
X15738Y255296D01*
X15774Y255119D01*
X15800Y254940D01*
X15837Y254807D01*
X15864Y254671D01*
X15922Y254501D01*
X15970Y254326D01*
X16024Y254199D01*
X16068Y254068D01*
X16147Y253905D01*
X16216Y253739D01*
X16285Y253619D01*
X16346Y253494D01*
X16444Y253343D01*
X16534Y253186D01*
X16617Y253076D01*
X16693Y252960D01*
X16809Y252822D01*
X16918Y252678D01*
X17015Y252579D01*
X17104Y252473D01*
X17237Y252351D01*
X17363Y252222D01*
X17471Y252136D01*
X17573Y252042D01*
X17720Y251938D01*
X17861Y251825D01*
X17980Y251753D01*
X18092Y251673D01*
X18252Y251587D01*
X18406Y251494D01*
X18532Y251437D01*
X18654Y251372D01*
X18823Y251307D01*
X18987Y251233D01*
X19119Y251193D01*
X19249Y251143D01*
X19424Y251100D01*
X19597Y251047D01*
X19733Y251024D01*
X19867Y250991D01*
X20047Y250970D01*
X20224Y250939D01*
X20363Y250933D01*
X20500Y250917D01*
X20681Y250919D01*
X20861Y250911D01*
X20999Y250922D01*
X21137Y250923D01*
X21316Y250948D01*
X21496Y250962D01*
X21631Y250991D01*
X21769Y251009D01*
X21943Y251056D01*
X22120Y251093D01*
X22250Y251138D01*
X22384Y251173D01*
X22552Y251242D01*
X22722Y251300D01*
X22843Y251360D01*
X22974Y251413D01*
X23145Y251509D01*
X23309Y251591D01*
X27560Y254045D01*
X34505Y255906D01*
X41695Y255906D01*
X48640Y254045D01*
X54866Y250450D01*
X59950Y245366D01*
X63545Y239140D01*
X65406Y232195D01*
X65406Y225005D01*
X63545Y218060D01*
X59950Y211834D01*
X54866Y206750D01*
X49737Y203789D01*
X49517Y203643D01*
X49294Y203501D01*
X49252Y203466D01*
X49206Y203436D01*
X49006Y203264D01*
X48803Y203096D01*
X48765Y203056D01*
X48724Y203020D01*
X48547Y202823D01*
X48366Y202632D01*
X48334Y202587D01*
X48297Y202547D01*
X48147Y202330D01*
X47991Y202116D01*
X47965Y202069D01*
X47934Y202024D01*
X47811Y201790D01*
X47684Y201559D01*
X47663Y201508D01*
X47638Y201459D01*
X47546Y201212D01*
X47448Y200966D01*
X47435Y200913D01*
X47416Y200862D01*
X47355Y200605D01*
X47289Y200350D01*
X47282Y200295D01*
X47269Y200242D01*
X47241Y199979D01*
X47208Y199718D01*
X47208Y199663D01*
X47202Y199609D01*
X47207Y199345D01*
X47207Y199080D01*
X47214Y199026D01*
X47215Y198971D01*
X47253Y198711D01*
X47286Y198448D01*
X47299Y198395D01*
X47307Y198341D01*
X47377Y198087D01*
X47443Y197831D01*
X47463Y197780D01*
X47477Y197727D01*
X47579Y197484D01*
X47676Y197238D01*
X47702Y197190D01*
X47723Y197139D01*
X47854Y196911D01*
X47982Y196679D01*
X48014Y196634D01*
X48041Y196587D01*
X48200Y196377D01*
X48355Y196162D01*
X48392Y196122D01*
X48425Y196079D01*
X48609Y195890D01*
X48790Y195697D01*
X48832Y195662D01*
X48870Y195623D01*
X49077Y195458D01*
X49279Y195289D01*
X49325Y195260D01*
X49368Y195226D01*
X49594Y195088D01*
X49816Y194946D01*
X49866Y194923D01*
X49913Y194894D01*
X50153Y194787D01*
X50392Y194673D01*
X50444Y194656D01*
X50494Y194634D01*
X50746Y194557D01*
X50997Y194474D01*
X51051Y194464D01*
X51103Y194448D01*
X51363Y194403D01*
X51623Y194353D01*
X51677Y194350D01*
X51731Y194340D01*
X52028Y194327D01*
X52277Y194311D01*
X525573Y194311D01*
X525837Y194327D01*
G37*
%LPC*%
G36*
X302829Y358393D02*
X302829Y358393D01*
X299188Y359902D01*
X296402Y362688D01*
X294893Y366329D01*
X294893Y370271D01*
X296402Y373912D01*
X299898Y377408D01*
X300001Y377525D01*
X300110Y377634D01*
X300211Y377763D01*
X300320Y377886D01*
X300407Y378014D01*
X300502Y378137D01*
X300586Y378278D01*
X300678Y378413D01*
X300748Y378551D01*
X300827Y378684D01*
X300893Y378835D01*
X300967Y378981D01*
X301020Y379127D01*
X301082Y379269D01*
X301128Y379426D01*
X301183Y379580D01*
X301217Y379731D01*
X301261Y379880D01*
X301287Y380042D01*
X301323Y380202D01*
X301337Y380356D01*
X301362Y380509D01*
X301368Y380673D01*
X301383Y380836D01*
X301378Y380991D01*
X301384Y381146D01*
X301369Y381309D01*
X301364Y381473D01*
X301340Y381626D01*
X301326Y381780D01*
X301290Y381940D01*
X301265Y382102D01*
X301222Y382251D01*
X301188Y382402D01*
X301133Y382557D01*
X301088Y382714D01*
X301026Y382857D01*
X300974Y383003D01*
X300900Y383149D01*
X300836Y383299D01*
X300757Y383433D01*
X300687Y383571D01*
X300595Y383707D01*
X300512Y383848D01*
X300417Y383971D01*
X300331Y384099D01*
X300225Y384219D01*
X300122Y384352D01*
X300003Y384472D01*
X299898Y384592D01*
X296401Y388088D01*
X294893Y391729D01*
X294893Y395671D01*
X296402Y399312D01*
X299898Y402808D01*
X300001Y402925D01*
X300110Y403034D01*
X300211Y403163D01*
X300320Y403286D01*
X300407Y403414D01*
X300502Y403537D01*
X300586Y403678D01*
X300678Y403813D01*
X300748Y403951D01*
X300827Y404084D01*
X300893Y404235D01*
X300967Y404381D01*
X301020Y404527D01*
X301082Y404669D01*
X301128Y404826D01*
X301183Y404980D01*
X301217Y405131D01*
X301261Y405280D01*
X301287Y405442D01*
X301323Y405602D01*
X301337Y405756D01*
X301362Y405909D01*
X301368Y406073D01*
X301383Y406236D01*
X301378Y406391D01*
X301384Y406546D01*
X301369Y406709D01*
X301364Y406873D01*
X301340Y407026D01*
X301326Y407180D01*
X301290Y407340D01*
X301265Y407502D01*
X301222Y407651D01*
X301188Y407802D01*
X301133Y407957D01*
X301088Y408114D01*
X301026Y408257D01*
X300974Y408403D01*
X300900Y408549D01*
X300836Y408699D01*
X300757Y408833D01*
X300687Y408971D01*
X300595Y409107D01*
X300512Y409248D01*
X300417Y409371D01*
X300331Y409499D01*
X300225Y409619D01*
X300122Y409752D01*
X300003Y409872D01*
X299898Y409992D01*
X296401Y413488D01*
X294893Y417129D01*
X294893Y421071D01*
X296401Y424712D01*
X298287Y426597D01*
X298417Y426744D01*
X298553Y426885D01*
X298627Y426983D01*
X298709Y427075D01*
X298819Y427237D01*
X298937Y427394D01*
X298998Y427501D01*
X299067Y427602D01*
X299156Y427777D01*
X299253Y427947D01*
X299300Y428060D01*
X299356Y428170D01*
X299423Y428354D01*
X299498Y428535D01*
X299531Y428653D01*
X299572Y428769D01*
X299615Y428960D01*
X299667Y429149D01*
X299685Y429270D01*
X299712Y429391D01*
X299730Y429586D01*
X299758Y429780D01*
X299761Y429903D01*
X299772Y430025D01*
X299766Y430221D01*
X299770Y430417D01*
X299757Y430539D01*
X299753Y430662D01*
X299722Y430855D01*
X299701Y431050D01*
X299673Y431170D01*
X299654Y431291D01*
X299599Y431479D01*
X299554Y431670D01*
X299511Y431785D01*
X299477Y431903D01*
X299399Y432083D01*
X299331Y432267D01*
X299273Y432376D01*
X299225Y432488D01*
X299125Y432657D01*
X299034Y432831D01*
X298964Y432931D01*
X298901Y433037D01*
X298781Y433192D01*
X298669Y433353D01*
X298587Y433444D01*
X298511Y433541D01*
X298373Y433680D01*
X298242Y433825D01*
X298149Y433905D01*
X298062Y433993D01*
X297907Y434113D01*
X297759Y434241D01*
X297656Y434309D01*
X297559Y434384D01*
X297391Y434484D01*
X297227Y434592D01*
X297119Y434646D01*
X297011Y434710D01*
X296816Y434795D01*
X296639Y434882D01*
X296215Y435057D01*
X295357Y435915D01*
X294893Y437036D01*
X294893Y451964D01*
X295357Y453085D01*
X296215Y453943D01*
X297336Y454407D01*
X312264Y454407D01*
X313385Y453943D01*
X314243Y453085D01*
X314707Y451964D01*
X314707Y437036D01*
X314243Y435915D01*
X313385Y435057D01*
X312961Y434882D01*
X312785Y434795D01*
X312605Y434718D01*
X312499Y434656D01*
X312388Y434601D01*
X312224Y434494D01*
X312056Y434394D01*
X311959Y434319D01*
X311856Y434252D01*
X311707Y434124D01*
X311552Y434005D01*
X311465Y433918D01*
X311371Y433838D01*
X311239Y433693D01*
X311101Y433555D01*
X311025Y433458D01*
X310942Y433367D01*
X310829Y433207D01*
X310709Y433052D01*
X310646Y432947D01*
X310575Y432846D01*
X310484Y432673D01*
X310384Y432505D01*
X310334Y432392D01*
X310277Y432283D01*
X310208Y432100D01*
X310129Y431920D01*
X310095Y431803D01*
X310051Y431687D01*
X310005Y431497D01*
X309950Y431309D01*
X309931Y431188D01*
X309902Y431068D01*
X309880Y430873D01*
X309849Y430680D01*
X309845Y430557D01*
X309831Y430435D01*
X309834Y430239D01*
X309827Y430043D01*
X309838Y429921D01*
X309840Y429798D01*
X309867Y429604D01*
X309885Y429409D01*
X309912Y429289D01*
X309929Y429167D01*
X309980Y428978D01*
X310023Y428787D01*
X310064Y428671D01*
X310096Y428552D01*
X310171Y428371D01*
X310237Y428186D01*
X310292Y428076D01*
X310339Y427963D01*
X310436Y427793D01*
X310524Y427618D01*
X310593Y427516D01*
X310654Y427409D01*
X310771Y427252D01*
X310880Y427090D01*
X310960Y426999D01*
X311035Y426899D01*
X311183Y426746D01*
X311313Y426597D01*
X313199Y424712D01*
X314707Y421071D01*
X314707Y417129D01*
X313199Y413488D01*
X309702Y409992D01*
X309599Y409875D01*
X309490Y409766D01*
X309389Y409637D01*
X309280Y409514D01*
X309193Y409386D01*
X309098Y409263D01*
X309014Y409122D01*
X308922Y408987D01*
X308852Y408849D01*
X308773Y408716D01*
X308707Y408565D01*
X308633Y408419D01*
X308580Y408274D01*
X308518Y408131D01*
X308472Y407974D01*
X308417Y407820D01*
X308383Y407669D01*
X308339Y407520D01*
X308313Y407358D01*
X308277Y407198D01*
X308263Y407044D01*
X308238Y406891D01*
X308232Y406727D01*
X308217Y406564D01*
X308222Y406409D01*
X308216Y406254D01*
X308231Y406091D01*
X308236Y405927D01*
X308260Y405774D01*
X308274Y405620D01*
X308310Y405460D01*
X308335Y405298D01*
X308378Y405149D01*
X308412Y404998D01*
X308467Y404843D01*
X308512Y404686D01*
X308574Y404543D01*
X308626Y404397D01*
X308699Y404251D01*
X308764Y404101D01*
X308843Y403967D01*
X308913Y403829D01*
X309005Y403693D01*
X309088Y403552D01*
X309183Y403429D01*
X309269Y403301D01*
X309374Y403181D01*
X309478Y403048D01*
X309597Y402928D01*
X309702Y402808D01*
X313198Y399312D01*
X314707Y395671D01*
X314707Y391729D01*
X313199Y388088D01*
X309702Y384592D01*
X309599Y384475D01*
X309490Y384366D01*
X309389Y384237D01*
X309280Y384114D01*
X309193Y383986D01*
X309098Y383863D01*
X309014Y383722D01*
X308922Y383587D01*
X308852Y383449D01*
X308773Y383316D01*
X308707Y383165D01*
X308633Y383019D01*
X308580Y382874D01*
X308518Y382731D01*
X308472Y382574D01*
X308417Y382420D01*
X308383Y382269D01*
X308339Y382120D01*
X308313Y381958D01*
X308277Y381798D01*
X308263Y381644D01*
X308238Y381491D01*
X308232Y381327D01*
X308217Y381164D01*
X308222Y381009D01*
X308216Y380854D01*
X308231Y380691D01*
X308236Y380527D01*
X308260Y380374D01*
X308274Y380220D01*
X308310Y380060D01*
X308335Y379898D01*
X308378Y379749D01*
X308412Y379598D01*
X308467Y379443D01*
X308512Y379286D01*
X308574Y379143D01*
X308626Y378997D01*
X308699Y378851D01*
X308764Y378701D01*
X308843Y378567D01*
X308913Y378429D01*
X309005Y378293D01*
X309088Y378152D01*
X309183Y378029D01*
X309269Y377901D01*
X309374Y377781D01*
X309478Y377648D01*
X309597Y377528D01*
X309702Y377408D01*
X313198Y373912D01*
X314707Y370271D01*
X314707Y366329D01*
X313198Y362688D01*
X310412Y359902D01*
X306771Y358393D01*
X302829Y358393D01*
G37*
%LPD*%
%LPC*%
G36*
X34708Y370331D02*
X34708Y370331D01*
X30787Y371956D01*
X27786Y374957D01*
X26161Y378878D01*
X26161Y383122D01*
X27785Y387043D01*
X30851Y390108D01*
X30953Y390225D01*
X31063Y390334D01*
X31163Y390463D01*
X31272Y390586D01*
X31359Y390714D01*
X31454Y390837D01*
X31538Y390978D01*
X31630Y391113D01*
X31701Y391251D01*
X31780Y391384D01*
X31845Y391535D01*
X31920Y391681D01*
X31972Y391826D01*
X32034Y391969D01*
X32080Y392126D01*
X32136Y392280D01*
X32170Y392431D01*
X32213Y392580D01*
X32239Y392742D01*
X32275Y392902D01*
X32290Y393056D01*
X32314Y393209D01*
X32320Y393373D01*
X32336Y393536D01*
X32331Y393691D01*
X32336Y393846D01*
X32321Y394009D01*
X32316Y394173D01*
X32292Y394326D01*
X32278Y394480D01*
X32243Y394640D01*
X32217Y394802D01*
X32174Y394951D01*
X32141Y395102D01*
X32086Y395257D01*
X32040Y395414D01*
X31979Y395557D01*
X31927Y395703D01*
X31853Y395849D01*
X31788Y395999D01*
X31709Y396133D01*
X31639Y396271D01*
X31548Y396407D01*
X31464Y396548D01*
X31370Y396671D01*
X31283Y396799D01*
X31178Y396919D01*
X31075Y397052D01*
X30956Y397172D01*
X30851Y397292D01*
X27786Y400357D01*
X26161Y404278D01*
X26161Y408522D01*
X27786Y412443D01*
X30787Y415444D01*
X34708Y417069D01*
X54192Y417069D01*
X58113Y415444D01*
X61114Y412443D01*
X62739Y408522D01*
X62739Y404278D01*
X61114Y400357D01*
X58049Y397292D01*
X57947Y397175D01*
X57837Y397066D01*
X57736Y396937D01*
X57628Y396814D01*
X57541Y396686D01*
X57446Y396563D01*
X57362Y396422D01*
X57270Y396287D01*
X57199Y396149D01*
X57120Y396016D01*
X57055Y395865D01*
X56980Y395719D01*
X56928Y395573D01*
X56866Y395431D01*
X56820Y395274D01*
X56764Y395120D01*
X56730Y394969D01*
X56687Y394820D01*
X56661Y394658D01*
X56625Y394498D01*
X56610Y394344D01*
X56586Y394191D01*
X56580Y394027D01*
X56564Y393864D01*
X56569Y393709D01*
X56564Y393554D01*
X56579Y393391D01*
X56584Y393227D01*
X56608Y393074D01*
X56622Y392920D01*
X56657Y392760D01*
X56683Y392598D01*
X56726Y392449D01*
X56759Y392298D01*
X56814Y392143D01*
X56860Y391986D01*
X56921Y391843D01*
X56973Y391697D01*
X57047Y391551D01*
X57112Y391401D01*
X57191Y391267D01*
X57261Y391129D01*
X57352Y390993D01*
X57436Y390852D01*
X57530Y390729D01*
X57617Y390601D01*
X57722Y390481D01*
X57825Y390348D01*
X57944Y390228D01*
X58049Y390108D01*
X61115Y387043D01*
X62739Y383122D01*
X62739Y378878D01*
X61114Y374957D01*
X58113Y371956D01*
X54192Y370331D01*
X34708Y370331D01*
G37*
%LPD*%
%LPC*%
G36*
X569883Y398271D02*
X569883Y398271D01*
X566895Y399509D01*
X564609Y401795D01*
X563371Y404783D01*
X563371Y453409D01*
X563367Y453482D01*
X563369Y453555D01*
X563362Y453636D01*
X563362Y453662D01*
X563352Y453737D01*
X563347Y453800D01*
X563331Y454045D01*
X563318Y454117D01*
X563311Y454190D01*
X563258Y454430D01*
X563212Y454671D01*
X563189Y454741D01*
X563174Y454812D01*
X563092Y455042D01*
X563015Y455277D01*
X562984Y455343D01*
X562960Y455412D01*
X562849Y455631D01*
X562744Y455854D01*
X562705Y455915D01*
X562672Y455981D01*
X562535Y456184D01*
X562403Y456392D01*
X562357Y456448D01*
X562316Y456509D01*
X562163Y456682D01*
X561998Y456883D01*
X561937Y456941D01*
X561884Y457001D01*
X561810Y457075D01*
X560069Y461276D01*
X560069Y465824D01*
X561810Y470025D01*
X565025Y473240D01*
X569226Y474981D01*
X573774Y474981D01*
X577975Y473240D01*
X581190Y470025D01*
X582931Y465824D01*
X582931Y461276D01*
X581190Y457075D01*
X581116Y457001D01*
X581068Y456946D01*
X581015Y456896D01*
X580857Y456707D01*
X580695Y456523D01*
X580654Y456463D01*
X580607Y456407D01*
X580475Y456199D01*
X580337Y455996D01*
X580304Y455931D01*
X580264Y455870D01*
X580159Y455648D01*
X580047Y455429D01*
X580023Y455360D01*
X579991Y455294D01*
X579915Y455060D01*
X579831Y454829D01*
X579815Y454758D01*
X579792Y454689D01*
X579745Y454447D01*
X579692Y454207D01*
X579685Y454135D01*
X579671Y454063D01*
X579656Y453832D01*
X579648Y453750D01*
X579639Y453680D01*
X579639Y453656D01*
X579631Y453573D01*
X579634Y453490D01*
X579629Y453409D01*
X579629Y404783D01*
X578391Y401795D01*
X576105Y399509D01*
X573117Y398271D01*
X569883Y398271D01*
G37*
%LPD*%
%LPC*%
G36*
X381000Y373379D02*
X381000Y373379D01*
X373073Y373379D01*
X373831Y374423D01*
X374877Y375469D01*
X376344Y376535D01*
X376557Y376711D01*
X376773Y376883D01*
X376802Y376914D01*
X376835Y376941D01*
X377024Y377142D01*
X377217Y377340D01*
X377242Y377374D01*
X377272Y377405D01*
X377434Y377628D01*
X377600Y377849D01*
X377621Y377886D01*
X377646Y377921D01*
X377779Y378162D01*
X377917Y378402D01*
X377933Y378442D01*
X377954Y378479D01*
X378055Y378735D01*
X378161Y378990D01*
X378173Y379031D01*
X378189Y379071D01*
X378257Y379338D01*
X378331Y379604D01*
X378337Y379647D01*
X378347Y379688D01*
X378382Y379962D01*
X378422Y380235D01*
X378423Y380278D01*
X378428Y380320D01*
X378428Y380596D01*
X378433Y380872D01*
X378429Y380915D01*
X378429Y380957D01*
X378395Y381230D01*
X378365Y381505D01*
X378355Y381547D01*
X378350Y381590D01*
X378282Y381856D01*
X378218Y382125D01*
X378203Y382165D01*
X378192Y382207D01*
X378091Y382463D01*
X377994Y382722D01*
X377974Y382760D01*
X377958Y382800D01*
X377826Y383041D01*
X377697Y383286D01*
X377673Y383321D01*
X377652Y383358D01*
X377490Y383582D01*
X377333Y383808D01*
X377304Y383840D01*
X377279Y383875D01*
X377090Y384076D01*
X376905Y384281D01*
X376873Y384309D01*
X376843Y384340D01*
X376631Y384516D01*
X376422Y384696D01*
X376386Y384720D01*
X376353Y384747D01*
X376121Y384895D01*
X375891Y385048D01*
X375853Y385066D01*
X375816Y385090D01*
X375528Y385226D01*
X375401Y385288D01*
X372602Y388088D01*
X371093Y391729D01*
X371093Y395671D01*
X372601Y399312D01*
X376098Y402808D01*
X376201Y402925D01*
X376310Y403034D01*
X376411Y403163D01*
X376520Y403286D01*
X376607Y403414D01*
X376702Y403537D01*
X376786Y403678D01*
X376878Y403813D01*
X376948Y403951D01*
X377027Y404084D01*
X377093Y404235D01*
X377167Y404381D01*
X377220Y404526D01*
X377282Y404669D01*
X377328Y404826D01*
X377383Y404980D01*
X377417Y405131D01*
X377461Y405280D01*
X377487Y405442D01*
X377523Y405602D01*
X377537Y405756D01*
X377562Y405909D01*
X377568Y406073D01*
X377583Y406236D01*
X377578Y406391D01*
X377584Y406546D01*
X377569Y406709D01*
X377564Y406873D01*
X377540Y407026D01*
X377526Y407180D01*
X377490Y407340D01*
X377465Y407502D01*
X377422Y407651D01*
X377388Y407802D01*
X377333Y407957D01*
X377288Y408114D01*
X377226Y408257D01*
X377174Y408403D01*
X377101Y408549D01*
X377036Y408699D01*
X376957Y408833D01*
X376887Y408971D01*
X376795Y409107D01*
X376712Y409248D01*
X376617Y409371D01*
X376531Y409499D01*
X376426Y409619D01*
X376322Y409752D01*
X376203Y409872D01*
X376098Y409992D01*
X372602Y413488D01*
X371093Y417129D01*
X371093Y421071D01*
X372601Y424712D01*
X376098Y428208D01*
X376201Y428325D01*
X376310Y428434D01*
X376411Y428563D01*
X376520Y428686D01*
X376607Y428814D01*
X376702Y428937D01*
X376786Y429078D01*
X376878Y429213D01*
X376948Y429351D01*
X377027Y429484D01*
X377093Y429635D01*
X377167Y429781D01*
X377220Y429926D01*
X377282Y430069D01*
X377328Y430226D01*
X377383Y430380D01*
X377417Y430531D01*
X377461Y430680D01*
X377487Y430842D01*
X377523Y431002D01*
X377537Y431156D01*
X377562Y431309D01*
X377568Y431473D01*
X377583Y431636D01*
X377578Y431791D01*
X377584Y431946D01*
X377569Y432109D01*
X377564Y432273D01*
X377540Y432426D01*
X377526Y432580D01*
X377490Y432740D01*
X377465Y432902D01*
X377422Y433051D01*
X377388Y433202D01*
X377333Y433357D01*
X377288Y433514D01*
X377226Y433657D01*
X377174Y433803D01*
X377101Y433949D01*
X377036Y434099D01*
X376957Y434233D01*
X376887Y434371D01*
X376795Y434507D01*
X376712Y434648D01*
X376617Y434771D01*
X376531Y434899D01*
X376426Y435019D01*
X376322Y435152D01*
X376203Y435272D01*
X376098Y435392D01*
X372602Y438888D01*
X371093Y442529D01*
X371093Y446471D01*
X372602Y450112D01*
X375388Y452898D01*
X379029Y454407D01*
X382971Y454407D01*
X386612Y452898D01*
X389398Y450112D01*
X390907Y446471D01*
X390907Y442529D01*
X389398Y438888D01*
X385902Y435392D01*
X385799Y435275D01*
X385690Y435166D01*
X385589Y435037D01*
X385480Y434914D01*
X385393Y434786D01*
X385298Y434663D01*
X385214Y434522D01*
X385122Y434387D01*
X385052Y434249D01*
X384973Y434116D01*
X384907Y433965D01*
X384833Y433819D01*
X384780Y433673D01*
X384718Y433531D01*
X384672Y433374D01*
X384617Y433220D01*
X384583Y433069D01*
X384539Y432920D01*
X384513Y432758D01*
X384477Y432598D01*
X384463Y432444D01*
X384438Y432291D01*
X384432Y432127D01*
X384417Y431964D01*
X384422Y431809D01*
X384416Y431654D01*
X384431Y431491D01*
X384436Y431327D01*
X384460Y431174D01*
X384474Y431020D01*
X384510Y430860D01*
X384535Y430698D01*
X384578Y430549D01*
X384612Y430398D01*
X384667Y430243D01*
X384712Y430086D01*
X384774Y429943D01*
X384826Y429797D01*
X384900Y429651D01*
X384964Y429501D01*
X385043Y429367D01*
X385113Y429229D01*
X385205Y429093D01*
X385288Y428952D01*
X385383Y428829D01*
X385469Y428701D01*
X385575Y428581D01*
X385678Y428448D01*
X385797Y428328D01*
X385902Y428208D01*
X389399Y424712D01*
X390907Y421071D01*
X390907Y417129D01*
X389398Y413488D01*
X385902Y409992D01*
X385799Y409875D01*
X385690Y409766D01*
X385589Y409637D01*
X385480Y409514D01*
X385393Y409386D01*
X385298Y409263D01*
X385214Y409122D01*
X385122Y408987D01*
X385052Y408849D01*
X384973Y408716D01*
X384907Y408565D01*
X384833Y408419D01*
X384780Y408273D01*
X384718Y408131D01*
X384672Y407974D01*
X384617Y407820D01*
X384583Y407669D01*
X384539Y407520D01*
X384513Y407358D01*
X384477Y407198D01*
X384463Y407044D01*
X384438Y406891D01*
X384432Y406727D01*
X384417Y406564D01*
X384422Y406409D01*
X384416Y406254D01*
X384431Y406091D01*
X384436Y405927D01*
X384460Y405774D01*
X384474Y405620D01*
X384510Y405460D01*
X384535Y405298D01*
X384578Y405149D01*
X384612Y404998D01*
X384667Y404843D01*
X384712Y404686D01*
X384774Y404543D01*
X384826Y404397D01*
X384900Y404251D01*
X384964Y404101D01*
X385043Y403967D01*
X385113Y403829D01*
X385205Y403693D01*
X385288Y403552D01*
X385383Y403429D01*
X385469Y403301D01*
X385575Y403181D01*
X385678Y403048D01*
X385797Y402928D01*
X385902Y402808D01*
X389399Y399312D01*
X390907Y395671D01*
X390907Y391729D01*
X389398Y388088D01*
X386599Y385289D01*
X386450Y385216D01*
X386200Y385098D01*
X386164Y385075D01*
X386125Y385057D01*
X385894Y384905D01*
X385661Y384758D01*
X385628Y384731D01*
X385592Y384707D01*
X385382Y384528D01*
X385170Y384352D01*
X385140Y384321D01*
X385108Y384293D01*
X384922Y384089D01*
X384733Y383889D01*
X384708Y383854D01*
X384679Y383822D01*
X384520Y383597D01*
X384357Y383374D01*
X384337Y383336D01*
X384312Y383301D01*
X384183Y383057D01*
X384049Y382816D01*
X384034Y382776D01*
X384014Y382738D01*
X383916Y382480D01*
X383814Y382224D01*
X383803Y382183D01*
X383788Y382143D01*
X383723Y381875D01*
X383654Y381607D01*
X383648Y381565D01*
X383638Y381523D01*
X383608Y381249D01*
X383573Y380975D01*
X383572Y380933D01*
X383568Y380890D01*
X383572Y380614D01*
X383571Y380338D01*
X383576Y380296D01*
X383577Y380253D01*
X383615Y379980D01*
X383649Y379706D01*
X383660Y379664D01*
X383666Y379622D01*
X383738Y379356D01*
X383806Y379088D01*
X383822Y379049D01*
X383833Y379007D01*
X383938Y378753D01*
X384039Y378495D01*
X384059Y378458D01*
X384075Y378418D01*
X384212Y378178D01*
X384344Y377936D01*
X384369Y377901D01*
X384390Y377864D01*
X384555Y377643D01*
X384717Y377419D01*
X384746Y377388D01*
X384772Y377354D01*
X384963Y377155D01*
X385151Y376954D01*
X385184Y376927D01*
X385214Y376895D01*
X385462Y376696D01*
X385656Y376535D01*
X387123Y375469D01*
X388169Y374423D01*
X388927Y373379D01*
X381000Y373379D01*
X381000Y373379D01*
G37*
%LPD*%
%LPC*%
G36*
X74078Y565911D02*
X74078Y565911D01*
X70157Y567535D01*
X66619Y571073D01*
X66442Y571229D01*
X66271Y571390D01*
X66204Y571439D01*
X66141Y571495D01*
X65947Y571627D01*
X65757Y571765D01*
X65683Y571806D01*
X65614Y571853D01*
X65405Y571960D01*
X65199Y572073D01*
X65121Y572104D01*
X65047Y572142D01*
X64826Y572222D01*
X64607Y572309D01*
X64526Y572330D01*
X64447Y572358D01*
X64217Y572410D01*
X63990Y572469D01*
X63907Y572479D01*
X63825Y572498D01*
X63592Y572520D01*
X63358Y572550D01*
X63274Y572550D01*
X63191Y572558D01*
X62957Y572551D01*
X62721Y572552D01*
X62638Y572541D01*
X62554Y572539D01*
X62322Y572502D01*
X62089Y572474D01*
X62008Y572453D01*
X61925Y572440D01*
X61699Y572375D01*
X61471Y572317D01*
X61394Y572286D01*
X61313Y572263D01*
X61097Y572170D01*
X60878Y572084D01*
X60805Y572044D01*
X60728Y572011D01*
X60526Y571891D01*
X60319Y571779D01*
X60251Y571730D01*
X60179Y571687D01*
X59993Y571543D01*
X59802Y571406D01*
X59741Y571349D01*
X59675Y571297D01*
X59508Y571131D01*
X59336Y570971D01*
X59284Y570908D01*
X59224Y570848D01*
X59065Y570644D01*
X58918Y570467D01*
X58550Y569961D01*
X57419Y568830D01*
X56125Y567890D01*
X55879Y567764D01*
X55879Y584200D01*
X55879Y600636D01*
X56125Y600510D01*
X57419Y599570D01*
X58550Y598439D01*
X58918Y597933D01*
X59068Y597752D01*
X59212Y597566D01*
X59271Y597506D01*
X59324Y597442D01*
X59495Y597281D01*
X59661Y597115D01*
X59727Y597063D01*
X59788Y597006D01*
X59979Y596867D01*
X60164Y596723D01*
X60236Y596680D01*
X60304Y596631D01*
X60510Y596518D01*
X60712Y596398D01*
X60789Y596364D01*
X60862Y596324D01*
X61080Y596237D01*
X61296Y596143D01*
X61376Y596120D01*
X61454Y596089D01*
X61682Y596030D01*
X61907Y595964D01*
X61990Y595951D01*
X62071Y595930D01*
X62305Y595900D01*
X62536Y595863D01*
X62620Y595860D01*
X62703Y595849D01*
X62938Y595849D01*
X63173Y595841D01*
X63257Y595849D01*
X63340Y595849D01*
X63573Y595878D01*
X63808Y595899D01*
X63890Y595917D01*
X63972Y595928D01*
X64200Y595986D01*
X64430Y596037D01*
X64509Y596065D01*
X64590Y596085D01*
X64808Y596172D01*
X65030Y596250D01*
X65105Y596288D01*
X65183Y596319D01*
X65388Y596432D01*
X65599Y596538D01*
X65668Y596585D01*
X65741Y596625D01*
X65931Y596762D01*
X66127Y596894D01*
X66189Y596949D01*
X66258Y596999D01*
X66446Y597175D01*
X66619Y597327D01*
X70157Y600865D01*
X74078Y602489D01*
X78322Y602489D01*
X82243Y600864D01*
X85244Y597863D01*
X86869Y593942D01*
X86869Y574458D01*
X85244Y570537D01*
X82243Y567536D01*
X78322Y565911D01*
X74078Y565911D01*
G37*
%LPD*%
%LPC*%
G36*
X561758Y598931D02*
X561758Y598931D01*
X557837Y600556D01*
X554836Y603557D01*
X553211Y607478D01*
X553211Y611722D01*
X554836Y615643D01*
X558373Y619181D01*
X558529Y619357D01*
X558690Y619528D01*
X558739Y619596D01*
X558795Y619659D01*
X558927Y619853D01*
X559065Y620043D01*
X559106Y620117D01*
X559153Y620186D01*
X559260Y620396D01*
X559373Y620601D01*
X559404Y620679D01*
X559442Y620753D01*
X559522Y620975D01*
X559609Y621193D01*
X559630Y621274D01*
X559658Y621353D01*
X559710Y621582D01*
X559769Y621810D01*
X559779Y621893D01*
X559798Y621975D01*
X559820Y622209D01*
X559850Y622442D01*
X559850Y622525D01*
X559858Y622609D01*
X559851Y622843D01*
X559852Y623079D01*
X559841Y623162D01*
X559839Y623246D01*
X559802Y623478D01*
X559773Y623711D01*
X559753Y623792D01*
X559740Y623875D01*
X559674Y624101D01*
X559617Y624329D01*
X559586Y624406D01*
X559563Y624487D01*
X559470Y624703D01*
X559384Y624922D01*
X559344Y624995D01*
X559311Y625072D01*
X559191Y625275D01*
X559079Y625481D01*
X559030Y625549D01*
X558987Y625621D01*
X558843Y625807D01*
X558706Y625998D01*
X558649Y626059D01*
X558597Y626125D01*
X558432Y626291D01*
X558271Y626463D01*
X558208Y626516D01*
X558148Y626576D01*
X557944Y626735D01*
X557767Y626882D01*
X557261Y627250D01*
X556130Y628381D01*
X555190Y629675D01*
X555064Y629921D01*
X571500Y629921D01*
X587936Y629921D01*
X587810Y629675D01*
X586870Y628381D01*
X585739Y627250D01*
X585233Y626882D01*
X585052Y626732D01*
X584866Y626588D01*
X584807Y626529D01*
X584742Y626476D01*
X584581Y626304D01*
X584415Y626139D01*
X584363Y626073D01*
X584306Y626012D01*
X584168Y625822D01*
X584023Y625636D01*
X583980Y625564D01*
X583931Y625496D01*
X583818Y625290D01*
X583698Y625088D01*
X583664Y625012D01*
X583624Y624938D01*
X583537Y624719D01*
X583443Y624504D01*
X583420Y624424D01*
X583389Y624346D01*
X583330Y624118D01*
X583264Y623893D01*
X583251Y623810D01*
X583230Y623729D01*
X583200Y623496D01*
X583163Y623264D01*
X583160Y623180D01*
X583149Y623097D01*
X583149Y622862D01*
X583141Y622627D01*
X583149Y622543D01*
X583149Y622460D01*
X583178Y622227D01*
X583199Y621992D01*
X583217Y621911D01*
X583228Y621827D01*
X583286Y621599D01*
X583337Y621370D01*
X583365Y621292D01*
X583385Y621210D01*
X583472Y620991D01*
X583551Y620770D01*
X583588Y620695D01*
X583619Y620617D01*
X583732Y620411D01*
X583838Y620201D01*
X583885Y620132D01*
X583925Y620059D01*
X584063Y619868D01*
X584194Y619673D01*
X584248Y619612D01*
X584299Y619542D01*
X584475Y619354D01*
X584627Y619181D01*
X588164Y615643D01*
X589789Y611722D01*
X589789Y607478D01*
X588164Y603557D01*
X585163Y600556D01*
X581242Y598931D01*
X561758Y598931D01*
G37*
%LPD*%
%LPC*%
G36*
X485558Y395731D02*
X485558Y395731D01*
X481637Y397356D01*
X478636Y400357D01*
X477011Y404278D01*
X477011Y408522D01*
X478636Y412443D01*
X482173Y415981D01*
X482329Y416157D01*
X482490Y416328D01*
X482539Y416396D01*
X482595Y416459D01*
X482727Y416653D01*
X482865Y416843D01*
X482906Y416917D01*
X482953Y416986D01*
X483060Y417196D01*
X483173Y417401D01*
X483204Y417479D01*
X483242Y417553D01*
X483322Y417775D01*
X483409Y417993D01*
X483430Y418074D01*
X483458Y418153D01*
X483510Y418382D01*
X483569Y418610D01*
X483579Y418693D01*
X483598Y418775D01*
X483620Y419009D01*
X483650Y419242D01*
X483650Y419325D01*
X483658Y419409D01*
X483651Y419643D01*
X483652Y419879D01*
X483641Y419962D01*
X483639Y420046D01*
X483602Y420278D01*
X483573Y420511D01*
X483553Y420592D01*
X483540Y420675D01*
X483474Y420901D01*
X483417Y421129D01*
X483386Y421206D01*
X483363Y421287D01*
X483270Y421503D01*
X483184Y421722D01*
X483144Y421795D01*
X483111Y421872D01*
X482991Y422075D01*
X482879Y422281D01*
X482830Y422349D01*
X482787Y422421D01*
X482643Y422607D01*
X482506Y422798D01*
X482449Y422859D01*
X482397Y422925D01*
X482232Y423091D01*
X482071Y423263D01*
X482008Y423316D01*
X481948Y423376D01*
X481744Y423535D01*
X481567Y423682D01*
X481061Y424050D01*
X479930Y425181D01*
X478990Y426475D01*
X478864Y426721D01*
X495300Y426721D01*
X511736Y426721D01*
X511610Y426475D01*
X510670Y425181D01*
X509539Y424050D01*
X509033Y423682D01*
X508852Y423532D01*
X508666Y423388D01*
X508607Y423329D01*
X508542Y423276D01*
X508381Y423104D01*
X508215Y422939D01*
X508163Y422873D01*
X508106Y422812D01*
X507968Y422622D01*
X507823Y422436D01*
X507780Y422364D01*
X507731Y422296D01*
X507618Y422090D01*
X507498Y421888D01*
X507464Y421812D01*
X507424Y421738D01*
X507337Y421519D01*
X507243Y421304D01*
X507220Y421224D01*
X507189Y421146D01*
X507130Y420918D01*
X507064Y420693D01*
X507051Y420610D01*
X507030Y420529D01*
X507000Y420296D01*
X506963Y420064D01*
X506960Y419980D01*
X506949Y419897D01*
X506949Y419662D01*
X506941Y419427D01*
X506949Y419343D01*
X506949Y419260D01*
X506978Y419026D01*
X506999Y418792D01*
X507017Y418711D01*
X507028Y418627D01*
X507086Y418399D01*
X507137Y418170D01*
X507165Y418092D01*
X507185Y418010D01*
X507272Y417791D01*
X507351Y417570D01*
X507388Y417495D01*
X507419Y417417D01*
X507532Y417211D01*
X507638Y417001D01*
X507685Y416932D01*
X507725Y416859D01*
X507863Y416668D01*
X507994Y416473D01*
X508048Y416412D01*
X508099Y416342D01*
X508275Y416154D01*
X508427Y415981D01*
X511964Y412443D01*
X513589Y408522D01*
X513589Y404278D01*
X511964Y400357D01*
X508963Y397356D01*
X505042Y395731D01*
X485558Y395731D01*
G37*
%LPD*%
%LPC*%
G36*
X517913Y601344D02*
X517913Y601344D01*
X513501Y603172D01*
X510125Y606548D01*
X508298Y610959D01*
X508298Y633641D01*
X510125Y638052D01*
X513501Y641428D01*
X517913Y643256D01*
X522687Y643256D01*
X527099Y641428D01*
X530475Y638052D01*
X532302Y633641D01*
X532302Y610959D01*
X530475Y606548D01*
X527099Y603172D01*
X522687Y601344D01*
X517913Y601344D01*
G37*
%LPD*%
%LPC*%
G36*
X112313Y601344D02*
X112313Y601344D01*
X107901Y603172D01*
X104525Y606548D01*
X102698Y610959D01*
X102698Y633641D01*
X104525Y638052D01*
X107901Y641428D01*
X112313Y643256D01*
X117087Y643256D01*
X121499Y641428D01*
X124875Y638052D01*
X126702Y633641D01*
X126702Y610959D01*
X124875Y606548D01*
X121499Y603172D01*
X117087Y601344D01*
X112313Y601344D01*
G37*
%LPD*%
%LPC*%
G36*
X86626Y534669D02*
X86626Y534669D01*
X82425Y536410D01*
X79210Y539625D01*
X77469Y543826D01*
X77469Y548374D01*
X79210Y552575D01*
X82425Y555790D01*
X86626Y557531D01*
X91174Y557531D01*
X95375Y555790D01*
X98590Y552575D01*
X100331Y548374D01*
X100331Y543826D01*
X98590Y539625D01*
X95375Y536410D01*
X91174Y534669D01*
X86626Y534669D01*
G37*
%LPD*%
%LPC*%
G36*
X188226Y534669D02*
X188226Y534669D01*
X184025Y536410D01*
X180810Y539625D01*
X179069Y543826D01*
X179069Y548374D01*
X180810Y552575D01*
X184025Y555790D01*
X188226Y557531D01*
X192774Y557531D01*
X196975Y555790D01*
X200190Y552575D01*
X201931Y548374D01*
X201931Y543826D01*
X200190Y539625D01*
X196975Y536410D01*
X192774Y534669D01*
X188226Y534669D01*
G37*
%LPD*%
%LPC*%
G36*
X569226Y553719D02*
X569226Y553719D01*
X565025Y555460D01*
X561810Y558675D01*
X560069Y562876D01*
X560069Y567424D01*
X561810Y571625D01*
X565025Y574840D01*
X569226Y576581D01*
X573774Y576581D01*
X577975Y574840D01*
X581190Y571625D01*
X582931Y567424D01*
X582931Y562876D01*
X581190Y558675D01*
X577975Y555460D01*
X573774Y553719D01*
X569226Y553719D01*
G37*
%LPD*%
%LPC*%
G36*
X415102Y644397D02*
X415102Y644397D01*
X409396Y650103D01*
X409220Y650258D01*
X409049Y650419D01*
X408981Y650469D01*
X408918Y650524D01*
X408724Y650656D01*
X408534Y650795D01*
X408461Y650835D01*
X408391Y650882D01*
X408182Y650989D01*
X407976Y651103D01*
X407898Y651134D01*
X407824Y651172D01*
X407603Y651251D01*
X407385Y651339D01*
X407303Y651360D01*
X407224Y651388D01*
X406995Y651439D01*
X406768Y651498D01*
X406685Y651509D01*
X406603Y651527D01*
X406369Y651550D01*
X406136Y651580D01*
X406052Y651580D01*
X405969Y651588D01*
X405734Y651581D01*
X405499Y651581D01*
X405415Y651571D01*
X405332Y651568D01*
X405099Y651532D01*
X404866Y651503D01*
X404785Y651482D01*
X404702Y651469D01*
X404477Y651404D01*
X404249Y651346D01*
X404171Y651316D01*
X404090Y651292D01*
X403875Y651199D01*
X403656Y651114D01*
X403582Y651073D01*
X403505Y651040D01*
X403303Y650921D01*
X403097Y650808D01*
X403029Y650759D01*
X402956Y650717D01*
X402770Y650573D01*
X402580Y650436D01*
X402519Y650378D01*
X402452Y650327D01*
X402286Y650161D01*
X402114Y650001D01*
X402061Y649937D01*
X402001Y649877D01*
X401843Y649674D01*
X401695Y649497D01*
X400675Y648093D01*
X399657Y647075D01*
X398779Y646437D01*
X398779Y654050D01*
X398779Y661663D01*
X399657Y661025D01*
X400675Y660007D01*
X401695Y658603D01*
X401793Y658486D01*
X401873Y658374D01*
X401926Y658318D01*
X401989Y658236D01*
X402048Y658177D01*
X402102Y658112D01*
X402235Y657987D01*
X402308Y657909D01*
X402351Y657873D01*
X402439Y657785D01*
X402505Y657733D01*
X402566Y657676D01*
X402739Y657550D01*
X402798Y657501D01*
X402827Y657483D01*
X402941Y657393D01*
X403013Y657351D01*
X403081Y657301D01*
X403287Y657188D01*
X403302Y657179D01*
X403335Y657158D01*
X403347Y657152D01*
X403489Y657068D01*
X403566Y657035D01*
X403639Y656994D01*
X403858Y656908D01*
X404073Y656814D01*
X404154Y656790D01*
X404232Y656759D01*
X404459Y656701D01*
X404685Y656635D01*
X404767Y656621D01*
X404849Y656600D01*
X405082Y656571D01*
X405314Y656533D01*
X405397Y656530D01*
X405481Y656520D01*
X405716Y656520D01*
X405950Y656512D01*
X406034Y656519D01*
X406118Y656519D01*
X406351Y656548D01*
X406585Y656570D01*
X406667Y656588D01*
X406750Y656598D01*
X406978Y656656D01*
X407207Y656707D01*
X407286Y656735D01*
X407367Y656756D01*
X407586Y656842D01*
X407807Y656921D01*
X407882Y656959D01*
X407960Y656990D01*
X408166Y657102D01*
X408220Y657130D01*
X408262Y657149D01*
X408274Y657157D01*
X408376Y657208D01*
X408445Y657255D01*
X408519Y657296D01*
X408703Y657429D01*
X408800Y657490D01*
X408829Y657514D01*
X408904Y657565D01*
X408966Y657619D01*
X409035Y657669D01*
X409174Y657799D01*
X409291Y657896D01*
X409340Y657948D01*
X409396Y657997D01*
X415102Y663703D01*
X423098Y663703D01*
X428753Y658048D01*
X428753Y650052D01*
X423098Y644397D01*
X415102Y644397D01*
G37*
%LPD*%
%LPC*%
G36*
X226680Y625347D02*
X226680Y625347D01*
X223132Y626817D01*
X220417Y629532D01*
X218947Y633080D01*
X218947Y636920D01*
X220417Y640468D01*
X223151Y643202D01*
X223181Y643217D01*
X223361Y643294D01*
X223467Y643357D01*
X223577Y643411D01*
X223741Y643518D01*
X223910Y643618D01*
X224007Y643693D01*
X224110Y643760D01*
X224259Y643887D01*
X224414Y644007D01*
X224501Y644094D01*
X224594Y644174D01*
X224726Y644318D01*
X224865Y644457D01*
X224941Y644554D01*
X225023Y644645D01*
X225136Y644805D01*
X225256Y644960D01*
X225319Y645066D01*
X225390Y645166D01*
X225482Y645339D01*
X225582Y645508D01*
X225631Y645620D01*
X225689Y645729D01*
X225758Y645912D01*
X225836Y646092D01*
X225871Y646210D01*
X225914Y646325D01*
X225960Y646515D01*
X226015Y646703D01*
X226035Y646824D01*
X226064Y646944D01*
X226086Y647139D01*
X226117Y647332D01*
X226121Y647455D01*
X226134Y647577D01*
X226132Y647773D01*
X226138Y647969D01*
X226127Y648091D01*
X226125Y648214D01*
X226098Y648408D01*
X226080Y648603D01*
X226054Y648724D01*
X226036Y648845D01*
X225985Y649034D01*
X225943Y649226D01*
X225902Y649341D01*
X225869Y649460D01*
X225795Y649641D01*
X225729Y649826D01*
X225673Y649935D01*
X225627Y650049D01*
X225530Y650220D01*
X225442Y650394D01*
X225373Y650496D01*
X225312Y650603D01*
X225195Y650760D01*
X225085Y650922D01*
X225006Y651013D01*
X224931Y651114D01*
X224783Y651267D01*
X224653Y651415D01*
X220747Y655321D01*
X228600Y655321D01*
X236453Y655321D01*
X232547Y651415D01*
X232418Y651268D01*
X232281Y651127D01*
X232207Y651029D01*
X232126Y650937D01*
X232016Y650775D01*
X231898Y650618D01*
X231837Y650512D01*
X231768Y650410D01*
X231679Y650235D01*
X231581Y650065D01*
X231534Y649952D01*
X231478Y649842D01*
X231412Y649658D01*
X231336Y649477D01*
X231304Y649359D01*
X231262Y649243D01*
X231219Y649052D01*
X231167Y648863D01*
X231150Y648741D01*
X231123Y648621D01*
X231104Y648426D01*
X231076Y648232D01*
X231074Y648109D01*
X231062Y647987D01*
X231068Y647792D01*
X231065Y647595D01*
X231078Y647473D01*
X231082Y647350D01*
X231112Y647157D01*
X231133Y646962D01*
X231162Y646842D01*
X231181Y646721D01*
X231235Y646532D01*
X231280Y646342D01*
X231323Y646227D01*
X231358Y646109D01*
X231435Y645929D01*
X231504Y645746D01*
X231561Y645637D01*
X231610Y645524D01*
X231709Y645355D01*
X231800Y645182D01*
X231871Y645081D01*
X231933Y644975D01*
X232053Y644820D01*
X232165Y644659D01*
X232248Y644568D01*
X232323Y644471D01*
X232461Y644332D01*
X232593Y644187D01*
X232686Y644107D01*
X232773Y644019D01*
X232927Y643899D01*
X233076Y643771D01*
X233178Y643703D01*
X233275Y643628D01*
X233444Y643528D01*
X233607Y643420D01*
X233715Y643367D01*
X233823Y643302D01*
X234018Y643217D01*
X234048Y643203D01*
X236783Y640468D01*
X238253Y636920D01*
X238253Y633080D01*
X236783Y629532D01*
X234068Y626817D01*
X230520Y625347D01*
X226680Y625347D01*
G37*
%LPD*%
%LPC*%
G36*
X169779Y627379D02*
X169779Y627379D01*
X169779Y641591D01*
X169795Y641584D01*
X171100Y640831D01*
X172295Y639914D01*
X173360Y638849D01*
X174278Y637653D01*
X175031Y636348D01*
X175608Y634956D01*
X175998Y633501D01*
X176194Y632007D01*
X176194Y627379D01*
X169779Y627379D01*
G37*
%LPD*%
%LPC*%
G36*
X475379Y627379D02*
X475379Y627379D01*
X475379Y641591D01*
X475395Y641584D01*
X476700Y640831D01*
X477895Y639914D01*
X478960Y638849D01*
X479878Y637653D01*
X480631Y636348D01*
X481208Y634956D01*
X481598Y633501D01*
X481794Y632007D01*
X481794Y627379D01*
X475379Y627379D01*
G37*
%LPD*%
%LPC*%
G36*
X475379Y617221D02*
X475379Y617221D01*
X481794Y617221D01*
X481794Y612593D01*
X481598Y611099D01*
X481208Y609644D01*
X480631Y608252D01*
X479878Y606947D01*
X478960Y605751D01*
X477895Y604686D01*
X476700Y603769D01*
X475395Y603016D01*
X475379Y603009D01*
X475379Y617221D01*
G37*
%LPD*%
%LPC*%
G36*
X169779Y617221D02*
X169779Y617221D01*
X176194Y617221D01*
X176194Y612593D01*
X175998Y611099D01*
X175608Y609644D01*
X175031Y608252D01*
X174278Y606947D01*
X173360Y605751D01*
X172295Y604686D01*
X171100Y603769D01*
X169795Y603016D01*
X169779Y603009D01*
X169779Y617221D01*
G37*
%LPD*%
%LPC*%
G36*
X458806Y627379D02*
X458806Y627379D01*
X458806Y632007D01*
X459002Y633501D01*
X459392Y634956D01*
X459969Y636348D01*
X460722Y637653D01*
X461640Y638849D01*
X462705Y639914D01*
X463900Y640831D01*
X465205Y641584D01*
X465221Y641591D01*
X465221Y627379D01*
X458806Y627379D01*
G37*
%LPD*%
%LPC*%
G36*
X153206Y627379D02*
X153206Y627379D01*
X153206Y632007D01*
X153402Y633501D01*
X153792Y634956D01*
X154369Y636348D01*
X155122Y637653D01*
X156040Y638849D01*
X157105Y639914D01*
X158300Y640831D01*
X159605Y641584D01*
X159621Y641591D01*
X159621Y627379D01*
X153206Y627379D01*
G37*
%LPD*%
%LPC*%
G36*
X159605Y603016D02*
X159605Y603016D01*
X158300Y603769D01*
X157105Y604686D01*
X156040Y605751D01*
X155122Y606947D01*
X154369Y608252D01*
X153792Y609644D01*
X153402Y611099D01*
X153206Y612593D01*
X153206Y617221D01*
X159621Y617221D01*
X159621Y603009D01*
X159605Y603016D01*
G37*
%LPD*%
%LPC*%
G36*
X465205Y603016D02*
X465205Y603016D01*
X463900Y603769D01*
X462705Y604686D01*
X461640Y605751D01*
X460722Y606947D01*
X459969Y608252D01*
X459392Y609644D01*
X459002Y611099D01*
X458806Y612593D01*
X458806Y617221D01*
X465221Y617221D01*
X465221Y603009D01*
X465205Y603016D01*
G37*
%LPD*%
%LPC*%
G36*
X599259Y464629D02*
X599259Y464629D01*
X599259Y466050D01*
X599357Y466541D01*
X599548Y467003D01*
X599827Y467420D01*
X600180Y467773D01*
X600597Y468052D01*
X601059Y468243D01*
X601550Y468341D01*
X617221Y468341D01*
X617221Y464629D01*
X599259Y464629D01*
G37*
%LPD*%
%LPC*%
G36*
X599259Y409129D02*
X599259Y409129D01*
X599259Y410550D01*
X599357Y411041D01*
X599548Y411503D01*
X599827Y411920D01*
X600180Y412273D01*
X600597Y412552D01*
X601059Y412743D01*
X601550Y412841D01*
X617221Y412841D01*
X617221Y409129D01*
X599259Y409129D01*
G37*
%LPD*%
%LPC*%
G36*
X601550Y450759D02*
X601550Y450759D01*
X601059Y450857D01*
X600597Y451048D01*
X600180Y451327D01*
X599827Y451680D01*
X599548Y452097D01*
X599357Y452559D01*
X599259Y453050D01*
X599259Y454471D01*
X617221Y454471D01*
X617221Y450759D01*
X601550Y450759D01*
G37*
%LPD*%
%LPC*%
G36*
X601550Y395259D02*
X601550Y395259D01*
X601059Y395357D01*
X600597Y395548D01*
X600180Y395827D01*
X599827Y396180D01*
X599548Y396597D01*
X599357Y397059D01*
X599259Y397550D01*
X599259Y398971D01*
X617221Y398971D01*
X617221Y395259D01*
X601550Y395259D01*
G37*
%LPD*%
%LPC*%
G36*
X576579Y640079D02*
X576579Y640079D01*
X576579Y645161D01*
X579920Y645161D01*
X581499Y644911D01*
X583020Y644416D01*
X584445Y643690D01*
X585739Y642750D01*
X586870Y641619D01*
X587810Y640325D01*
X587936Y640079D01*
X576579Y640079D01*
G37*
%LPD*%
%LPC*%
G36*
X500379Y436879D02*
X500379Y436879D01*
X500379Y441961D01*
X503720Y441961D01*
X505299Y441711D01*
X506820Y441216D01*
X508245Y440490D01*
X509539Y439550D01*
X510670Y438419D01*
X511610Y437125D01*
X511736Y436879D01*
X500379Y436879D01*
G37*
%LPD*%
%LPC*%
G36*
X555064Y640079D02*
X555064Y640079D01*
X555190Y640325D01*
X556130Y641619D01*
X557261Y642750D01*
X558555Y643690D01*
X559980Y644416D01*
X561501Y644911D01*
X563080Y645161D01*
X566421Y645161D01*
X566421Y640079D01*
X555064Y640079D01*
G37*
%LPD*%
%LPC*%
G36*
X478864Y436879D02*
X478864Y436879D01*
X478990Y437125D01*
X479930Y438419D01*
X481061Y439550D01*
X482355Y440490D01*
X483780Y441216D01*
X485301Y441711D01*
X486880Y441961D01*
X490221Y441961D01*
X490221Y436879D01*
X478864Y436879D01*
G37*
%LPD*%
%LPC*%
G36*
X40639Y589279D02*
X40639Y589279D01*
X40639Y592620D01*
X40889Y594199D01*
X41384Y595720D01*
X42110Y597145D01*
X43050Y598439D01*
X44181Y599570D01*
X45475Y600510D01*
X45721Y600636D01*
X45721Y589279D01*
X40639Y589279D01*
G37*
%LPD*%
%LPC*%
G36*
X45475Y567890D02*
X45475Y567890D01*
X44181Y568830D01*
X43050Y569961D01*
X42110Y571255D01*
X41384Y572680D01*
X40889Y574201D01*
X40639Y575780D01*
X40639Y579121D01*
X45721Y579121D01*
X45721Y567764D01*
X45475Y567890D01*
G37*
%LPD*%
%LPC*%
G36*
X386079Y363221D02*
X386079Y363221D01*
X388927Y363221D01*
X388169Y362177D01*
X387123Y361131D01*
X386885Y360958D01*
X386079Y360373D01*
X386079Y363221D01*
G37*
%LPD*%
%LPC*%
G36*
X374877Y361131D02*
X374877Y361131D01*
X373831Y362177D01*
X373073Y363221D01*
X375921Y363221D01*
X375921Y360373D01*
X374877Y361131D01*
G37*
%LPD*%
%LPC*%
G36*
X233679Y665479D02*
X233679Y665479D01*
X233679Y668253D01*
X236453Y665479D01*
X233679Y665479D01*
G37*
%LPD*%
%LPC*%
G36*
X220747Y665479D02*
X220747Y665479D01*
X223521Y668253D01*
X223521Y665479D01*
X220747Y665479D01*
G37*
%LPD*%
%LPC*%
G36*
X386087Y659129D02*
X386087Y659129D01*
X386725Y660007D01*
X387743Y661025D01*
X388621Y661663D01*
X388621Y659129D01*
X386087Y659129D01*
G37*
%LPD*%
%LPC*%
G36*
X387743Y647075D02*
X387743Y647075D01*
X386725Y648093D01*
X386087Y648971D01*
X388621Y648971D01*
X388621Y646437D01*
X387743Y647075D01*
G37*
%LPD*%
D10*
X164700Y631254D02*
X164700Y613347D01*
X114700Y613347D02*
X114700Y631254D01*
X520300Y631254D02*
X520300Y613347D01*
X470300Y613347D02*
X470300Y631254D01*
D11*
X228600Y660400D03*
D12*
X228600Y635000D03*
D13*
X419100Y654050D03*
D12*
X393700Y654050D03*
D14*
X88900Y546100D03*
X190500Y546100D03*
X571500Y463550D03*
X571500Y565150D03*
D15*
X50800Y576580D02*
X50800Y591820D01*
X76200Y591820D02*
X76200Y576580D01*
X563880Y609600D02*
X579120Y609600D01*
X579120Y635000D02*
X563880Y635000D01*
D16*
X304800Y444500D03*
D17*
X304800Y419100D03*
X304800Y393700D03*
X304800Y368300D03*
X381000Y368300D03*
X381000Y393700D03*
X381000Y419100D03*
X381000Y444500D03*
D15*
X52070Y381000D02*
X36830Y381000D01*
X36830Y406400D02*
X52070Y406400D01*
X487680Y406400D02*
X502920Y406400D01*
X502920Y431800D02*
X487680Y431800D01*
D18*
X622300Y404050D03*
X622300Y459550D03*
D19*
X88900Y279400D03*
X171450Y292100D03*
X76200Y342900D03*
X88900Y241300D03*
X209550Y292100D03*
X336550Y292100D03*
X292100Y342900D03*
X254000Y323850D03*
X152400Y438150D03*
X76200Y393700D03*
X101600Y431800D03*
X63500Y469900D03*
X254000Y495300D03*
X203200Y495300D03*
X431800Y546100D03*
X431800Y495300D03*
X419100Y355600D03*
X342900Y368300D03*
X622300Y381000D03*
X622300Y482600D03*
X546100Y444500D03*
X584200Y444500D03*
X533400Y406400D03*
X584200Y381000D03*
X514350Y393700D03*
X508000Y444500D03*
X571500Y508000D03*
X609600Y635000D03*
X406400Y266700D03*
X292100Y292100D03*
X292100Y317500D03*
X254000Y292100D03*
X184150Y361950D03*
X152400Y393700D03*
X127000Y393700D03*
X139700Y342900D03*
X101600Y520700D03*
X139700Y520700D03*
X304800Y241300D03*
X279400Y241300D03*
X355600Y571500D03*
X355600Y546100D03*
X355600Y495300D03*
X342900Y444500D03*
X254000Y438150D03*
D20*
X571500Y463550D02*
X571500Y406400D01*
D19*
X571500Y406400D03*
M02*
