G04 EAGLE Gerber RS-274X export*
G75*
%MOMM*%
%FSLAX34Y34*%
%LPD*%
%IN*%
%IPPOS*%
%AMOC8*
5,1,8,0,0,1.08239X$1,22.5*%
G01*
%ADD10C,0.254000*%


D10*
X0Y739650D02*
X6350Y184150D01*
X666550Y184150D01*
X660200Y739650D01*
X0Y739650D01*
X55245Y697939D02*
X55172Y696819D01*
X55025Y695706D01*
X54806Y694605D01*
X54516Y693520D01*
X54155Y692457D01*
X53725Y691420D01*
X53229Y690414D01*
X52667Y689441D01*
X52044Y688508D01*
X51360Y687618D01*
X50620Y686774D01*
X49826Y685980D01*
X48983Y685240D01*
X48092Y684556D01*
X47159Y683933D01*
X46186Y683371D01*
X45180Y682875D01*
X44143Y682445D01*
X43080Y682084D01*
X41995Y681794D01*
X40894Y681575D01*
X39781Y681428D01*
X38661Y681355D01*
X37539Y681355D01*
X36419Y681428D01*
X35306Y681575D01*
X34205Y681794D01*
X33120Y682084D01*
X32057Y682445D01*
X31020Y682875D01*
X30014Y683371D01*
X29041Y683933D01*
X28108Y684556D01*
X27218Y685240D01*
X26374Y685980D01*
X25580Y686774D01*
X24840Y687618D01*
X24156Y688508D01*
X23533Y689441D01*
X22971Y690414D01*
X22475Y691420D01*
X22045Y692457D01*
X21684Y693520D01*
X21394Y694605D01*
X21175Y695706D01*
X21028Y696819D01*
X20955Y697939D01*
X20955Y699061D01*
X21028Y700181D01*
X21175Y701294D01*
X21394Y702395D01*
X21684Y703480D01*
X22045Y704543D01*
X22475Y705580D01*
X22971Y706586D01*
X23533Y707559D01*
X24156Y708492D01*
X24840Y709383D01*
X25580Y710226D01*
X26374Y711020D01*
X27218Y711760D01*
X28108Y712444D01*
X29041Y713067D01*
X30014Y713629D01*
X31020Y714125D01*
X32057Y714555D01*
X33120Y714916D01*
X34205Y715206D01*
X35306Y715425D01*
X36419Y715572D01*
X37539Y715645D01*
X38661Y715645D01*
X39781Y715572D01*
X40894Y715425D01*
X41995Y715206D01*
X43080Y714916D01*
X44143Y714555D01*
X45180Y714125D01*
X46186Y713629D01*
X47159Y713067D01*
X48092Y712444D01*
X48983Y711760D01*
X49826Y711020D01*
X50620Y710226D01*
X51360Y709383D01*
X52044Y708492D01*
X52667Y707559D01*
X53229Y706586D01*
X53725Y705580D01*
X54155Y704543D01*
X54516Y703480D01*
X54806Y702395D01*
X55025Y701294D01*
X55172Y700181D01*
X55245Y699061D01*
X55245Y697939D01*
X633095Y697939D02*
X633022Y696819D01*
X632875Y695706D01*
X632656Y694605D01*
X632366Y693520D01*
X632005Y692457D01*
X631575Y691420D01*
X631079Y690414D01*
X630517Y689441D01*
X629894Y688508D01*
X629210Y687618D01*
X628470Y686774D01*
X627676Y685980D01*
X626833Y685240D01*
X625942Y684556D01*
X625009Y683933D01*
X624036Y683371D01*
X623030Y682875D01*
X621993Y682445D01*
X620930Y682084D01*
X619845Y681794D01*
X618744Y681575D01*
X617631Y681428D01*
X616511Y681355D01*
X615389Y681355D01*
X614269Y681428D01*
X613156Y681575D01*
X612055Y681794D01*
X610970Y682084D01*
X609907Y682445D01*
X608870Y682875D01*
X607864Y683371D01*
X606891Y683933D01*
X605958Y684556D01*
X605068Y685240D01*
X604224Y685980D01*
X603430Y686774D01*
X602690Y687618D01*
X602006Y688508D01*
X601383Y689441D01*
X600821Y690414D01*
X600325Y691420D01*
X599895Y692457D01*
X599534Y693520D01*
X599244Y694605D01*
X599025Y695706D01*
X598878Y696819D01*
X598805Y697939D01*
X598805Y699061D01*
X598878Y700181D01*
X599025Y701294D01*
X599244Y702395D01*
X599534Y703480D01*
X599895Y704543D01*
X600325Y705580D01*
X600821Y706586D01*
X601383Y707559D01*
X602006Y708492D01*
X602690Y709383D01*
X603430Y710226D01*
X604224Y711020D01*
X605068Y711760D01*
X605958Y712444D01*
X606891Y713067D01*
X607864Y713629D01*
X608870Y714125D01*
X609907Y714555D01*
X610970Y714916D01*
X612055Y715206D01*
X613156Y715425D01*
X614269Y715572D01*
X615389Y715645D01*
X616511Y715645D01*
X617631Y715572D01*
X618744Y715425D01*
X619845Y715206D01*
X620930Y714916D01*
X621993Y714555D01*
X623030Y714125D01*
X624036Y713629D01*
X625009Y713067D01*
X625942Y712444D01*
X626833Y711760D01*
X627676Y711020D01*
X628470Y710226D01*
X629210Y709383D01*
X629894Y708492D01*
X630517Y707559D01*
X631079Y706586D01*
X631575Y705580D01*
X632005Y704543D01*
X632366Y703480D01*
X632656Y702395D01*
X632875Y701294D01*
X633022Y700181D01*
X633095Y699061D01*
X633095Y697939D01*
X55245Y228039D02*
X55172Y226919D01*
X55025Y225806D01*
X54806Y224705D01*
X54516Y223620D01*
X54155Y222557D01*
X53725Y221520D01*
X53229Y220514D01*
X52667Y219541D01*
X52044Y218608D01*
X51360Y217718D01*
X50620Y216874D01*
X49826Y216080D01*
X48983Y215340D01*
X48092Y214656D01*
X47159Y214033D01*
X46186Y213471D01*
X45180Y212975D01*
X44143Y212545D01*
X43080Y212184D01*
X41995Y211894D01*
X40894Y211675D01*
X39781Y211528D01*
X38661Y211455D01*
X37539Y211455D01*
X36419Y211528D01*
X35306Y211675D01*
X34205Y211894D01*
X33120Y212184D01*
X32057Y212545D01*
X31020Y212975D01*
X30014Y213471D01*
X29041Y214033D01*
X28108Y214656D01*
X27218Y215340D01*
X26374Y216080D01*
X25580Y216874D01*
X24840Y217718D01*
X24156Y218608D01*
X23533Y219541D01*
X22971Y220514D01*
X22475Y221520D01*
X22045Y222557D01*
X21684Y223620D01*
X21394Y224705D01*
X21175Y225806D01*
X21028Y226919D01*
X20955Y228039D01*
X20955Y229161D01*
X21028Y230281D01*
X21175Y231394D01*
X21394Y232495D01*
X21684Y233580D01*
X22045Y234643D01*
X22475Y235680D01*
X22971Y236686D01*
X23533Y237659D01*
X24156Y238592D01*
X24840Y239483D01*
X25580Y240326D01*
X26374Y241120D01*
X27218Y241860D01*
X28108Y242544D01*
X29041Y243167D01*
X30014Y243729D01*
X31020Y244225D01*
X32057Y244655D01*
X33120Y245016D01*
X34205Y245306D01*
X35306Y245525D01*
X36419Y245672D01*
X37539Y245745D01*
X38661Y245745D01*
X39781Y245672D01*
X40894Y245525D01*
X41995Y245306D01*
X43080Y245016D01*
X44143Y244655D01*
X45180Y244225D01*
X46186Y243729D01*
X47159Y243167D01*
X48092Y242544D01*
X48983Y241860D01*
X49826Y241120D01*
X50620Y240326D01*
X51360Y239483D01*
X52044Y238592D01*
X52667Y237659D01*
X53229Y236686D01*
X53725Y235680D01*
X54155Y234643D01*
X54516Y233580D01*
X54806Y232495D01*
X55025Y231394D01*
X55172Y230281D01*
X55245Y229161D01*
X55245Y228039D01*
X633095Y228039D02*
X633022Y226919D01*
X632875Y225806D01*
X632656Y224705D01*
X632366Y223620D01*
X632005Y222557D01*
X631575Y221520D01*
X631079Y220514D01*
X630517Y219541D01*
X629894Y218608D01*
X629210Y217718D01*
X628470Y216874D01*
X627676Y216080D01*
X626833Y215340D01*
X625942Y214656D01*
X625009Y214033D01*
X624036Y213471D01*
X623030Y212975D01*
X621993Y212545D01*
X620930Y212184D01*
X619845Y211894D01*
X618744Y211675D01*
X617631Y211528D01*
X616511Y211455D01*
X615389Y211455D01*
X614269Y211528D01*
X613156Y211675D01*
X612055Y211894D01*
X610970Y212184D01*
X609907Y212545D01*
X608870Y212975D01*
X607864Y213471D01*
X606891Y214033D01*
X605958Y214656D01*
X605068Y215340D01*
X604224Y216080D01*
X603430Y216874D01*
X602690Y217718D01*
X602006Y218608D01*
X601383Y219541D01*
X600821Y220514D01*
X600325Y221520D01*
X599895Y222557D01*
X599534Y223620D01*
X599244Y224705D01*
X599025Y225806D01*
X598878Y226919D01*
X598805Y228039D01*
X598805Y229161D01*
X598878Y230281D01*
X599025Y231394D01*
X599244Y232495D01*
X599534Y233580D01*
X599895Y234643D01*
X600325Y235680D01*
X600821Y236686D01*
X601383Y237659D01*
X602006Y238592D01*
X602690Y239483D01*
X603430Y240326D01*
X604224Y241120D01*
X605068Y241860D01*
X605958Y242544D01*
X606891Y243167D01*
X607864Y243729D01*
X608870Y244225D01*
X609907Y244655D01*
X610970Y245016D01*
X612055Y245306D01*
X613156Y245525D01*
X614269Y245672D01*
X615389Y245745D01*
X616511Y245745D01*
X617631Y245672D01*
X618744Y245525D01*
X619845Y245306D01*
X620930Y245016D01*
X621993Y244655D01*
X623030Y244225D01*
X624036Y243729D01*
X625009Y243167D01*
X625942Y242544D01*
X626833Y241860D01*
X627676Y241120D01*
X628470Y240326D01*
X629210Y239483D01*
X629894Y238592D01*
X630517Y237659D01*
X631079Y236686D01*
X631575Y235680D01*
X632005Y234643D01*
X632366Y233580D01*
X632656Y232495D01*
X632875Y231394D01*
X633022Y230281D01*
X633095Y229161D01*
X633095Y228039D01*
X556895Y228039D02*
X556822Y226919D01*
X556675Y225806D01*
X556456Y224705D01*
X556166Y223620D01*
X555805Y222557D01*
X555375Y221520D01*
X554879Y220514D01*
X554317Y219541D01*
X553694Y218608D01*
X553010Y217718D01*
X552270Y216874D01*
X551476Y216080D01*
X550633Y215340D01*
X549742Y214656D01*
X548809Y214033D01*
X547836Y213471D01*
X546830Y212975D01*
X545793Y212545D01*
X544730Y212184D01*
X543645Y211894D01*
X542544Y211675D01*
X541431Y211528D01*
X540311Y211455D01*
X539189Y211455D01*
X538069Y211528D01*
X536956Y211675D01*
X535855Y211894D01*
X534770Y212184D01*
X533707Y212545D01*
X532670Y212975D01*
X531664Y213471D01*
X530691Y214033D01*
X529758Y214656D01*
X528868Y215340D01*
X528024Y216080D01*
X527230Y216874D01*
X526490Y217718D01*
X525806Y218608D01*
X525183Y219541D01*
X524621Y220514D01*
X524125Y221520D01*
X523695Y222557D01*
X523334Y223620D01*
X523044Y224705D01*
X522825Y225806D01*
X522678Y226919D01*
X522605Y228039D01*
X522605Y229161D01*
X522678Y230281D01*
X522825Y231394D01*
X523044Y232495D01*
X523334Y233580D01*
X523695Y234643D01*
X524125Y235680D01*
X524621Y236686D01*
X525183Y237659D01*
X525806Y238592D01*
X526490Y239483D01*
X527230Y240326D01*
X528024Y241120D01*
X528868Y241860D01*
X529758Y242544D01*
X530691Y243167D01*
X531664Y243729D01*
X532670Y244225D01*
X533707Y244655D01*
X534770Y245016D01*
X535855Y245306D01*
X536956Y245525D01*
X538069Y245672D01*
X539189Y245745D01*
X540311Y245745D01*
X541431Y245672D01*
X542544Y245525D01*
X543645Y245306D01*
X544730Y245016D01*
X545793Y244655D01*
X546830Y244225D01*
X547836Y243729D01*
X548809Y243167D01*
X549742Y242544D01*
X550633Y241860D01*
X551476Y241120D01*
X552270Y240326D01*
X553010Y239483D01*
X553694Y238592D01*
X554317Y237659D01*
X554879Y236686D01*
X555375Y235680D01*
X555805Y234643D01*
X556166Y233580D01*
X556456Y232495D01*
X556675Y231394D01*
X556822Y230281D01*
X556895Y229161D01*
X556895Y228039D01*
X556895Y697939D02*
X556822Y696819D01*
X556675Y695706D01*
X556456Y694605D01*
X556166Y693520D01*
X555805Y692457D01*
X555375Y691420D01*
X554879Y690414D01*
X554317Y689441D01*
X553694Y688508D01*
X553010Y687618D01*
X552270Y686774D01*
X551476Y685980D01*
X550633Y685240D01*
X549742Y684556D01*
X548809Y683933D01*
X547836Y683371D01*
X546830Y682875D01*
X545793Y682445D01*
X544730Y682084D01*
X543645Y681794D01*
X542544Y681575D01*
X541431Y681428D01*
X540311Y681355D01*
X539189Y681355D01*
X538069Y681428D01*
X536956Y681575D01*
X535855Y681794D01*
X534770Y682084D01*
X533707Y682445D01*
X532670Y682875D01*
X531664Y683371D01*
X530691Y683933D01*
X529758Y684556D01*
X528868Y685240D01*
X528024Y685980D01*
X527230Y686774D01*
X526490Y687618D01*
X525806Y688508D01*
X525183Y689441D01*
X524621Y690414D01*
X524125Y691420D01*
X523695Y692457D01*
X523334Y693520D01*
X523044Y694605D01*
X522825Y695706D01*
X522678Y696819D01*
X522605Y697939D01*
X522605Y699061D01*
X522678Y700181D01*
X522825Y701294D01*
X523044Y702395D01*
X523334Y703480D01*
X523695Y704543D01*
X524125Y705580D01*
X524621Y706586D01*
X525183Y707559D01*
X525806Y708492D01*
X526490Y709383D01*
X527230Y710226D01*
X528024Y711020D01*
X528868Y711760D01*
X529758Y712444D01*
X530691Y713067D01*
X531664Y713629D01*
X532670Y714125D01*
X533707Y714555D01*
X534770Y714916D01*
X535855Y715206D01*
X536956Y715425D01*
X538069Y715572D01*
X539189Y715645D01*
X540311Y715645D01*
X541431Y715572D01*
X542544Y715425D01*
X543645Y715206D01*
X544730Y714916D01*
X545793Y714555D01*
X546830Y714125D01*
X547836Y713629D01*
X548809Y713067D01*
X549742Y712444D01*
X550633Y711760D01*
X551476Y711020D01*
X552270Y710226D01*
X553010Y709383D01*
X553694Y708492D01*
X554317Y707559D01*
X554879Y706586D01*
X555375Y705580D01*
X555805Y704543D01*
X556166Y703480D01*
X556456Y702395D01*
X556675Y701294D01*
X556822Y700181D01*
X556895Y699061D01*
X556895Y697939D01*
M02*
