G04 EAGLE Gerber RS-274X export*
G75*
%MOMM*%
%FSLAX34Y34*%
%LPD*%
%INSoldermask Bottom*%
%IPPOS*%
%AMOC8*
5,1,8,0,0,1.08239X$1,22.5*%
G01*
%ADD10C,3.632200*%
%ADD11C,1.993900*%
%ADD12P,1.649562X8X112.500000*%
%ADD13C,1.524000*%
%ADD14P,1.649562X8X22.500000*%
%ADD15R,2.003200X1.803200*%
%ADD16R,1.803200X2.003200*%
%ADD17C,1.879600*%
%ADD18C,1.727200*%
%ADD19R,1.574800X1.574800*%
%ADD20C,1.574800*%
%ADD21R,4.303200X1.453200*%
%ADD22C,0.959600*%


D10*
X38100Y698500D03*
X615950Y698500D03*
X38100Y228600D03*
X615950Y228600D03*
X539750Y228600D03*
X539750Y698500D03*
D11*
X164700Y631254D02*
X164700Y613347D01*
X114700Y613347D02*
X114700Y631254D01*
X520300Y631254D02*
X520300Y613347D01*
X470300Y613347D02*
X470300Y631254D01*
D12*
X228600Y635000D03*
D13*
X228600Y609600D03*
D14*
X393700Y622300D03*
D13*
X368300Y622300D03*
D15*
X323850Y373350D03*
X323850Y401350D03*
X317500Y344200D03*
X317500Y316200D03*
D16*
X405100Y419100D03*
X433100Y419100D03*
D17*
X88900Y546100D03*
X190500Y546100D03*
X571500Y469900D03*
X571500Y571500D03*
D18*
X50800Y576580D02*
X50800Y591820D01*
X76200Y591820D02*
X76200Y576580D01*
X563880Y609600D02*
X579120Y609600D01*
X579120Y635000D02*
X563880Y635000D01*
D19*
X304800Y444500D03*
D20*
X304800Y419100D03*
X304800Y393700D03*
X304800Y368300D03*
X381000Y368300D03*
X381000Y393700D03*
X381000Y419100D03*
X381000Y444500D03*
D18*
X52070Y381000D02*
X36830Y381000D01*
X36830Y406400D02*
X52070Y406400D01*
X462280Y406400D02*
X477520Y406400D01*
X477520Y431800D02*
X462280Y431800D01*
X464820Y533400D02*
X449580Y533400D01*
X449580Y508000D02*
X464820Y508000D01*
X355600Y337820D02*
X355600Y322580D01*
X381000Y322580D02*
X381000Y337820D01*
D21*
X622300Y404050D03*
X622300Y459550D03*
D16*
X405100Y444500D03*
X433100Y444500D03*
D22*
X88900Y279400D03*
X171450Y292100D03*
X76200Y342900D03*
X88900Y241300D03*
X209550Y292100D03*
X336550Y292100D03*
X292100Y342900D03*
X254000Y323850D03*
X152400Y438150D03*
X76200Y393700D03*
X101600Y431800D03*
X63500Y469900D03*
X254000Y495300D03*
X203200Y495300D03*
X431800Y546100D03*
X431800Y495300D03*
X419100Y355600D03*
X342900Y368300D03*
X622300Y381000D03*
X622300Y482600D03*
X546100Y444500D03*
X584200Y444500D03*
X533400Y406400D03*
X584200Y381000D03*
X508000Y406400D03*
X508000Y444500D03*
X571500Y508000D03*
X609600Y635000D03*
X406400Y266700D03*
X292100Y292100D03*
X292100Y317500D03*
X254000Y292100D03*
X184150Y361950D03*
X152400Y393700D03*
X127000Y393700D03*
X139700Y342900D03*
X101600Y520700D03*
X139700Y520700D03*
X304800Y241300D03*
X279400Y241300D03*
X355600Y571500D03*
X355600Y546100D03*
X355600Y495300D03*
X342900Y444500D03*
X254000Y438150D03*
X571500Y406400D03*
M02*
