G04 EAGLE Gerber RS-274X export*
G75*
%MOMM*%
%FSLAX34Y34*%
%LPD*%
%INSolderpaste Top*%
%IPPOS*%
%AMOC8*
5,1,8,0,0,1.08239X$1,22.5*%
G01*
%ADD10R,1.600000X1.800000*%
%ADD11R,1.800000X1.600000*%
%ADD12R,1.200000X1.200000*%
%ADD13R,1.300000X1.500000*%
%ADD14R,1.500000X1.300000*%
%ADD15R,2.006600X1.092200*%
%ADD16R,4.100000X0.900000*%
%ADD17R,4.100000X1.250000*%
%ADD18R,0.700000X1.200000*%
%ADD19R,1.200000X0.700000*%


D10*
X306100Y323850D03*
X278100Y323850D03*
D11*
X266700Y420400D03*
X266700Y392400D03*
D10*
X328900Y323850D03*
X356900Y323850D03*
X417800Y438150D03*
X445800Y438150D03*
D12*
X228600Y535600D03*
X228600Y556600D03*
X520700Y543900D03*
X520700Y522900D03*
D13*
X288900Y520700D03*
X269900Y520700D03*
X85700Y419100D03*
X66700Y419100D03*
D14*
X228600Y517500D03*
X228600Y498500D03*
X520700Y492100D03*
X520700Y473100D03*
X266700Y365100D03*
X266700Y346100D03*
D13*
X288900Y546100D03*
X269900Y546100D03*
X288900Y495300D03*
X269900Y495300D03*
X288900Y571500D03*
X269900Y571500D03*
D14*
X419100Y390500D03*
X419100Y371500D03*
D13*
X85700Y368300D03*
X66700Y368300D03*
D15*
X310642Y546100D03*
X400558Y546100D03*
X310642Y571500D03*
X400558Y571500D03*
X310642Y520700D03*
X400558Y520700D03*
X400558Y495300D03*
X310642Y495300D03*
D16*
X622300Y431800D03*
D17*
X622300Y404050D03*
X622300Y459550D03*
D10*
X119350Y419100D03*
X147350Y419100D03*
X119350Y368300D03*
X147350Y368300D03*
D13*
X225400Y425450D03*
X206400Y425450D03*
D14*
X177800Y441300D03*
X177800Y422300D03*
X177800Y339700D03*
X177800Y320700D03*
D10*
X417800Y412750D03*
X445800Y412750D03*
D18*
X596900Y532850D03*
X596900Y495850D03*
D19*
X151850Y508000D03*
X114850Y508000D03*
M02*
