G04 EAGLE Gerber RS-274X export*
G75*
%MOMM*%
%FSLAX34Y34*%
%LPD*%
%INSoldermask Top*%
%IPPOS*%
%AMOC8*
5,1,8,0,0,1.08239X$1,22.5*%
G01*
%ADD10C,3.632200*%
%ADD11C,1.993900*%
%ADD12P,1.649562X8X112.500000*%
%ADD13C,1.524000*%
%ADD14P,1.649562X8X22.500000*%
%ADD15R,1.803200X2.003200*%
%ADD16R,2.003200X1.803200*%
%ADD17C,1.879600*%
%ADD18C,1.727200*%
%ADD19R,1.403200X1.403200*%
%ADD20R,1.503200X1.703200*%
%ADD21R,1.703200X1.503200*%
%ADD22R,2.209800X1.295400*%
%ADD23C,2.743200*%
%ADD24R,1.574800X1.574800*%
%ADD25C,1.574800*%
%ADD26R,4.303200X1.103200*%
%ADD27R,4.303200X1.453200*%
%ADD28R,2.235200X4.267200*%
%ADD29R,4.267200X2.235200*%
%ADD30R,0.903200X1.403200*%
%ADD31R,1.403200X0.903200*%
%ADD32C,0.959600*%


D10*
X38100Y698500D03*
X615950Y698500D03*
X38100Y228600D03*
X615950Y228600D03*
X539750Y228600D03*
X539750Y698500D03*
D11*
X164700Y631254D02*
X164700Y613347D01*
X114700Y613347D02*
X114700Y631254D01*
X520300Y631254D02*
X520300Y613347D01*
X470300Y613347D02*
X470300Y631254D01*
D12*
X228600Y660400D03*
D13*
X228600Y635000D03*
D14*
X419100Y654050D03*
D13*
X393700Y654050D03*
D15*
X306100Y323850D03*
X278100Y323850D03*
D16*
X266700Y420400D03*
X266700Y392400D03*
D15*
X328900Y323850D03*
X356900Y323850D03*
X417800Y438150D03*
X445800Y438150D03*
D17*
X88900Y546100D03*
X190500Y546100D03*
X571500Y463550D03*
X571500Y565150D03*
D18*
X50800Y576580D02*
X50800Y591820D01*
X76200Y591820D02*
X76200Y576580D01*
X563880Y609600D02*
X579120Y609600D01*
X579120Y635000D02*
X563880Y635000D01*
D19*
X228600Y535600D03*
X228600Y556600D03*
X520700Y543900D03*
X520700Y522900D03*
D20*
X288900Y520700D03*
X269900Y520700D03*
X85700Y419100D03*
X66700Y419100D03*
D21*
X228600Y517500D03*
X228600Y498500D03*
X520700Y492100D03*
X520700Y473100D03*
X266700Y365100D03*
X266700Y346100D03*
D20*
X288900Y546100D03*
X269900Y546100D03*
X288900Y495300D03*
X269900Y495300D03*
X288900Y571500D03*
X269900Y571500D03*
D21*
X419100Y390500D03*
X419100Y371500D03*
D20*
X85700Y368300D03*
X66700Y368300D03*
D22*
X310642Y546100D03*
X400558Y546100D03*
X310642Y571500D03*
X400558Y571500D03*
X310642Y520700D03*
X400558Y520700D03*
X400558Y495300D03*
X310642Y495300D03*
D23*
X50800Y533400D03*
X609600Y558800D03*
D24*
X304800Y444500D03*
D25*
X304800Y419100D03*
X304800Y393700D03*
X304800Y368300D03*
X381000Y368300D03*
X381000Y393700D03*
X381000Y419100D03*
X381000Y444500D03*
D18*
X52070Y381000D02*
X36830Y381000D01*
X36830Y406400D02*
X52070Y406400D01*
X487680Y406400D02*
X502920Y406400D01*
X502920Y431800D02*
X487680Y431800D01*
D26*
X622300Y431800D03*
D27*
X622300Y404050D03*
X622300Y459550D03*
D15*
X119350Y419100D03*
X147350Y419100D03*
X119350Y368300D03*
X147350Y368300D03*
D28*
X44450Y450850D03*
X44450Y323850D03*
D29*
X222250Y400050D03*
X222250Y374650D03*
X476250Y355600D03*
X406400Y304800D03*
X482600Y508000D03*
D20*
X225400Y425450D03*
X206400Y425450D03*
D21*
X177800Y441300D03*
X177800Y422300D03*
X177800Y339700D03*
X177800Y320700D03*
D29*
X152400Y215900D03*
D15*
X417800Y412750D03*
X445800Y412750D03*
D30*
X596900Y532850D03*
X596900Y495850D03*
D31*
X151850Y508000D03*
X114850Y508000D03*
D32*
X88900Y279400D03*
X171450Y292100D03*
X76200Y342900D03*
X88900Y241300D03*
X209550Y292100D03*
X336550Y292100D03*
X292100Y342900D03*
X254000Y323850D03*
X152400Y438150D03*
X76200Y393700D03*
X101600Y431800D03*
X63500Y469900D03*
X254000Y495300D03*
X203200Y495300D03*
X431800Y546100D03*
X431800Y495300D03*
X419100Y355600D03*
X342900Y368300D03*
X622300Y381000D03*
X622300Y482600D03*
X546100Y444500D03*
X584200Y444500D03*
X533400Y406400D03*
X584200Y381000D03*
X514350Y393700D03*
X508000Y444500D03*
X571500Y508000D03*
X609600Y635000D03*
X406400Y266700D03*
X292100Y292100D03*
X292100Y317500D03*
X254000Y292100D03*
X184150Y361950D03*
X152400Y393700D03*
X127000Y393700D03*
X139700Y342900D03*
X101600Y520700D03*
X139700Y520700D03*
X304800Y241300D03*
X279400Y241300D03*
X355600Y571500D03*
X355600Y546100D03*
X355600Y495300D03*
X342900Y444500D03*
X254000Y438150D03*
X571500Y406400D03*
M02*
