<?xml version="1.0" encoding="UTF-8" standalone="no"?>
<svg
   xmlns:dc="http://purl.org/dc/elements/1.1/"
   xmlns:cc="http://creativecommons.org/ns#"
   xmlns:rdf="http://www.w3.org/1999/02/22-rdf-syntax-ns#"
   xmlns:svg="http://www.w3.org/2000/svg"
   xmlns="http://www.w3.org/2000/svg"
   xmlns:sodipodi="http://sodipodi.sourceforge.net/DTD/sodipodi-0.dtd"
   xmlns:inkscape="http://www.inkscape.org/namespaces/inkscape"
   width="32.0mm"
   height="31.0mm"
   viewBox="0 0 32.0 31.0"
   version="1.1"
   id="svg1501"
   inkscape:version="1.0.2 (e86c870879, 2021-01-15, custom)"
   sodipodi:docname="drawing.svg">
  <defs
     id="defs1495" />
  <sodipodi:namedview
     id="base"
     pagecolor="#ffffff"
     bordercolor="#666666"
     borderopacity="1.0"
     inkscape:pageopacity="0.0"
     inkscape:pageshadow="2"
     inkscape:zoom="0.35"
     inkscape:cx="400"
     inkscape:cy="560"
     inkscape:document-units="mm"
     inkscape:current-layer="layer1"
     inkscape:document-rotation="0"
     showgrid="false"
     inkscape:window-width="1624"
     inkscape:window-height="1228"
     inkscape:window-x="190"
     inkscape:window-y="190"
     inkscape:window-maximized="0" />
  <metadata
     id="metadata1498">
    <rdf:RDF>
      <cc:Work
         rdf:about="">
        <dc:format>image/svg+xml</dc:format>
        <dc:type
           rdf:resource="http://purl.org/dc/dcmitype/StillImage" />
        <dc:title></dc:title>
      </cc:Work>
    </rdf:RDF>
  </metadata>
  <g
     inkscape:label="Layer 1"
     inkscape:groupmode="layer"
     id="layer1">
    <path
       style="fill:none;stroke:#000000;stroke-width:0.5px;stroke-linecap:butt;stroke-linejoin:miter;stroke-opacity:1;image-rendering:auto"
       d="M   10.73, 15.5 10.73, 15.72 10.73, 15.93 10.73, 16.15 10.73, 16.36 10.73, 16.58 10.73, 16.79 10.73, 17.01 10.73, 17.22 10.73, 17.44 10.73, 17.65 10.73, 17.86 10.73, 18.08 10.73, 18.29 10.73, 18.51 10.73, 18.72 10.73, 18.94 10.73, 19.15 10.73, 19.37 10.73, 19.58 10.73, 19.8 10.73, 20.01 10.73, 20.23 10.73, 20.44 10.73, 20.65 10.73, 20.87 10.73, 21.08 10.73, 21.3 10.73, 21.51 10.73, 21.73 10.73, 21.94 10.73, 22.16 10.73, 22.37 10.73, 22.59 10.73, 22.8 10.73, 23.02 10.73, 23.23 10.73, 23.44 10.73, 23.66 10.73, 23.87 10.73, 24.09 10.73, 24.3 10.8, 25.22 11.02, 26.13 11.23, 26.7 11.44, 27.15 11.66, 27.52 11.87, 27.84 12.09, 28.13 12.3, 28.39 12.52, 28.62 12.73, 28.83 12.95, 29.03 13.16, 29.21 13.38, 29.38 13.59, 29.53 13.81, 29.67 14.02, 29.81 14.23, 29.93 14.45, 30.05 14.66, 30.15 14.88, 30.25 15.09, 30.34 15.31, 30.43 15.52, 30.51 15.74, 30.58 15.95, 30.64 16.17, 30.7 16.38, 30.76 16.6, 30.8 16.81, 30.85 17.03, 30.88 17.24, 30.92 17.45, 30.94 17.67, 30.97 17.88, 30.98 18.1, 31.0 18.31, 31.0 18.53, 31.01 18.74, 31.01 18.96, 31.0 19.17, 30.99 19.39, 30.98 19.6, 30.96 19.82, 30.94 20.03, 30.91 20.24, 30.88 20.46, 30.84 20.67, 30.8 20.89, 30.76 21.1, 30.71 21.32, 30.65 21.53, 30.6 21.75, 30.54 21.96, 30.47 22.18, 30.4 22.39, 30.32 22.61, 30.24 22.82, 30.16 23.04, 30.07 23.25, 29.98 23.46, 29.88 23.68, 29.78 23.89, 29.67 24.11, 29.56 24.32, 29.44 24.54, 29.32 24.75, 29.19 24.97, 29.05 25.18, 28.91 25.4, 28.77 25.61, 28.62 25.83, 28.46 26.04, 28.3 26.25, 28.13 26.47, 27.95 26.68, 27.77 26.9, 27.57 27.11, 27.37 27.33, 27.17 27.54, 26.95 27.76, 26.73 27.97, 26.49 28.19, 26.25 28.4, 25.99 28.62, 25.73 28.83, 25.45 29.04, 25.16 29.26, 24.85 29.47, 24.53 29.69, 24.19 29.9, 23.83 30.12, 23.45 30.33, 23.04 30.55, 22.6 30.76, 22.13 30.98, 21.61 31.19, 21.04 31.41, 20.39 31.62, 19.65 31.84, 18.73 32.05, 17.45 32.12, 14.19 31.91, 12.64 31.69, 11.64 31.48, 10.85 31.26, 10.17 31.05, 9.58 30.83, 9.047 30.62, 8.56 30.4, 8.111 30.19, 7.694 29.97, 7.303 29.76, 6.936 29.55, 6.59 29.33, 6.261 29.12, 5.95 28.9, 5.653 28.69, 5.37 28.47, 5.1 28.26, 4.841 28.04, 4.594 27.83, 4.356 27.61, 4.129 27.4, 3.91 27.18, 3.701 26.97, 3.499 26.75, 3.305 26.54, 3.119 26.33, 2.939 26.11, 2.767 25.9, 2.601 25.68, 2.442 25.47, 2.289 25.25, 2.142 25.04, 2.0 24.82, 1.865 24.61, 1.735 24.39, 1.61 24.18, 1.49 23.96, 1.376 23.75, 1.266 23.54, 1.162 23.32, 1.062 23.11, 0.9672 22.89, 0.8769 22.68, 0.7913 22.46, 0.7103 22.25, 0.6338 22.03, 0.5617 21.82, 0.4941 21.6, 0.4308 21.39, 0.372 21.17, 0.3174 20.96, 0.2672 20.74, 0.2213 20.53, 0.1797 20.32, 0.1424 20.1, 0.1094 19.89, 0.08067 19.67, 0.05627 19.46, 0.0362 19.24, 0.02049 19.03, 0.009166 18.81, 0.002261 18.6, -0.0001812 18.38, 0.001887 18.17, 0.00852 17.95, 0.01978 17.74, 0.03575 17.53, 0.05649 17.31, 0.0821 17.1, 0.1127 16.88, 0.1484 16.67, 0.1892 16.45, 0.2355 16.24, 0.2872 16.02, 0.3446 15.81, 0.4079 15.59, 0.4772 15.38, 0.5529 15.16, 0.6352 14.95, 0.7244 14.74, 0.8208 14.52, 0.9249 14.31, 1.037 14.09, 1.158 13.88, 1.288 13.66, 1.428 13.45, 1.579 13.23, 1.742 13.02, 1.918 12.8, 2.108 12.59, 2.315 12.37, 2.542 12.16, 2.79 11.94, 3.066 11.73, 3.376 11.52, 3.731 11.3, 4.148 11.09, 4.669 10.87, 5.412 10.73, 6.634 10.73, 6.848 10.73, 7.063 10.73, 7.278 10.73, 7.492 10.73, 7.707 10.73, 7.922 10.73, 8.136 10.73, 8.351 10.73, 8.565 10.73, 8.78 10.73, 8.995 10.73, 9.209 10.73, 9.424 10.73, 9.638 10.73, 9.853 10.73, 10.07 10.73, 10.28 10.73, 10.5 10.73, 10.71 10.73, 10.93 10.73, 11.14 10.73, 11.36 10.73, 11.57 10.73, 11.78 10.73, 12.0 10.73, 12.21 10.73, 12.43 10.73, 12.64 10.73, 12.86 10.73, 13.07 10.73, 13.29 10.73, 13.5 10.73, 13.72 10.73, 13.93 10.73, 14.15 10.73, 14.36 10.73, 14.57 10.73, 14.79 10.73, 15.0 10.73, 15.22 10.73, 15.43  z"
       id="path2064" />
  </g>
</svg> 