<?xml version="1.0" encoding="UTF-8" standalone="no"?>
<svg
   xmlns:dc="http://purl.org/dc/elements/1.1/"
   xmlns:cc="http://creativecommons.org/ns#"
   xmlns:rdf="http://www.w3.org/1999/02/22-rdf-syntax-ns#"
   xmlns:svg="http://www.w3.org/2000/svg"
   xmlns="http://www.w3.org/2000/svg"
   xmlns:sodipodi="http://sodipodi.sourceforge.net/DTD/sodipodi-0.dtd"
   xmlns:inkscape="http://www.inkscape.org/namespaces/inkscape"
   width="44.0mm"
   height="42.0mm"
   viewBox="0 0 44.0 42.0"
   version="1.1"
   id="svg1501"
   inkscape:version="1.0.2 (e86c870879, 2021-01-15, custom)"
   sodipodi:docname="drawing.svg">
  <defs
     id="defs1495" />
  <sodipodi:namedview
     id="base"
     pagecolor="#ffffff"
     bordercolor="#666666"
     borderopacity="1.0"
     inkscape:pageopacity="0.0"
     inkscape:pageshadow="2"
     inkscape:zoom="0.35"
     inkscape:cx="400"
     inkscape:cy="560"
     inkscape:document-units="mm"
     inkscape:current-layer="layer1"
     inkscape:document-rotation="0"
     showgrid="false"
     inkscape:window-width="1624"
     inkscape:window-height="1228"
     inkscape:window-x="190"
     inkscape:window-y="190"
     inkscape:window-maximized="0" />
  <metadata
     id="metadata1498">
    <rdf:RDF>
      <cc:Work
         rdf:about="">
        <dc:format>image/svg+xml</dc:format>
        <dc:type
           rdf:resource="http://purl.org/dc/dcmitype/StillImage" />
        <dc:title></dc:title>
      </cc:Work>
    </rdf:RDF>
  </metadata>
  <g
     inkscape:label="Layer 1"
     inkscape:groupmode="layer"
     id="layer1">
    <path
       style="fill:none;stroke:#000000;stroke-width:0.5px;stroke-linecap:butt;stroke-linejoin:miter;stroke-opacity:1;image-rendering:auto"
       d="M   14.7, 21.24 14.7, 21.53 14.7, 21.82 14.7, 22.12 14.7, 22.41 14.7, 22.71 14.7, 23.0 14.7, 23.29 14.7, 23.59 14.7, 23.88 14.7, 24.18 14.7, 24.47 14.7, 24.76 14.7, 25.06 14.7, 25.35 14.7, 25.64 14.7, 25.94 14.7, 26.23 14.7, 26.53 14.7, 26.82 14.7, 27.11 14.7, 27.41 14.7, 27.7 14.7, 28.0 14.7, 28.29 14.7, 28.58 14.7, 28.88 14.7, 29.17 14.7, 29.47 14.7, 29.76 14.7, 30.05 14.7, 30.35 14.7, 30.64 14.7, 30.94 14.7, 31.23 14.7, 31.52 14.7, 31.82 14.7, 32.11 14.7, 32.41 14.7, 32.7 14.7, 32.99 14.7, 33.29 14.79, 34.54 15.09, 35.79 15.38, 36.57 15.68, 37.18 15.97, 37.69 16.26, 38.14 16.56, 38.53 16.85, 38.88 17.15, 39.2 17.44, 39.49 17.73, 39.76 18.03, 40.01 18.32, 40.24 18.62, 40.45 18.91, 40.65 19.2, 40.83 19.5, 41.0 19.79, 41.15 20.09, 41.3 20.38, 41.44 20.67, 41.56 20.97, 41.68 21.26, 41.78 21.56, 41.88 21.85, 41.97 22.14, 42.05 22.44, 42.13 22.73, 42.19 23.03, 42.25 23.32, 42.3 23.61, 42.35 23.91, 42.38 24.2, 42.41 24.5, 42.44 24.79, 42.46 25.08, 42.47 25.38, 42.47 25.67, 42.47 25.97, 42.46 26.26, 42.45 26.55, 42.43 26.85, 42.4 27.14, 42.37 27.44, 42.33 27.73, 42.29 28.02, 42.24 28.32, 42.19 28.61, 42.13 28.91, 42.06 29.2, 41.99 29.49, 41.91 29.79, 41.82 30.08, 41.73 30.38, 41.64 30.67, 41.53 30.96, 41.42 31.26, 41.31 31.55, 41.19 31.84, 41.06 32.14, 40.93 32.43, 40.78 32.73, 40.64 33.02, 40.48 33.31, 40.32 33.61, 40.15 33.9, 39.98 34.2, 39.79 34.49, 39.6 34.78, 39.4 35.08, 39.2 35.37, 38.98 35.67, 38.76 35.96, 38.52 36.25, 38.28 36.55, 38.03 36.84, 37.77 37.14, 37.49 37.43, 37.21 37.72, 36.92 38.02, 36.61 38.31, 36.29 38.61, 35.95 38.9, 35.6 39.19, 35.24 39.49, 34.86 39.78, 34.46 40.08, 34.04 40.37, 33.6 40.66, 33.13 40.96, 32.64 41.25, 32.11 41.55, 31.55 41.84, 30.95 42.13, 30.31 42.43, 29.6 42.72, 28.82 43.02, 27.93 43.31, 26.91 43.6, 25.65 43.9, 23.9 44.0, 19.44 43.7, 17.31 43.41, 15.94 43.11, 14.86 42.82, 13.93 42.53, 13.12 42.23, 12.39 41.94, 11.72 41.64, 11.11 41.35, 10.54 41.06, 10.0 40.76, 9.5 40.47, 9.026 40.17, 8.576 39.88, 8.149 39.59, 7.743 39.29, 7.355 39.0, 6.985 38.7, 6.631 38.41, 6.292 38.12, 5.967 37.82, 5.655 37.53, 5.356 37.23, 5.069 36.94, 4.792 36.65, 4.527 36.35, 4.272 36.06, 4.026 35.76, 3.79 35.47, 3.563 35.18, 3.345 34.88, 3.135 34.59, 2.934 34.29, 2.74 34.0, 2.554 33.71, 2.376 33.41, 2.205 33.12, 2.041 32.82, 1.884 32.53, 1.734 32.24, 1.591 31.94, 1.455 31.65, 1.325 31.35, 1.201 31.06, 1.084 30.77, 0.9729 30.47, 0.8681 30.18, 0.7694 29.88, 0.6767 29.59, 0.5901 29.3, 0.5095 29.0, 0.4348 28.71, 0.366 28.41, 0.3031 28.12, 0.2461 27.83, 0.195 27.53, 0.1498 27.24, 0.1105 26.94, 0.07707 26.65, 0.04958 26.36, 0.02807 26.06, 0.01255 25.77, 0.003097 25.47, -0.0002482 25.18, 0.002584 24.89, 0.01167 24.59, 0.0271 24.3, 0.04896 24.0, 0.07737 23.71, 0.1125 23.42, 0.1543 23.12, 0.2032 22.83, 0.2592 22.53, 0.3225 22.24, 0.3933 21.95, 0.472 21.65, 0.5586 21.36, 0.6536 21.06, 0.7573 20.77, 0.87 20.48, 0.9921 20.18, 1.124 19.89, 1.267 19.59, 1.421 19.3, 1.586 19.01, 1.764 18.71, 1.956 18.42, 2.163 18.12, 2.386 17.83, 2.627 17.54, 2.888 17.24, 3.171 16.95, 3.481 16.65, 3.822 16.36, 4.2 16.07, 4.624 15.77, 5.11 15.48, 5.682 15.18, 6.395 14.89, 7.413 14.7, 9.086 14.7, 9.38 14.7, 9.674 14.7, 9.968 14.7, 10.26 14.7, 10.56 14.7, 10.85 14.7, 11.14 14.7, 11.44 14.7, 11.73 14.7, 12.03 14.7, 12.32 14.7, 12.61 14.7, 12.91 14.7, 13.2 14.7, 13.5 14.7, 13.79 14.7, 14.08 14.7, 14.38 14.7, 14.67 14.7, 14.97 14.7, 15.26 14.7, 15.55 14.7, 15.85 14.7, 16.14 14.7, 16.44 14.7, 16.73 14.7, 17.02 14.7, 17.32 14.7, 17.61 14.7, 17.91 14.7, 18.2 14.7, 18.49 14.7, 18.79 14.7, 19.08 14.7, 19.37 14.7, 19.67 14.7, 19.96 14.7, 20.26 14.7, 20.55 14.7, 20.84 14.7, 21.14  z"
       id="path2064" />
  </g>
</svg> 