<?xml version="1.0" encoding="UTF-8" standalone="no"?>
<svg
   xmlns:dc="http://purl.org/dc/elements/1.1/"
   xmlns:cc="http://creativecommons.org/ns#"
   xmlns:rdf="http://www.w3.org/1999/02/22-rdf-syntax-ns#"
   xmlns:svg="http://www.w3.org/2000/svg"
   xmlns="http://www.w3.org/2000/svg"
   xmlns:sodipodi="http://sodipodi.sourceforge.net/DTD/sodipodi-0.dtd"
   xmlns:inkscape="http://www.inkscape.org/namespaces/inkscape"
   width="38.0mm"
   height="36.0mm"
   viewBox="0 0 38.0 36.0"
   version="1.1"
   id="svg1501"
   inkscape:version="1.0.2 (e86c870879, 2021-01-15, custom)"
   sodipodi:docname="drawing.svg">
  <defs
     id="defs1495" />
  <sodipodi:namedview
     id="base"
     pagecolor="#ffffff"
     bordercolor="#666666"
     borderopacity="1.0"
     inkscape:pageopacity="0.0"
     inkscape:pageshadow="2"
     inkscape:zoom="0.35"
     inkscape:cx="400"
     inkscape:cy="560"
     inkscape:document-units="mm"
     inkscape:current-layer="layer1"
     inkscape:document-rotation="0"
     showgrid="false"
     inkscape:window-width="1624"
     inkscape:window-height="1228"
     inkscape:window-x="190"
     inkscape:window-y="190"
     inkscape:window-maximized="0" />
  <metadata
     id="metadata1498">
    <rdf:RDF>
      <cc:Work
         rdf:about="">
        <dc:format>image/svg+xml</dc:format>
        <dc:type
           rdf:resource="http://purl.org/dc/dcmitype/StillImage" />
        <dc:title></dc:title>
      </cc:Work>
    </rdf:RDF>
  </metadata>
  <g
     inkscape:label="Layer 1"
     inkscape:groupmode="layer"
     id="layer1">
    <path
       style="fill:none;stroke:#000000;stroke-width:0.5px;stroke-linecap:butt;stroke-linejoin:miter;stroke-opacity:1;image-rendering:auto"
       d="M   12.51, 18.07 12.51, 18.32 12.51, 18.57 12.51, 18.82 12.51, 19.07 12.51, 19.32 12.51, 19.57 12.51, 19.82 12.51, 20.07 12.51, 20.32 12.51, 20.57 12.51, 20.82 12.51, 21.07 12.51, 21.32 12.51, 21.57 12.51, 21.82 12.51, 22.07 12.51, 22.32 12.51, 22.57 12.51, 22.82 12.51, 23.07 12.51, 23.32 12.51, 23.57 12.51, 23.82 12.51, 24.07 12.51, 24.32 12.51, 24.57 12.51, 24.82 12.51, 25.07 12.51, 25.32 12.51, 25.57 12.51, 25.82 12.51, 26.07 12.51, 26.32 12.51, 26.57 12.51, 26.82 12.51, 27.07 12.51, 27.32 12.51, 27.57 12.51, 27.82 12.51, 28.07 12.51, 28.32 12.59, 29.38 12.84, 30.45 13.09, 31.11 13.34, 31.63 13.59, 32.07 13.84, 32.44 14.09, 32.78 14.34, 33.08 14.59, 33.35 14.84, 33.6 15.09, 33.83 15.34, 34.04 15.59, 34.23 15.84, 34.41 16.09, 34.58 16.34, 34.73 16.59, 34.88 16.84, 35.01 17.09, 35.14 17.34, 35.25 17.59, 35.36 17.84, 35.46 18.09, 35.55 18.34, 35.63 18.59, 35.71 18.84, 35.78 19.09, 35.84 19.34, 35.89 19.59, 35.94 19.84, 35.99 20.09, 36.02 20.34, 36.06 20.59, 36.08 20.84, 36.1 21.09, 36.12 21.34, 36.13 21.59, 36.13 21.84, 36.13 22.09, 36.12 22.34, 36.11 22.59, 36.1 22.84, 36.07 23.09, 36.05 23.34, 36.02 23.59, 35.98 23.84, 35.94 24.09, 35.89 24.34, 35.84 24.59, 35.78 24.84, 35.72 25.09, 35.65 25.34, 35.58 25.59, 35.5 25.84, 35.42 26.09, 35.33 26.34, 35.24 26.59, 35.14 26.84, 35.04 27.09, 34.93 27.34, 34.82 27.59, 34.7 27.84, 34.57 28.09, 34.44 28.34, 34.3 28.59, 34.16 28.84, 34.01 29.09, 33.85 29.34, 33.69 29.59, 33.52 29.84, 33.35 30.09, 33.16 30.34, 32.97 30.59, 32.77 30.84, 32.57 31.09, 32.35 31.34, 32.13 31.59, 31.9 31.84, 31.66 32.09, 31.41 32.34, 31.14 32.59, 30.87 32.84, 30.59 33.09, 30.29 33.34, 29.98 33.59, 29.66 33.84, 29.31 34.09, 28.96 34.34, 28.58 34.59, 28.18 34.84, 27.77 35.09, 27.32 35.34, 26.84 35.6, 26.33 35.85, 25.78 36.1, 25.18 36.35, 24.51 36.6, 23.76 36.85, 22.89 37.1, 21.83 37.35, 20.33 37.43, 16.54 37.18, 14.73 36.93, 13.56 36.68, 12.64 36.43, 11.85 36.18, 11.16 35.93, 10.54 35.68, 9.975 35.43, 9.452 35.18, 8.965 34.93, 8.51 34.68, 8.082 34.43, 7.678 34.18, 7.296 33.93, 6.933 33.68, 6.587 33.43, 6.257 33.18, 5.942 32.93, 5.641 32.68, 5.353 32.43, 5.076 32.18, 4.811 31.93, 4.557 31.68, 4.312 31.43, 4.077 31.18, 3.851 30.93, 3.634 30.68, 3.425 30.43, 3.224 30.18, 3.031 29.93, 2.846 29.68, 2.667 29.42, 2.496 29.17, 2.331 28.92, 2.173 28.67, 2.021 28.42, 1.876 28.17, 1.736 27.92, 1.603 27.67, 1.476 27.42, 1.354 27.17, 1.238 26.92, 1.127 26.67, 1.022 26.42, 0.9221 26.17, 0.8277 25.92, 0.7385 25.67, 0.6545 25.42, 0.5757 25.17, 0.502 24.92, 0.4334 24.67, 0.3699 24.42, 0.3114 24.17, 0.2579 23.92, 0.2094 23.67, 0.1659 23.42, 0.1275 23.17, 0.094 22.92, 0.06556 22.67, 0.04218 22.42, 0.02388 22.17, 0.01068 21.92, 0.002635 21.67, -0.0002111 21.42, 0.002198 21.17, 0.009928 20.92, 0.02305 20.67, 0.04165 20.42, 0.06582 20.17, 0.09567 19.92, 0.1313 19.67, 0.1729 19.42, 0.2205 19.17, 0.2744 18.92, 0.3346 18.67, 0.4015 18.42, 0.4752 18.17, 0.5561 17.92, 0.6442 17.67, 0.7401 17.42, 0.844 17.17, 0.9564 16.92, 1.078 16.67, 1.208 16.42, 1.349 16.17, 1.501 15.92, 1.664 15.67, 1.84 15.42, 2.03 15.17, 2.235 14.92, 2.457 14.67, 2.698 14.42, 2.961 14.17, 3.251 13.92, 3.573 13.67, 3.934 13.42, 4.347 13.17, 4.834 12.92, 5.441 12.67, 6.307 12.51, 7.73 12.51, 7.98 12.51, 8.23 12.51, 8.48 12.51, 8.73 12.51, 8.98 12.51, 9.23 12.51, 9.481 12.51, 9.731 12.51, 9.981 12.51, 10.23 12.51, 10.48 12.51, 10.73 12.51, 10.98 12.51, 11.23 12.51, 11.48 12.51, 11.73 12.51, 11.98 12.51, 12.23 12.51, 12.48 12.51, 12.73 12.51, 12.98 12.51, 13.23 12.51, 13.48 12.51, 13.73 12.51, 13.98 12.51, 14.23 12.51, 14.48 12.51, 14.73 12.51, 14.98 12.51, 15.23 12.51, 15.48 12.51, 15.73 12.51, 15.98 12.51, 16.23 12.51, 16.48 12.51, 16.73 12.51, 16.98 12.51, 17.23 12.51, 17.48 12.51, 17.73 12.51, 17.98  z"
       id="path2064" />
  </g>
</svg> 