<?xml version="1.0" encoding="UTF-8" standalone="no"?>
<svg
   xmlns:dc="http://purl.org/dc/elements/1.1/"
   xmlns:cc="http://creativecommons.org/ns#"
   xmlns:rdf="http://www.w3.org/1999/02/22-rdf-syntax-ns#"
   xmlns:svg="http://www.w3.org/2000/svg"
   xmlns="http://www.w3.org/2000/svg"
   xmlns:sodipodi="http://sodipodi.sourceforge.net/DTD/sodipodi-0.dtd"
   xmlns:inkscape="http://www.inkscape.org/namespaces/inkscape"
   width="31.0mm"
   height="30.0mm"
   viewBox="0 0 31.0 30.0"
   version="1.1"
   id="svg1501"
   inkscape:version="1.0.2 (e86c870879, 2021-01-15, custom)"
   sodipodi:docname="drawing.svg">
  <defs
     id="defs1495" />
  <sodipodi:namedview
     id="base"
     pagecolor="#ffffff"
     bordercolor="#666666"
     borderopacity="1.0"
     inkscape:pageopacity="0.0"
     inkscape:pageshadow="2"
     inkscape:zoom="0.35"
     inkscape:cx="400"
     inkscape:cy="560"
     inkscape:document-units="mm"
     inkscape:current-layer="layer1"
     inkscape:document-rotation="0"
     showgrid="false"
     inkscape:window-width="1624"
     inkscape:window-height="1228"
     inkscape:window-x="190"
     inkscape:window-y="190"
     inkscape:window-maximized="0" />
  <metadata
     id="metadata1498">
    <rdf:RDF>
      <cc:Work
         rdf:about="">
        <dc:format>image/svg+xml</dc:format>
        <dc:type
           rdf:resource="http://purl.org/dc/dcmitype/StillImage" />
        <dc:title></dc:title>
      </cc:Work>
    </rdf:RDF>
  </metadata>
  <g
     inkscape:label="Layer 1"
     inkscape:groupmode="layer"
     id="layer1">
    <path
       style="fill:none;stroke:#000000;stroke-width:0.5px;stroke-linecap:butt;stroke-linejoin:miter;stroke-opacity:1;image-rendering:auto"
       d="M   10.24, 14.8 10.24, 15.0 10.24, 15.21 10.24, 15.41 10.24, 15.62 10.24, 15.82 10.24, 16.02 10.24, 16.23 10.24, 16.43 10.24, 16.64 10.24, 16.84 10.24, 17.05 10.24, 17.25 10.24, 17.46 10.24, 17.66 10.24, 17.87 10.24, 18.07 10.24, 18.28 10.24, 18.48 10.24, 18.69 10.24, 18.89 10.24, 19.1 10.24, 19.3 10.24, 19.51 10.24, 19.71 10.24, 19.92 10.24, 20.12 10.24, 20.33 10.24, 20.53 10.24, 20.74 10.24, 20.94 10.24, 21.15 10.24, 21.35 10.24, 21.55 10.24, 21.76 10.24, 21.96 10.24, 22.17 10.24, 22.37 10.24, 22.58 10.24, 22.78 10.24, 22.99 10.24, 23.19 10.31, 24.06 10.51, 24.94 10.72, 25.48 10.92, 25.91 11.13, 26.26 11.33, 26.57 11.54, 26.85 11.74, 27.09 11.95, 27.31 12.15, 27.52 12.36, 27.7 12.56, 27.88 12.77, 28.03 12.97, 28.18 13.18, 28.32 13.38, 28.45 13.58, 28.56 13.79, 28.67 13.99, 28.78 14.2, 28.87 14.4, 28.96 14.61, 29.04 14.81, 29.11 15.02, 29.18 15.22, 29.24 15.43, 29.3 15.63, 29.35 15.84, 29.4 16.04, 29.44 16.25, 29.47 16.45, 29.5 16.66, 29.53 16.86, 29.55 17.07, 29.57 17.27, 29.58 17.48, 29.59 17.68, 29.59 17.89, 29.59 18.09, 29.59 18.3, 29.58 18.5, 29.56 18.71, 29.54 18.91, 29.52 19.12, 29.5 19.32, 29.47 19.53, 29.43 19.73, 29.39 19.93, 29.35 20.14, 29.3 20.34, 29.25 20.55, 29.2 20.75, 29.14 20.96, 29.08 21.16, 29.01 21.37, 28.94 21.57, 28.86 21.78, 28.78 21.98, 28.7 22.19, 28.61 22.39, 28.51 22.6, 28.42 22.8, 28.31 23.01, 28.21 23.21, 28.09 23.42, 27.98 23.62, 27.85 23.83, 27.73 24.03, 27.59 24.24, 27.45 24.44, 27.31 24.65, 27.16 24.85, 27.0 25.06, 26.84 25.26, 26.67 25.47, 26.5 25.67, 26.31 25.87, 26.12 26.08, 25.93 26.28, 25.72 26.49, 25.51 26.69, 25.28 26.9, 25.05 27.1, 24.81 27.31, 24.55 27.51, 24.29 27.72, 24.01 27.92, 23.72 28.13, 23.41 28.33, 23.08 28.54, 22.74 28.74, 22.37 28.95, 21.99 29.15, 21.57 29.36, 21.12 29.56, 20.62 29.77, 20.08 29.97, 19.46 30.18, 18.75 30.38, 17.87 30.59, 16.65 30.65, 13.55 30.45, 12.06 30.24, 11.11 30.04, 10.35 29.83, 9.708 29.63, 9.143 29.42, 8.634 29.22, 8.169 29.01, 7.741 28.81, 7.343 28.61, 6.97 28.4, 6.619 28.2, 6.289 27.99, 5.975 27.79, 5.678 27.58, 5.395 27.38, 5.125 27.17, 4.867 26.97, 4.62 26.76, 4.384 26.56, 4.158 26.35, 3.94 26.15, 3.732 25.94, 3.532 25.74, 3.339 25.53, 3.154 25.33, 2.976 25.12, 2.805 24.92, 2.641 24.71, 2.483 24.51, 2.331 24.3, 2.184 24.1, 2.044 23.89, 1.909 23.69, 1.78 23.48, 1.655 23.28, 1.536 23.07, 1.422 22.87, 1.313 22.67, 1.208 22.46, 1.109 22.26, 1.014 22.05, 0.923 21.85, 0.8369 21.64, 0.7552 21.44, 0.6779 21.23, 0.6048 21.03, 0.5361 20.82, 0.4715 20.62, 0.4112 20.41, 0.355 20.21, 0.3029 20.0, 0.255 19.8, 0.2112 19.59, 0.1715 19.39, 0.1359 19.18, 0.1044 18.98, 0.07698 18.77, 0.0537 18.57, 0.03455 18.36, 0.01955 18.16, 0.008747 17.95, 0.002158 17.75, -0.0001729 17.54, 0.0018 17.34, 0.008131 17.13, 0.01888 16.93, 0.03411 16.72, 0.05391 16.52, 0.07835 16.32, 0.1075 16.11, 0.1416 15.91, 0.1806 15.7, 0.2247 15.5, 0.2741 15.29, 0.3288 15.09, 0.3892 14.88, 0.4554 14.68, 0.5276 14.47, 0.6062 14.27, 0.6913 14.06, 0.7833 13.86, 0.8827 13.65, 0.9897 13.45, 1.105 13.24, 1.229 13.04, 1.363 12.83, 1.507 12.63, 1.662 12.42, 1.83 12.22, 2.012 12.01, 2.21 11.81, 2.425 11.6, 2.663 11.4, 2.926 11.19, 3.222 10.99, 3.56 10.78, 3.959 10.58, 4.456 10.38, 5.165 10.24, 6.331 10.24, 6.536 10.24, 6.74 10.24, 6.945 10.24, 7.15 10.24, 7.355 10.24, 7.56 10.24, 7.765 10.24, 7.969 10.24, 8.174 10.24, 8.379 10.24, 8.584 10.24, 8.789 10.24, 8.993 10.24, 9.198 10.24, 9.403 10.24, 9.608 10.24, 9.813 10.24, 10.02 10.24, 10.22 10.24, 10.43 10.24, 10.63 10.24, 10.84 10.24, 11.04 10.24, 11.25 10.24, 11.45 10.24, 11.66 10.24, 11.86 10.24, 12.07 10.24, 12.27 10.24, 12.48 10.24, 12.68 10.24, 12.88 10.24, 13.09 10.24, 13.29 10.24, 13.5 10.24, 13.7 10.24, 13.91 10.24, 14.11 10.24, 14.32 10.24, 14.52 10.24, 14.73  z"
       id="path2064" />
  </g>
</svg> 