M48
;GenerationSoftware,Autodesk,EAGLE,9.5.2*%
;CreationDate,2020-07-13T17:17:14Z*%
FMAT,2
ICI,OFF
METRIC,TZ,000.000
T8C0.350
T7C0.813
T6C0.864
T5C1.000
T4C1.016
T3C1.100
T2C1.194
T1C3.048
%
G90
M71
T1
X57785Y3175
X3175Y53975
X57785Y53975
X29845Y3175
T2
X53340Y34250
X8850Y5080
X3850Y5080
X24090Y6350
X19090Y6350
X53340Y29250
T3
X57785Y45720
X27305Y45720
T4
X27305Y24130
X27305Y21590
X49530Y22860
X49530Y20320
T5
X16485Y48692
X4572Y43612
X7976Y43612
X9677Y48692
X11379Y43612
X13081Y48692
X18186Y43612
X19888Y48692
X21590Y43612
T6
X14783Y43612
X6274Y48692
T7
X44450Y40005
X36830Y40005
X22225Y27940
X14605Y27940
X10160Y30480
X5080Y30480
T8
X22860Y9525
X22860Y11430
X22860Y13335
X22860Y15240
X36830Y43180
X40640Y15240
X36195Y17780
X34925Y12700
X36195Y31750
X36830Y27305
X39370Y27305
X40640Y32385
X20320Y30480
X38100Y31750
X27940Y33020
X27940Y35560
X21590Y34925
X21590Y38735
X45085Y43180
X36830Y48260
X45720Y48895
X40005Y20320
X40005Y18415
X40005Y12065
X31750Y12065
X27305Y12065
X8890Y8890
X8890Y13970
X8890Y20955
X8890Y34290
X1905Y33655
X33655Y18415
X11430Y46355
X14605Y46355
X43180Y26035
X50165Y18415
X48895Y25400
X17780Y46355
X33020Y26670
X29845Y26670
X33020Y29210
M30