G04 EAGLE Gerber RS-274X export*
G75*
%MOMM*%
%FSLAX34Y34*%
%LPD*%
%INSolderpaste Top*%
%IPPOS*%
%AMOC8*
5,1,8,0,0,1.08239X$1,22.5*%
G01*
%ADD10R,1.600000X1.800000*%
%ADD11R,1.800000X1.600000*%
%ADD12R,1.803000X1.600000*%
%ADD13R,0.609600X2.209800*%
%ADD14R,0.600000X2.200000*%
%ADD15R,0.800000X1.400000*%
%ADD16R,1.800000X2.200000*%
%ADD17R,1.200000X1.200000*%
%ADD18R,5.400000X6.200000*%
%ADD19R,1.000000X1.600000*%
%ADD20R,1.600000X1.803000*%


D10*
X64800Y152400D03*
X36800Y152400D03*
X24100Y381000D03*
X52100Y381000D03*
D11*
X101600Y268000D03*
X101600Y240000D03*
X488950Y166400D03*
X488950Y138400D03*
X457200Y166400D03*
X457200Y138400D03*
X82550Y395000D03*
X82550Y367000D03*
X273050Y179100D03*
X273050Y151100D03*
D12*
X171450Y338070D03*
X171450Y309630D03*
D13*
X349250Y297688D03*
X349250Y350012D03*
X361950Y297688D03*
X374650Y297688D03*
X361950Y350012D03*
X374650Y350012D03*
X387350Y297688D03*
X387350Y350012D03*
D14*
X361950Y145450D03*
X361950Y197450D03*
X349250Y145450D03*
X374650Y145450D03*
X387350Y145450D03*
X349250Y197450D03*
X374650Y197450D03*
X387350Y197450D03*
D15*
X444500Y202450D03*
X459500Y202450D03*
X429500Y202450D03*
D16*
X444500Y233250D03*
D17*
X114300Y110150D03*
X114300Y131150D03*
D18*
X177800Y152800D03*
D19*
X200600Y225800D03*
X155000Y225800D03*
D12*
X114300Y198370D03*
X114300Y169930D03*
X304800Y214380D03*
X304800Y242820D03*
X304800Y150880D03*
X304800Y179320D03*
D20*
X65020Y114300D03*
X36580Y114300D03*
X198370Y254000D03*
X169930Y254000D03*
X255520Y304800D03*
X227080Y304800D03*
D12*
X114300Y395220D03*
X114300Y366780D03*
D20*
X172970Y368300D03*
X144530Y368300D03*
X144530Y400050D03*
X172970Y400050D03*
X65020Y241300D03*
X36580Y241300D03*
D12*
X63500Y182630D03*
X63500Y211070D03*
D20*
X436630Y317500D03*
X465070Y317500D03*
X436630Y361950D03*
X465070Y361950D03*
X436630Y279400D03*
X465070Y279400D03*
D10*
X233650Y412750D03*
X261650Y412750D03*
D11*
X330200Y214600D03*
X330200Y242600D03*
M02*
