G04 EAGLE Gerber RS-274X export*
G75*
%MOMM*%
%FSLAX34Y34*%
%LPD*%
%IN*%
%IPPOS*%
%AMOC8*
5,1,8,0,0,1.08239X$1,22.5*%
G01*
%ADD10C,0.254000*%


D10*
X0Y0D02*
X749100Y0D01*
X749100Y377700D01*
X0Y377700D01*
X0Y0D01*
X180340Y189956D02*
X180262Y188870D01*
X180107Y187792D01*
X179876Y186729D01*
X179569Y185684D01*
X179189Y184664D01*
X178737Y183674D01*
X178215Y182719D01*
X177626Y181803D01*
X176974Y180931D01*
X176261Y180109D01*
X175491Y179339D01*
X174669Y178626D01*
X173797Y177974D01*
X172881Y177385D01*
X171926Y176863D01*
X170936Y176411D01*
X169916Y176031D01*
X168871Y175724D01*
X167808Y175493D01*
X166730Y175338D01*
X165644Y175260D01*
X164556Y175260D01*
X163470Y175338D01*
X162392Y175493D01*
X161329Y175724D01*
X160284Y176031D01*
X159264Y176411D01*
X158274Y176863D01*
X157319Y177385D01*
X156403Y177974D01*
X155531Y178626D01*
X154709Y179339D01*
X153939Y180109D01*
X153226Y180931D01*
X152574Y181803D01*
X151985Y182719D01*
X151463Y183674D01*
X151011Y184664D01*
X150631Y185684D01*
X150324Y186729D01*
X150093Y187792D01*
X149938Y188870D01*
X149860Y189956D01*
X149860Y191044D01*
X149938Y192130D01*
X150093Y193208D01*
X150324Y194271D01*
X150631Y195316D01*
X151011Y196336D01*
X151463Y197326D01*
X151985Y198281D01*
X152574Y199197D01*
X153226Y200069D01*
X153939Y200891D01*
X154709Y201661D01*
X155531Y202374D01*
X156403Y203026D01*
X157319Y203615D01*
X158274Y204137D01*
X159264Y204589D01*
X160284Y204969D01*
X161329Y205276D01*
X162392Y205507D01*
X163470Y205662D01*
X164556Y205740D01*
X165644Y205740D01*
X166730Y205662D01*
X167808Y205507D01*
X168871Y205276D01*
X169916Y204969D01*
X170936Y204589D01*
X171926Y204137D01*
X172881Y203615D01*
X173797Y203026D01*
X174669Y202374D01*
X175491Y201661D01*
X176261Y200891D01*
X176974Y200069D01*
X177626Y199197D01*
X178215Y198281D01*
X178737Y197326D01*
X179189Y196336D01*
X179569Y195316D01*
X179876Y194271D01*
X180107Y193208D01*
X180262Y192130D01*
X180340Y191044D01*
X180340Y189956D01*
X535940Y189956D02*
X535862Y188870D01*
X535707Y187792D01*
X535476Y186729D01*
X535169Y185684D01*
X534789Y184664D01*
X534337Y183674D01*
X533815Y182719D01*
X533226Y181803D01*
X532574Y180931D01*
X531861Y180109D01*
X531091Y179339D01*
X530269Y178626D01*
X529397Y177974D01*
X528481Y177385D01*
X527526Y176863D01*
X526536Y176411D01*
X525516Y176031D01*
X524471Y175724D01*
X523408Y175493D01*
X522330Y175338D01*
X521244Y175260D01*
X520156Y175260D01*
X519070Y175338D01*
X517992Y175493D01*
X516929Y175724D01*
X515884Y176031D01*
X514864Y176411D01*
X513874Y176863D01*
X512919Y177385D01*
X512003Y177974D01*
X511131Y178626D01*
X510309Y179339D01*
X509539Y180109D01*
X508826Y180931D01*
X508174Y181803D01*
X507585Y182719D01*
X507063Y183674D01*
X506611Y184664D01*
X506231Y185684D01*
X505924Y186729D01*
X505693Y187792D01*
X505538Y188870D01*
X505460Y189956D01*
X505460Y191044D01*
X505538Y192130D01*
X505693Y193208D01*
X505924Y194271D01*
X506231Y195316D01*
X506611Y196336D01*
X507063Y197326D01*
X507585Y198281D01*
X508174Y199197D01*
X508826Y200069D01*
X509539Y200891D01*
X510309Y201661D01*
X511131Y202374D01*
X512003Y203026D01*
X512919Y203615D01*
X513874Y204137D01*
X514864Y204589D01*
X515884Y204969D01*
X516929Y205276D01*
X517992Y205507D01*
X519070Y205662D01*
X520156Y205740D01*
X521244Y205740D01*
X522330Y205662D01*
X523408Y205507D01*
X524471Y205276D01*
X525516Y204969D01*
X526536Y204589D01*
X527526Y204137D01*
X528481Y203615D01*
X529397Y203026D01*
X530269Y202374D01*
X531091Y201661D01*
X531861Y200891D01*
X532574Y200069D01*
X533226Y199197D01*
X533815Y198281D01*
X534337Y197326D01*
X534789Y196336D01*
X535169Y195316D01*
X535476Y194271D01*
X535707Y193208D01*
X535862Y192130D01*
X535940Y191044D01*
X535940Y189956D01*
X726440Y342356D02*
X726362Y341270D01*
X726207Y340192D01*
X725976Y339129D01*
X725669Y338084D01*
X725289Y337064D01*
X724837Y336074D01*
X724315Y335119D01*
X723726Y334203D01*
X723074Y333331D01*
X722361Y332509D01*
X721591Y331739D01*
X720769Y331026D01*
X719897Y330374D01*
X718981Y329785D01*
X718026Y329263D01*
X717036Y328811D01*
X716016Y328431D01*
X714971Y328124D01*
X713908Y327893D01*
X712830Y327738D01*
X711744Y327660D01*
X710656Y327660D01*
X709570Y327738D01*
X708492Y327893D01*
X707429Y328124D01*
X706384Y328431D01*
X705364Y328811D01*
X704374Y329263D01*
X703419Y329785D01*
X702503Y330374D01*
X701631Y331026D01*
X700809Y331739D01*
X700039Y332509D01*
X699326Y333331D01*
X698674Y334203D01*
X698085Y335119D01*
X697563Y336074D01*
X697111Y337064D01*
X696731Y338084D01*
X696424Y339129D01*
X696193Y340192D01*
X696038Y341270D01*
X695960Y342356D01*
X695960Y343444D01*
X696038Y344530D01*
X696193Y345608D01*
X696424Y346671D01*
X696731Y347716D01*
X697111Y348736D01*
X697563Y349726D01*
X698085Y350681D01*
X698674Y351597D01*
X699326Y352469D01*
X700039Y353291D01*
X700809Y354061D01*
X701631Y354774D01*
X702503Y355426D01*
X703419Y356015D01*
X704374Y356537D01*
X705364Y356989D01*
X706384Y357369D01*
X707429Y357676D01*
X708492Y357907D01*
X709570Y358062D01*
X710656Y358140D01*
X711744Y358140D01*
X712830Y358062D01*
X713908Y357907D01*
X714971Y357676D01*
X716016Y357369D01*
X717036Y356989D01*
X718026Y356537D01*
X718981Y356015D01*
X719897Y355426D01*
X720769Y354774D01*
X721591Y354061D01*
X722361Y353291D01*
X723074Y352469D01*
X723726Y351597D01*
X724315Y350681D01*
X724837Y349726D01*
X725289Y348736D01*
X725669Y347716D01*
X725976Y346671D01*
X726207Y345608D01*
X726362Y344530D01*
X726440Y343444D01*
X726440Y342356D01*
X726440Y37556D02*
X726362Y36470D01*
X726207Y35392D01*
X725976Y34329D01*
X725669Y33284D01*
X725289Y32264D01*
X724837Y31274D01*
X724315Y30319D01*
X723726Y29403D01*
X723074Y28531D01*
X722361Y27709D01*
X721591Y26939D01*
X720769Y26226D01*
X719897Y25574D01*
X718981Y24985D01*
X718026Y24463D01*
X717036Y24011D01*
X716016Y23631D01*
X714971Y23324D01*
X713908Y23093D01*
X712830Y22938D01*
X711744Y22860D01*
X710656Y22860D01*
X709570Y22938D01*
X708492Y23093D01*
X707429Y23324D01*
X706384Y23631D01*
X705364Y24011D01*
X704374Y24463D01*
X703419Y24985D01*
X702503Y25574D01*
X701631Y26226D01*
X700809Y26939D01*
X700039Y27709D01*
X699326Y28531D01*
X698674Y29403D01*
X698085Y30319D01*
X697563Y31274D01*
X697111Y32264D01*
X696731Y33284D01*
X696424Y34329D01*
X696193Y35392D01*
X696038Y36470D01*
X695960Y37556D01*
X695960Y38644D01*
X696038Y39730D01*
X696193Y40808D01*
X696424Y41871D01*
X696731Y42916D01*
X697111Y43936D01*
X697563Y44926D01*
X698085Y45881D01*
X698674Y46797D01*
X699326Y47669D01*
X700039Y48491D01*
X700809Y49261D01*
X701631Y49974D01*
X702503Y50626D01*
X703419Y51215D01*
X704374Y51737D01*
X705364Y52189D01*
X706384Y52569D01*
X707429Y52876D01*
X708492Y53107D01*
X709570Y53262D01*
X710656Y53340D01*
X711744Y53340D01*
X712830Y53262D01*
X713908Y53107D01*
X714971Y52876D01*
X716016Y52569D01*
X717036Y52189D01*
X718026Y51737D01*
X718981Y51215D01*
X719897Y50626D01*
X720769Y49974D01*
X721591Y49261D01*
X722361Y48491D01*
X723074Y47669D01*
X723726Y46797D01*
X724315Y45881D01*
X724837Y44926D01*
X725289Y43936D01*
X725669Y42916D01*
X725976Y41871D01*
X726207Y40808D01*
X726362Y39730D01*
X726440Y38644D01*
X726440Y37556D01*
M02*
