G04 EAGLE Gerber RS-274X export*
G75*
%MOMM*%
%FSLAX34Y34*%
%LPD*%
%INSilkscreen Bottom*%
%IPPOS*%
%AMOC8*
5,1,8,0,0,1.08239X$1,22.5*%
G01*
%ADD10C,0.101600*%


D10*
X419608Y145401D02*
X419608Y142804D01*
X419610Y142705D01*
X419616Y142605D01*
X419625Y142506D01*
X419638Y142408D01*
X419655Y142310D01*
X419676Y142212D01*
X419701Y142116D01*
X419729Y142021D01*
X419761Y141927D01*
X419796Y141834D01*
X419835Y141742D01*
X419878Y141652D01*
X419923Y141564D01*
X419973Y141477D01*
X420025Y141393D01*
X420081Y141310D01*
X420139Y141230D01*
X420201Y141152D01*
X420266Y141077D01*
X420334Y141004D01*
X420404Y140934D01*
X420477Y140866D01*
X420552Y140801D01*
X420630Y140739D01*
X420710Y140681D01*
X420793Y140625D01*
X420877Y140573D01*
X420964Y140523D01*
X421052Y140478D01*
X421142Y140435D01*
X421234Y140396D01*
X421327Y140361D01*
X421421Y140329D01*
X421516Y140301D01*
X421612Y140276D01*
X421710Y140255D01*
X421808Y140238D01*
X421906Y140225D01*
X422005Y140216D01*
X422105Y140210D01*
X422204Y140208D01*
X428696Y140208D01*
X428795Y140210D01*
X428895Y140216D01*
X428994Y140225D01*
X429092Y140238D01*
X429190Y140255D01*
X429288Y140276D01*
X429384Y140301D01*
X429479Y140329D01*
X429573Y140361D01*
X429666Y140396D01*
X429758Y140435D01*
X429848Y140478D01*
X429936Y140523D01*
X430023Y140573D01*
X430107Y140625D01*
X430190Y140681D01*
X430270Y140739D01*
X430348Y140801D01*
X430423Y140866D01*
X430496Y140934D01*
X430566Y141004D01*
X430634Y141077D01*
X430699Y141152D01*
X430761Y141230D01*
X430819Y141310D01*
X430875Y141393D01*
X430927Y141477D01*
X430977Y141564D01*
X431022Y141652D01*
X431065Y141742D01*
X431104Y141834D01*
X431139Y141926D01*
X431171Y142021D01*
X431199Y142116D01*
X431224Y142212D01*
X431245Y142310D01*
X431262Y142408D01*
X431275Y142506D01*
X431284Y142605D01*
X431290Y142705D01*
X431292Y142804D01*
X431292Y145401D01*
X419608Y149766D02*
X419608Y153012D01*
X419610Y153125D01*
X419616Y153238D01*
X419626Y153351D01*
X419640Y153464D01*
X419657Y153576D01*
X419679Y153687D01*
X419704Y153797D01*
X419734Y153907D01*
X419767Y154015D01*
X419804Y154122D01*
X419844Y154228D01*
X419889Y154332D01*
X419937Y154435D01*
X419988Y154536D01*
X420043Y154635D01*
X420101Y154732D01*
X420163Y154827D01*
X420228Y154920D01*
X420296Y155010D01*
X420367Y155098D01*
X420442Y155184D01*
X420519Y155267D01*
X420599Y155347D01*
X420682Y155424D01*
X420768Y155499D01*
X420856Y155570D01*
X420946Y155638D01*
X421039Y155703D01*
X421134Y155765D01*
X421231Y155823D01*
X421330Y155878D01*
X421431Y155929D01*
X421534Y155977D01*
X421638Y156022D01*
X421744Y156062D01*
X421851Y156099D01*
X421959Y156132D01*
X422069Y156162D01*
X422179Y156187D01*
X422290Y156209D01*
X422402Y156226D01*
X422515Y156240D01*
X422628Y156250D01*
X422741Y156256D01*
X422854Y156258D01*
X422967Y156256D01*
X423080Y156250D01*
X423193Y156240D01*
X423306Y156226D01*
X423418Y156209D01*
X423529Y156187D01*
X423639Y156162D01*
X423749Y156132D01*
X423857Y156099D01*
X423964Y156062D01*
X424070Y156022D01*
X424174Y155977D01*
X424277Y155929D01*
X424378Y155878D01*
X424477Y155823D01*
X424574Y155765D01*
X424669Y155703D01*
X424762Y155638D01*
X424852Y155570D01*
X424940Y155499D01*
X425026Y155424D01*
X425109Y155347D01*
X425189Y155267D01*
X425266Y155184D01*
X425341Y155098D01*
X425412Y155010D01*
X425480Y154920D01*
X425545Y154827D01*
X425607Y154732D01*
X425665Y154635D01*
X425720Y154536D01*
X425771Y154435D01*
X425819Y154332D01*
X425864Y154228D01*
X425904Y154122D01*
X425941Y154015D01*
X425974Y153907D01*
X426004Y153797D01*
X426029Y153687D01*
X426051Y153576D01*
X426068Y153464D01*
X426082Y153351D01*
X426092Y153238D01*
X426098Y153125D01*
X426100Y153012D01*
X431292Y153661D02*
X431292Y149766D01*
X431292Y153661D02*
X431290Y153762D01*
X431284Y153862D01*
X431274Y153962D01*
X431261Y154062D01*
X431243Y154161D01*
X431222Y154260D01*
X431197Y154357D01*
X431168Y154454D01*
X431135Y154549D01*
X431099Y154643D01*
X431059Y154735D01*
X431016Y154826D01*
X430969Y154915D01*
X430919Y155002D01*
X430865Y155088D01*
X430808Y155171D01*
X430748Y155251D01*
X430685Y155330D01*
X430618Y155406D01*
X430549Y155479D01*
X430477Y155549D01*
X430403Y155617D01*
X430326Y155682D01*
X430246Y155743D01*
X430164Y155802D01*
X430080Y155857D01*
X429994Y155909D01*
X429906Y155958D01*
X429816Y156003D01*
X429724Y156045D01*
X429631Y156083D01*
X429536Y156117D01*
X429441Y156148D01*
X429344Y156175D01*
X429246Y156198D01*
X429147Y156218D01*
X429047Y156233D01*
X428947Y156245D01*
X428847Y156253D01*
X428746Y156257D01*
X428646Y156257D01*
X428545Y156253D01*
X428445Y156245D01*
X428345Y156233D01*
X428245Y156218D01*
X428146Y156198D01*
X428048Y156175D01*
X427951Y156148D01*
X427856Y156117D01*
X427761Y156083D01*
X427668Y156045D01*
X427576Y156003D01*
X427486Y155958D01*
X427398Y155909D01*
X427312Y155857D01*
X427228Y155802D01*
X427146Y155743D01*
X427066Y155682D01*
X426989Y155617D01*
X426915Y155549D01*
X426843Y155479D01*
X426774Y155406D01*
X426707Y155330D01*
X426644Y155251D01*
X426584Y155171D01*
X426527Y155088D01*
X426473Y155002D01*
X426423Y154915D01*
X426376Y154826D01*
X426333Y154735D01*
X426293Y154643D01*
X426257Y154549D01*
X426224Y154454D01*
X426195Y154357D01*
X426170Y154260D01*
X426149Y154161D01*
X426131Y154062D01*
X426118Y153962D01*
X426108Y153862D01*
X426102Y153762D01*
X426100Y153661D01*
X426099Y153661D02*
X426099Y151064D01*
X305308Y176539D02*
X305308Y179136D01*
X305308Y176539D02*
X305310Y176440D01*
X305316Y176340D01*
X305325Y176241D01*
X305338Y176143D01*
X305355Y176045D01*
X305376Y175947D01*
X305401Y175851D01*
X305429Y175756D01*
X305461Y175662D01*
X305496Y175569D01*
X305535Y175477D01*
X305578Y175387D01*
X305623Y175299D01*
X305673Y175212D01*
X305725Y175128D01*
X305781Y175045D01*
X305839Y174965D01*
X305901Y174887D01*
X305966Y174812D01*
X306034Y174739D01*
X306104Y174669D01*
X306177Y174601D01*
X306252Y174536D01*
X306330Y174474D01*
X306410Y174416D01*
X306493Y174360D01*
X306577Y174308D01*
X306664Y174258D01*
X306752Y174213D01*
X306842Y174170D01*
X306934Y174131D01*
X307027Y174096D01*
X307121Y174064D01*
X307216Y174036D01*
X307312Y174011D01*
X307410Y173990D01*
X307508Y173973D01*
X307606Y173960D01*
X307705Y173951D01*
X307805Y173945D01*
X307904Y173943D01*
X314396Y173943D01*
X314495Y173945D01*
X314595Y173951D01*
X314694Y173960D01*
X314792Y173973D01*
X314890Y173990D01*
X314988Y174011D01*
X315084Y174036D01*
X315179Y174064D01*
X315273Y174096D01*
X315366Y174131D01*
X315458Y174170D01*
X315548Y174213D01*
X315636Y174258D01*
X315723Y174308D01*
X315807Y174360D01*
X315890Y174416D01*
X315970Y174474D01*
X316048Y174536D01*
X316123Y174601D01*
X316196Y174669D01*
X316266Y174739D01*
X316334Y174812D01*
X316399Y174887D01*
X316461Y174965D01*
X316519Y175045D01*
X316575Y175128D01*
X316627Y175212D01*
X316677Y175299D01*
X316722Y175387D01*
X316765Y175477D01*
X316804Y175569D01*
X316839Y175661D01*
X316871Y175756D01*
X316899Y175851D01*
X316924Y175947D01*
X316945Y176045D01*
X316962Y176143D01*
X316975Y176241D01*
X316984Y176340D01*
X316990Y176440D01*
X316992Y176539D01*
X316992Y179136D01*
X316992Y186097D02*
X307904Y183501D01*
X307904Y189992D01*
X310501Y188045D02*
X305308Y188045D01*
M02*
