G04 EAGLE Gerber RS-274X export*
G75*
%MOMM*%
%FSLAX34Y34*%
%LPD*%
%INSoldermask Top*%
%IPPOS*%
%AMOC8*
5,1,8,0,0,1.08239X$1,22.5*%
G01*
%ADD10C,3.251200*%
%ADD11R,2.003200X1.803200*%
%ADD12R,1.803200X2.006200*%
%ADD13C,2.108200*%
%ADD14C,2.870200*%
%ADD15R,0.812800X2.489200*%
%ADD16P,1.951982X8X22.500000*%
%ADD17C,1.803400*%
%ADD18P,1.951982X8X202.500000*%
%ADD19R,1.803200X2.903200*%
%ADD20R,2.006200X1.803200*%
%ADD21R,1.803200X2.003200*%
%ADD22R,2.103200X3.603200*%
%ADD23P,2.309387X8X22.500000*%
%ADD24R,4.267200X2.235200*%
%ADD25R,2.235200X4.267200*%
%ADD26R,1.703200X1.703200*%
%ADD27C,1.993900*%
%ADD28C,2.403200*%
%ADD29R,1.575000X1.050000*%
%ADD30R,1.603200X0.773200*%
%ADD31C,0.959600*%

G36*
X219671Y52467D02*
X219671Y52467D01*
X219685Y52465D01*
X226420Y59201D01*
X238650Y59201D01*
X238697Y59237D01*
X238692Y59244D01*
X238699Y59250D01*
X238699Y67750D01*
X238663Y67797D01*
X238656Y67792D01*
X238650Y67799D01*
X226420Y67799D01*
X219685Y74535D01*
X219658Y74539D01*
X219650Y74549D01*
X193150Y74549D01*
X193103Y74513D01*
X193108Y74506D01*
X193101Y74500D01*
X193101Y52500D01*
X193137Y52453D01*
X193144Y52458D01*
X193150Y52451D01*
X219650Y52451D01*
X219671Y52467D01*
G37*
D10*
X165100Y190500D03*
X520700Y190500D03*
X711200Y342900D03*
X711200Y38100D03*
D11*
X444500Y278100D03*
X444500Y306100D03*
D12*
X481080Y228600D03*
X509520Y228600D03*
D13*
X63500Y317500D03*
D14*
X38001Y342999D03*
X88999Y342999D03*
X88999Y292001D03*
X38001Y292001D03*
D13*
X685800Y266700D03*
D14*
X660301Y292199D03*
X711299Y292199D03*
X711299Y241201D03*
X660301Y241201D03*
D15*
X387350Y215646D03*
X374650Y215646D03*
X361950Y215646D03*
X349250Y215646D03*
X349250Y165354D03*
X361950Y165354D03*
X374650Y165354D03*
X387350Y165354D03*
D11*
X406400Y151100D03*
X406400Y179100D03*
X317500Y179100D03*
X317500Y151100D03*
D16*
X393700Y330200D03*
D17*
X368300Y330200D03*
D18*
X368300Y50800D03*
D17*
X393700Y50800D03*
D19*
X125700Y279400D03*
X153700Y279400D03*
D12*
X201680Y279400D03*
X230120Y279400D03*
D20*
X243840Y242820D03*
X243840Y214380D03*
X318770Y211840D03*
X318770Y240280D03*
X279400Y211840D03*
X279400Y240280D03*
D21*
X298480Y279400D03*
X270480Y279400D03*
D11*
X201930Y242600D03*
X201930Y214600D03*
D12*
X125480Y241300D03*
X153920Y241300D03*
X382520Y279400D03*
X354080Y279400D03*
D22*
X501200Y330200D03*
X540200Y330200D03*
D11*
X546100Y293400D03*
X546100Y265400D03*
D23*
X330200Y317500D03*
D22*
X577400Y330200D03*
X616400Y330200D03*
D11*
X622300Y293400D03*
X622300Y265400D03*
D19*
X420340Y226060D03*
X448340Y226060D03*
D24*
X330200Y342900D03*
X317500Y63500D03*
X444500Y25400D03*
D25*
X698500Y190500D03*
D24*
X444500Y342900D03*
X495300Y266700D03*
D25*
X584200Y279400D03*
D24*
X609600Y228600D03*
D12*
X481080Y152400D03*
X509520Y152400D03*
D11*
X444500Y102900D03*
X444500Y74900D03*
D13*
X685800Y114300D03*
D14*
X660301Y139799D03*
X711299Y139799D03*
X711299Y88801D03*
X660301Y88801D03*
D12*
X382520Y101600D03*
X354080Y101600D03*
D22*
X501200Y76200D03*
X540200Y76200D03*
D11*
X546100Y125700D03*
X546100Y153700D03*
D22*
X577400Y76200D03*
X616400Y76200D03*
D11*
X622300Y125700D03*
X622300Y153700D03*
D19*
X430500Y152400D03*
X458500Y152400D03*
D24*
X495300Y114300D03*
D25*
X584200Y139700D03*
D24*
X609600Y190500D03*
D20*
X241300Y179320D03*
X241300Y150880D03*
D12*
X217420Y114300D03*
X188980Y114300D03*
D11*
X203200Y151100D03*
X203200Y179100D03*
D21*
X293400Y114300D03*
X265400Y114300D03*
D12*
X125480Y152400D03*
X153920Y152400D03*
D19*
X153700Y114300D03*
X125700Y114300D03*
D13*
X63500Y63500D03*
D14*
X38001Y88999D03*
X88999Y88999D03*
X88999Y38001D03*
X38001Y38001D03*
D12*
X265180Y139700D03*
X293620Y139700D03*
X293620Y165100D03*
X265180Y165100D03*
D26*
X249200Y355600D03*
X284200Y355600D03*
X258800Y25400D03*
X223800Y25400D03*
D12*
X138180Y25400D03*
X166620Y25400D03*
X150880Y355600D03*
X179320Y355600D03*
D27*
X59554Y240500D02*
X41647Y240500D01*
X41647Y190500D02*
X59554Y190500D01*
X59554Y140500D02*
X41647Y140500D01*
D28*
X199000Y317500D02*
X214000Y317500D01*
D29*
X235775Y302500D03*
X235775Y332500D03*
X235775Y317500D03*
D21*
X265400Y317500D03*
X293400Y317500D03*
D30*
X230650Y78500D03*
X230650Y48500D03*
D21*
X252700Y63500D03*
X280700Y63500D03*
D31*
X101600Y241300D03*
X101600Y203200D03*
X101600Y165100D03*
X101600Y127000D03*
X220980Y195580D03*
X295910Y198120D03*
X419100Y190500D03*
X469900Y190500D03*
X546100Y228600D03*
X571500Y190500D03*
X571500Y228600D03*
X660400Y203200D03*
X723900Y203200D03*
X723900Y165100D03*
X660400Y165100D03*
X469900Y63500D03*
X406400Y266700D03*
X406400Y304800D03*
X482600Y304800D03*
X165100Y317500D03*
X321310Y113030D03*
X292100Y38100D03*
X330200Y25400D03*
X482600Y25400D03*
X195580Y43180D03*
X123190Y363220D03*
X266700Y342900D03*
X266700Y254000D03*
X330200Y279400D03*
X152400Y304800D03*
X177800Y292100D03*
X177800Y139700D03*
X177800Y152400D03*
X342900Y229870D03*
X388620Y139700D03*
X120650Y317500D03*
X259080Y215900D03*
X355600Y241300D03*
X342900Y139700D03*
X254000Y190500D03*
M02*
