G04 EAGLE Gerber RS-274X export*
G75*
%MOMM*%
%FSLAX34Y34*%
%LPD*%
%INSoldermask Top*%
%IPPOS*%
%AMOC8*
5,1,8,0,0,1.08239X$1,22.5*%
G01*
%ADD10C,3.251200*%
%ADD11R,2.003200X1.803200*%
%ADD12R,1.803200X2.006200*%
%ADD13C,2.108200*%
%ADD14C,2.870200*%
%ADD15R,0.812800X2.489200*%
%ADD16R,2.603200X2.603200*%
%ADD17P,1.951982X8X22.500000*%
%ADD18C,1.803400*%
%ADD19P,1.951982X8X202.500000*%
%ADD20R,1.803200X2.903200*%
%ADD21R,2.006200X1.803200*%
%ADD22R,1.803200X2.003200*%
%ADD23R,2.103200X3.603200*%
%ADD24P,2.309387X8X22.500000*%
%ADD25R,4.267200X2.235200*%
%ADD26R,2.235200X4.267200*%
%ADD27R,1.703200X1.703200*%
%ADD28C,1.993900*%
%ADD29C,0.959600*%


D10*
X165100Y190500D03*
X520700Y190500D03*
X711200Y342900D03*
X711200Y38100D03*
D11*
X444500Y278100D03*
X444500Y306100D03*
D12*
X481080Y228600D03*
X509520Y228600D03*
D13*
X63500Y317500D03*
D14*
X38001Y342999D03*
X88999Y342999D03*
X88999Y292001D03*
X38001Y292001D03*
D13*
X685800Y266700D03*
D14*
X660301Y292199D03*
X711299Y292199D03*
X711299Y241201D03*
X660301Y241201D03*
D15*
X387350Y215646D03*
X374650Y215646D03*
X361950Y215646D03*
X349250Y215646D03*
X349250Y165354D03*
X361950Y165354D03*
X374650Y165354D03*
X387350Y165354D03*
D16*
X288700Y317500D03*
X244700Y317500D03*
X219300Y63500D03*
X263300Y63500D03*
D17*
X393700Y330200D03*
D18*
X368300Y330200D03*
D19*
X368300Y50800D03*
D18*
X393700Y50800D03*
D16*
X187100Y317500D03*
X143100Y317500D03*
X130400Y63500D03*
X174400Y63500D03*
D20*
X125700Y279400D03*
X153700Y279400D03*
D12*
X201680Y279400D03*
X230120Y279400D03*
D21*
X243840Y242820D03*
X243840Y214380D03*
X318770Y211840D03*
X318770Y240280D03*
X279400Y211840D03*
X279400Y240280D03*
D22*
X298480Y279400D03*
X270480Y279400D03*
D11*
X201930Y242600D03*
X201930Y214600D03*
D12*
X125480Y241300D03*
X153920Y241300D03*
X382520Y279400D03*
X354080Y279400D03*
D23*
X501200Y330200D03*
X540200Y330200D03*
D11*
X546100Y293400D03*
X546100Y265400D03*
D24*
X330200Y317500D03*
D23*
X577400Y330200D03*
X616400Y330200D03*
D11*
X622300Y293400D03*
X622300Y265400D03*
D20*
X420340Y226060D03*
X448340Y226060D03*
D25*
X330200Y342900D03*
X317500Y63500D03*
X444500Y25400D03*
D26*
X698500Y190500D03*
D25*
X444500Y342900D03*
X495300Y266700D03*
D26*
X584200Y279400D03*
D25*
X609600Y228600D03*
D12*
X481080Y152400D03*
X509520Y152400D03*
D11*
X444500Y102900D03*
X444500Y74900D03*
D13*
X685800Y114300D03*
D14*
X660301Y139799D03*
X711299Y139799D03*
X711299Y88801D03*
X660301Y88801D03*
D12*
X382520Y114300D03*
X354080Y114300D03*
D23*
X501200Y76200D03*
X540200Y76200D03*
D11*
X546100Y125700D03*
X546100Y153700D03*
D23*
X577400Y76200D03*
X616400Y76200D03*
D11*
X622300Y125700D03*
X622300Y153700D03*
D20*
X417800Y152400D03*
X445800Y152400D03*
D25*
X495300Y114300D03*
D26*
X584200Y139700D03*
D25*
X609600Y190500D03*
D21*
X241300Y179320D03*
X241300Y150880D03*
D12*
X217420Y114300D03*
X188980Y114300D03*
D11*
X203200Y151100D03*
X203200Y179100D03*
D22*
X293400Y114300D03*
X265400Y114300D03*
D12*
X125480Y152400D03*
X153920Y152400D03*
D20*
X153700Y114300D03*
X125700Y114300D03*
D13*
X63500Y63500D03*
D14*
X38001Y88999D03*
X88999Y88999D03*
X88999Y38001D03*
X38001Y38001D03*
D21*
X317500Y150880D03*
X317500Y179320D03*
X279400Y150880D03*
X279400Y179320D03*
D27*
X249200Y355600D03*
X284200Y355600D03*
X258800Y25400D03*
X223800Y25400D03*
D12*
X138180Y25400D03*
X166620Y25400D03*
X150880Y355600D03*
X179320Y355600D03*
D28*
X59554Y240500D02*
X41647Y240500D01*
X41647Y190500D02*
X59554Y190500D01*
X59554Y140500D02*
X41647Y140500D01*
D29*
X101600Y241300D03*
X101600Y203200D03*
X101600Y165100D03*
X101600Y127000D03*
X220980Y195580D03*
X295910Y198120D03*
X419100Y190500D03*
X469900Y190500D03*
X546100Y228600D03*
X571500Y190500D03*
X571500Y228600D03*
X660400Y203200D03*
X723900Y203200D03*
X723900Y165100D03*
X660400Y165100D03*
X469900Y63500D03*
X406400Y266700D03*
X406400Y304800D03*
X482600Y304800D03*
X215900Y342900D03*
X321310Y100330D03*
X292100Y38100D03*
X330200Y25400D03*
X482600Y25400D03*
X195580Y43180D03*
X123190Y363220D03*
X342900Y229870D03*
X388620Y139700D03*
X120650Y317500D03*
X259080Y215900D03*
X355600Y241300D03*
X342900Y139700D03*
X254000Y190500D03*
M02*
