G04 EAGLE Gerber RS-274X export*
G75*
%MOMM*%
%FSLAX34Y34*%
%LPD*%
%INSoldermask Bottom*%
%IPPOS*%
%AMOC8*
5,1,8,0,0,1.08239X$1,22.5*%
G01*
%ADD10C,3.251200*%
%ADD11C,2.108200*%
%ADD12C,2.870200*%
%ADD13P,1.951982X8X22.500000*%
%ADD14C,1.803400*%
%ADD15P,1.951982X8X202.500000*%
%ADD16P,2.309387X8X22.500000*%
%ADD17C,1.993900*%
%ADD18C,0.959600*%


D10*
X165100Y190500D03*
X520700Y190500D03*
X711200Y342900D03*
X711200Y38100D03*
D11*
X63500Y317500D03*
D12*
X38001Y342999D03*
X88999Y342999D03*
X88999Y292001D03*
X38001Y292001D03*
D11*
X685800Y266700D03*
D12*
X660301Y292199D03*
X711299Y292199D03*
X711299Y241201D03*
X660301Y241201D03*
D13*
X393700Y330200D03*
D14*
X368300Y330200D03*
D15*
X368300Y50800D03*
D14*
X393700Y50800D03*
D16*
X330200Y317500D03*
D11*
X685800Y114300D03*
D12*
X660301Y139799D03*
X711299Y139799D03*
X711299Y88801D03*
X660301Y88801D03*
D11*
X63500Y63500D03*
D12*
X38001Y88999D03*
X88999Y88999D03*
X88999Y38001D03*
X38001Y38001D03*
D17*
X41647Y240500D02*
X59554Y240500D01*
X59554Y190500D02*
X41647Y190500D01*
X41647Y140500D02*
X59554Y140500D01*
D18*
X101600Y241300D03*
X101600Y203200D03*
X101600Y165100D03*
X101600Y127000D03*
X220980Y195580D03*
X295910Y198120D03*
X419100Y190500D03*
X469900Y190500D03*
X546100Y228600D03*
X571500Y190500D03*
X571500Y228600D03*
X660400Y203200D03*
X723900Y203200D03*
X723900Y165100D03*
X660400Y165100D03*
X469900Y63500D03*
X406400Y266700D03*
X406400Y304800D03*
X482600Y304800D03*
X165100Y317500D03*
X321310Y113030D03*
X292100Y38100D03*
X330200Y25400D03*
X482600Y25400D03*
X195580Y43180D03*
X123190Y363220D03*
X266700Y342900D03*
X266700Y254000D03*
X330200Y279400D03*
X152400Y304800D03*
X177800Y292100D03*
X177800Y139700D03*
X177800Y152400D03*
X342900Y229870D03*
X388620Y139700D03*
X120650Y317500D03*
X259080Y215900D03*
X355600Y241300D03*
X342900Y139700D03*
X254000Y190500D03*
M02*
