G04 EAGLE Gerber RS-274X export*
G75*
%MOMM*%
%FSLAX34Y34*%
%LPD*%
%INSolderpaste Top*%
%IPPOS*%
%AMOC8*
5,1,8,0,0,1.08239X$1,22.5*%
G01*
%ADD10R,1.800000X1.600000*%
%ADD11R,1.600000X1.803000*%
%ADD12R,0.609600X2.286000*%
%ADD13R,1.600000X2.700000*%
%ADD14R,1.803000X1.600000*%
%ADD15R,1.600000X1.800000*%
%ADD16R,1.900000X3.400000*%
%ADD17R,1.500000X1.500000*%
%ADD18R,1.400000X0.800000*%
%ADD19R,2.200000X1.800000*%
%ADD20R,1.225000X0.650000*%
%ADD21R,1.550000X1.265000*%
%ADD22R,1.400000X0.570000*%


D10*
X444500Y278100D03*
X444500Y306100D03*
D11*
X481080Y228600D03*
X509520Y228600D03*
D12*
X387350Y215646D03*
X374650Y215646D03*
X361950Y215646D03*
X349250Y215646D03*
X349250Y165354D03*
X361950Y165354D03*
X374650Y165354D03*
X387350Y165354D03*
D10*
X406400Y151100D03*
X406400Y179100D03*
X317500Y179100D03*
X317500Y151100D03*
D13*
X125700Y279400D03*
X153700Y279400D03*
D11*
X201680Y279400D03*
X230120Y279400D03*
D14*
X243840Y242820D03*
X243840Y214380D03*
X318770Y211840D03*
X318770Y240280D03*
X279400Y211840D03*
X279400Y240280D03*
D15*
X298480Y279400D03*
X270480Y279400D03*
D10*
X201930Y242600D03*
X201930Y214600D03*
D11*
X125480Y241300D03*
X153920Y241300D03*
X382520Y279400D03*
X354080Y279400D03*
D16*
X501200Y330200D03*
X540200Y330200D03*
D10*
X546100Y293400D03*
X546100Y265400D03*
D16*
X577400Y330200D03*
X616400Y330200D03*
D10*
X622300Y293400D03*
X622300Y265400D03*
D13*
X420340Y226060D03*
X448340Y226060D03*
D11*
X481080Y152400D03*
X509520Y152400D03*
D10*
X444500Y102900D03*
X444500Y74900D03*
D11*
X382520Y101600D03*
X354080Y101600D03*
D16*
X501200Y76200D03*
X540200Y76200D03*
D10*
X546100Y125700D03*
X546100Y153700D03*
D16*
X577400Y76200D03*
X616400Y76200D03*
D10*
X622300Y125700D03*
X622300Y153700D03*
D13*
X430500Y152400D03*
X458500Y152400D03*
D14*
X241300Y179320D03*
X241300Y150880D03*
D11*
X217420Y114300D03*
X188980Y114300D03*
D10*
X203200Y151100D03*
X203200Y179100D03*
D15*
X293400Y114300D03*
X265400Y114300D03*
D11*
X125480Y152400D03*
X153920Y152400D03*
D13*
X153700Y114300D03*
X125700Y114300D03*
D11*
X265180Y139700D03*
X293620Y139700D03*
X293620Y165100D03*
X265180Y165100D03*
D17*
X249200Y355600D03*
X284200Y355600D03*
X258800Y25400D03*
X223800Y25400D03*
D11*
X138180Y25400D03*
X166620Y25400D03*
X150880Y355600D03*
X179320Y355600D03*
D18*
X235700Y317500D03*
X235700Y332500D03*
X235700Y302500D03*
D19*
X204900Y317500D03*
D15*
X265400Y317500D03*
X293400Y317500D03*
D20*
X231525Y63500D03*
D21*
X206400Y63500D03*
D22*
X230650Y78500D03*
X230650Y48500D03*
D15*
X252700Y63500D03*
X280700Y63500D03*
M02*
