G04 EAGLE Gerber RS-274X export*
G75*
%MOMM*%
%FSLAX34Y34*%
%LPD*%
%INSolderpaste Top*%
%IPPOS*%
%AMOC8*
5,1,8,0,0,1.08239X$1,22.5*%
G01*
%ADD10R,1.800000X1.600000*%
%ADD11R,1.600000X1.803000*%
%ADD12R,0.609600X2.286000*%
%ADD13R,2.400000X2.400000*%
%ADD14R,1.600000X2.700000*%
%ADD15R,1.803000X1.600000*%
%ADD16R,1.600000X1.800000*%
%ADD17R,1.900000X3.400000*%
%ADD18R,1.500000X1.500000*%


D10*
X444500Y278100D03*
X444500Y306100D03*
D11*
X481080Y228600D03*
X509520Y228600D03*
D12*
X387350Y215646D03*
X374650Y215646D03*
X361950Y215646D03*
X349250Y215646D03*
X349250Y165354D03*
X361950Y165354D03*
X374650Y165354D03*
X387350Y165354D03*
D13*
X288700Y317500D03*
X244700Y317500D03*
X219300Y63500D03*
X263300Y63500D03*
X187100Y317500D03*
X143100Y317500D03*
X130400Y63500D03*
X174400Y63500D03*
D14*
X125700Y279400D03*
X153700Y279400D03*
D11*
X201680Y279400D03*
X230120Y279400D03*
D15*
X243840Y242820D03*
X243840Y214380D03*
X318770Y211840D03*
X318770Y240280D03*
X279400Y211840D03*
X279400Y240280D03*
D16*
X298480Y279400D03*
X270480Y279400D03*
D10*
X201930Y242600D03*
X201930Y214600D03*
D11*
X125480Y241300D03*
X153920Y241300D03*
X382520Y279400D03*
X354080Y279400D03*
D17*
X501200Y330200D03*
X540200Y330200D03*
D10*
X546100Y293400D03*
X546100Y265400D03*
D17*
X577400Y330200D03*
X616400Y330200D03*
D10*
X622300Y293400D03*
X622300Y265400D03*
D14*
X420340Y226060D03*
X448340Y226060D03*
D11*
X481080Y152400D03*
X509520Y152400D03*
D10*
X444500Y102900D03*
X444500Y74900D03*
D11*
X382520Y114300D03*
X354080Y114300D03*
D17*
X501200Y76200D03*
X540200Y76200D03*
D10*
X546100Y125700D03*
X546100Y153700D03*
D17*
X577400Y76200D03*
X616400Y76200D03*
D10*
X622300Y125700D03*
X622300Y153700D03*
D14*
X417800Y152400D03*
X445800Y152400D03*
D15*
X241300Y179320D03*
X241300Y150880D03*
D11*
X217420Y114300D03*
X188980Y114300D03*
D10*
X203200Y151100D03*
X203200Y179100D03*
D16*
X293400Y114300D03*
X265400Y114300D03*
D11*
X125480Y152400D03*
X153920Y152400D03*
D14*
X153700Y114300D03*
X125700Y114300D03*
D15*
X317500Y150880D03*
X317500Y179320D03*
X279400Y150880D03*
X279400Y179320D03*
D18*
X249200Y355600D03*
X284200Y355600D03*
X258800Y25400D03*
X223800Y25400D03*
D11*
X138180Y25400D03*
X166620Y25400D03*
X150880Y355600D03*
X179320Y355600D03*
M02*
